M48
; DRILL file {KiCad (5.1.10)-1} date 11/18/21 00:25:46
; FORMAT={-:-/ absolute / metric / decimal}
; #@! TF.CreationDate,2021-11-18T00:25:46+09:00
; #@! TF.GenerationSoftware,Kicad,Pcbnew,(5.1.10)-1
FMAT,2
METRIC
T1C0.400
T2C0.500
T3C0.813
T4C1.000
T5C1.200
T6C1.300
T7C1.500
T8C4.700
T9C1.000
T10C1.200
T11C1.700
T12C1.900
T13C2.200
T14C4.000
%
G90
G05
T1
X1.902Y-1.981
X2.0Y-41.6
X2.0Y-43.4
X3.083Y-53.881
X5.039Y-66.706
X5.4Y-22.1
X5.7Y-40.325
X5.7Y-43.3
X6.42Y-32.5
X7.0Y-34.98
X7.28Y-26.72
X7.3Y-22.2
X8.788Y-34.988
X9.476Y-78.291
X12.83Y-6.67
X12.904Y-10.406
X13.014Y-15.486
X13.685Y-85.309
X14.0Y-89.0
X14.5Y-7.866
X14.5Y-11.618
X14.5Y-31.3
X14.536Y-65.997
X14.549Y-1.293
X15.27Y-46.37
X15.298Y-89.428
X15.374Y-18.026
X16.021Y-68.021
X16.021Y-69.379
X16.2Y-12.946
X16.5Y-47.02
X17.45Y-45.0
X17.459Y-44.011
X17.5Y-16.83
X17.5Y-32.15
X17.5Y-32.95
X17.5Y-97.1
X17.584Y-88.603
X18.4Y-57.15
X19.171Y-96.096
X19.8Y-14.29
X19.8Y-31.7
X20.0Y-45.59
X21.559Y-104.072
X21.696Y-93.139
X22.0Y-68.0
X22.283Y-65.997
X22.7Y-4.5
X22.7Y-7.0
X22.7Y-14.8
X22.7Y-17.1
X22.7Y-19.8
X22.7Y-22.3
X22.7Y-24.9
X22.7Y-27.5
X22.7Y-29.8
X22.7Y-31.4
X22.872Y-42.893
X22.888Y-34.31
X23.667Y-52.979
X24.003Y-45.451
X24.01Y-87.62
X25.722Y-35.189
X26.449Y-71.019
X26.8Y-58.3
X26.8Y-61.7
X26.947Y-31.99
X26.996Y-37.524
X27.0Y-44.3
X28.252Y-30.755
X28.442Y-70.129
X28.45Y-67.679
X28.45Y-84.228
X28.459Y-78.46
X28.557Y-1.296
X28.643Y-37.432
X29.2Y-53.673
X29.2Y-66.827
X29.601Y-42.972
X29.95Y-69.379
X29.95Y-74.004
X29.966Y-77.554
X30.15Y-87.172
X30.412Y-25.674
X30.528Y-11.27
X30.541Y-92.045
X30.641Y-23.106
X30.7Y-53.678
X30.982Y-82.84
X31.282Y-20.716
X31.948Y-41.753
X32.039Y-25.116
X32.143Y-40.074
X32.969Y-44.846
X33.37Y-19.347
X33.449Y-15.451
X33.5Y-76.55
X33.586Y-18.499
X33.586Y-75.585
X33.649Y-37.612
X33.649Y-39.401
X33.649Y-56.599
X34.541Y-80.739
X34.638Y-96.723
X34.725Y-35.35
X35.1Y-54.258
X35.1Y-73.258
X35.807Y-15.451
X37.5Y-9.65
X37.5Y-28.75
X37.5Y-47.75
X37.5Y-66.75
X38.7Y-88.8
X38.7Y-92.2
X39.402Y-83.988
X39.825Y-78.375
X41.203Y-23.381
X41.333Y-37.612
X41.333Y-56.662
X41.35Y-60.6
X41.396Y-18.499
X41.396Y-75.585
X41.5Y-74.5
X41.556Y-36.725
X41.633Y-17.625
X42.058Y-38.475
X42.108Y-57.475
X42.145Y-19.375
X42.156Y-1.374
X42.95Y-96.0
X43.111Y-94.508
X43.248Y-44.963
X43.25Y-6.5
X43.487Y-56.662
X43.65Y-14.562
X43.65Y-33.675
X43.903Y-25.36
X44.0Y-92.15
X44.276Y-58.082
X44.282Y-40.465
X45.75Y-9.05
X45.75Y-12.45
X45.75Y-30.3
X45.75Y-33.7
X45.75Y-47.05
X45.75Y-50.45
X45.8Y-68.3
X45.8Y-71.7
X45.857Y-40.371
X47.05Y-85.65
X48.25Y-9.05
X48.25Y-12.45
X48.25Y-47.05
X48.25Y-50.45
X48.25Y-68.3
X48.25Y-71.7
X48.253Y-30.253
X48.253Y-33.653
X49.8Y-64.25
X49.905Y-73.172
X50.05Y-92.45
X50.5Y-22.2
X50.668Y-37.168
X50.7Y-59.65
X50.737Y-54.887
X50.858Y-94.508
X51.206Y-4.686
X51.569Y-81.245
X52.0Y-31.5
X52.425Y-53.161
X52.5Y-34.25
X52.5Y-69.45
X52.572Y-13.609
X52.572Y-16.086
X52.6Y-18.05
X52.626Y-74.4
X52.636Y-35.2
X52.636Y-54.186
X52.636Y-73.299
X53.729Y-95.375
X56.2Y-83.7
X56.2Y-87.1
X56.5Y-26.35
X56.5Y-45.35
X56.5Y-64.45
X56.55Y-7.3
X58.9Y-18.442
X58.9Y-75.642
X58.95Y-57.45
X60.2Y-16.086
X60.305Y-54.259
X60.383Y-35.2
X60.383Y-73.299
X60.5Y-72.2
X60.7Y-15.2
X61.043Y-16.893
X61.208Y-20.081
X61.313Y-80.381
X61.432Y-97.026
X62.0Y-94.0
X62.097Y-92.222
X62.25Y-74.95
X62.374Y-39.083
X62.5Y-35.2
X62.65Y-12.575
X62.65Y-31.83
X62.65Y-50.4
X62.65Y-69.6
X62.653Y-89.428
X62.88Y-54.262
X65.913Y-37.155
X66.0Y-25.8
X66.0Y-29.2
X66.0Y-44.8
X66.0Y-48.2
X66.0Y-63.8
X66.0Y-67.2
X66.0Y-83.4
X66.25Y-6.55
X66.25Y-9.95
X67.907Y-75.508
X68.4Y-95.402
X69.118Y-56.952
X69.147Y-33.803
X69.534Y-52.916
X69.844Y-92.286
X70.0Y-15.5
X70.0Y-91.136
X70.043Y-20.081
X71.5Y-73.0
X71.678Y-51.708
X71.686Y-14.752
X71.686Y-33.803
X71.686Y-52.916
X71.749Y-71.903
X71.813Y-12.212
X72.3Y-31.025
X72.599Y-69.051
X72.727Y-91.133
X73.858Y-78.313
X73.873Y-82.078
X75.6Y-5.86
X75.6Y-24.95
X75.6Y-44.05
X75.6Y-63.05
X75.7Y-83.7
X75.7Y-87.1
X77.925Y-74.675
X78.0Y-36.142
X78.0Y-55.242
X79.433Y-71.966
X79.496Y-14.689
X79.496Y-33.803
X79.496Y-52.916
X79.589Y-71.011
X79.759Y-13.841
X80.004Y-80.589
X80.32Y-17.485
X80.429Y-96.944
X80.723Y-75.619
X81.002Y-53.998
X81.003Y-93.125
X81.211Y-92.222
X81.287Y-2.855
X81.346Y-21.565
X81.484Y-35.016
X81.75Y-11.185
X81.75Y-30.945
X81.75Y-68.301
X82.385Y-49.445
X82.735Y-73.865
X84.089Y-77.376
X85.1Y-83.4
X85.25Y-8.8
X85.25Y-12.2
X85.25Y-27.8
X85.25Y-31.2
X85.25Y-47.05
X85.25Y-50.45
X85.25Y-66.05
X85.25Y-69.45
X88.0Y-5.45
X88.402Y-58.832
X88.418Y-54.968
X88.958Y-92.222
X89.114Y-35.136
X89.136Y-16.086
X89.63Y-93.125
X90.25Y-80.65
X90.5Y-74.5
X90.525Y-32.85
X90.545Y-13.355
X90.736Y-16.086
X90.736Y-35.136
X90.736Y-54.249
X90.736Y-73.299
X90.75Y-21.6
X90.772Y-52.914
X92.2Y-13.7
X92.2Y-71.0
X93.334Y-88.489
X94.6Y-7.25
X94.6Y-26.25
X94.6Y-45.35
X94.6Y-64.45
X95.167Y-77.475
X97.013Y-56.987
X97.521Y-79.829
X98.419Y-16.149
X98.483Y-35.072
X98.483Y-54.186
X98.483Y-73.299
X98.605Y-15.225
X98.775Y-72.425
X98.805Y-18.875
X100.523Y-56.226
X100.704Y-32.217
X100.706Y-12.53
X100.73Y-37.32
X100.749Y-69.629
X100.75Y-79.15
X101.254Y-1.997
X101.287Y-51.095
X104.25Y-13.8
X104.25Y-17.2
X104.25Y-32.55
X104.25Y-35.95
X104.25Y-52.05
X104.25Y-55.45
X104.25Y-70.8
X104.25Y-74.2
X105.28Y-63.993
X105.35Y-26.0
X106.789Y-7.58
X106.987Y-56.023
X107.538Y-82.192
X107.546Y-60.096
X107.614Y-63.736
X108.242Y-39.842
X108.874Y-2.53
X109.5Y-79.45
X109.625Y-38.675
X109.65Y-57.936
X109.691Y-18.308
X109.786Y-59.012
X109.849Y-20.848
X109.849Y-39.835
X109.849Y-77.998
X109.875Y-21.775
X109.904Y-75.658
X111.475Y-23.675
X113.7Y-12.05
X113.7Y-30.95
X113.7Y-50.15
X113.7Y-69.15
X115.67Y-80.781
X116.1Y-23.242
X116.1Y-61.342
X116.114Y-42.575
X117.469Y-20.912
X117.475Y-20.025
X117.533Y-59.012
X117.533Y-77.998
X117.596Y-39.771
X117.631Y-58.0
X117.745Y-77.1
X118.343Y-3.409
X119.712Y-41.887
X119.85Y-74.353
X120.21Y-17.165
X120.476Y-37.019
X120.962Y-56.091
X123.167Y-7.204
X123.248Y-34.261
X123.248Y-37.661
X123.248Y-72.425
X123.248Y-75.825
X123.25Y-13.8
X123.25Y-17.2
X123.25Y-52.05
X123.25Y-55.45
X126.01Y-61.34
X127.036Y-62.336
X127.154Y-41.295
X127.856Y-67.948
X127.95Y-80.3
X128.524Y-4.895
X128.529Y-82.387
X128.7Y-78.6
X128.825Y-23.275
X128.836Y-22.372
X128.836Y-41.295
X128.836Y-60.536
X128.836Y-79.522
X128.837Y-39.262
X129.651Y-65.311
X132.7Y-13.55
X132.7Y-32.45
X132.7Y-51.65
X132.75Y-70.65
X135.1Y-24.742
X135.1Y-62.842
X135.117Y-44.077
X135.15Y-81.842
X136.583Y-22.372
X136.583Y-60.472
X136.647Y-79.459
X136.846Y-21.525
X136.959Y-78.709
X136.966Y-42.175
X137.977Y-38.598
X138.0Y-8.0
X138.35Y-26.35
X138.35Y-64.5
X138.544Y-44.458
X138.58Y-62.47
X141.0Y-16.0
X141.0Y-36.0
X141.0Y-55.0
X141.0Y-74.0
X141.036Y-82.385
T3
X1.688Y-16.499
X1.688Y-21.579
X1.7Y-23.7
X3.9Y-23.7
X3.938Y-16.499
X3.938Y-21.579
X9.18Y-4.13
X9.18Y-6.67
X9.18Y-9.21
X9.18Y-11.75
X9.18Y-14.29
X9.18Y-16.83
X9.18Y-19.37
X9.18Y-21.91
X9.18Y-24.45
X9.18Y-26.99
X9.18Y-29.53
X9.18Y-32.07
X10.479Y-5.326
X10.479Y-7.866
X10.479Y-10.406
X10.479Y-12.946
X10.479Y-15.486
X10.479Y-18.026
X10.479Y-20.566
X10.479Y-23.106
X10.479Y-25.646
X10.479Y-28.186
X10.479Y-30.726
X10.479Y-33.266
X13.63Y-37.6
X13.63Y-40.14
X16.17Y-37.6
X16.17Y-40.14
X18.71Y-37.6
X18.71Y-40.14
X21.25Y-37.6
X21.25Y-40.14
X24.42Y-4.13
X24.42Y-6.67
X24.42Y-9.21
X24.42Y-11.75
X24.42Y-14.29
X24.42Y-16.83
X24.42Y-19.37
X24.42Y-21.91
X24.42Y-24.45
X24.42Y-26.99
X24.42Y-29.53
X24.42Y-32.07
X25.719Y-5.326
X25.719Y-7.866
X25.719Y-10.406
X25.719Y-12.946
X25.719Y-15.486
X25.719Y-18.026
X25.719Y-20.566
X25.719Y-23.106
X25.719Y-25.646
X25.719Y-28.186
X25.719Y-30.726
X25.719Y-33.266
T4
X26.718Y-81.233
X26.803Y-54.84
X26.803Y-65.0
X31.798Y-90.031
X38.703Y-85.34
X38.703Y-95.5
X45.753Y-5.59
X45.753Y-15.75
X45.753Y-26.84
X45.753Y-37.0
X45.753Y-43.59
X45.753Y-53.75
X45.803Y-64.84
X45.803Y-75.0
X48.253Y-5.59
X48.253Y-15.75
X48.253Y-43.59
X48.253Y-53.75
X48.253Y-64.84
X48.253Y-75.0
X48.255Y-26.793
X48.255Y-36.953
X56.203Y-80.24
X56.203Y-90.4
X66.003Y-22.34
X66.003Y-32.5
X66.003Y-41.34
X66.003Y-51.5
X66.003Y-60.34
X66.003Y-70.5
X66.253Y-3.09
X66.253Y-13.25
X75.703Y-80.24
X75.703Y-90.4
X85.253Y-5.34
X85.253Y-15.5
X85.253Y-24.34
X85.253Y-34.5
X85.253Y-43.59
X85.253Y-53.75
X85.253Y-62.59
X85.253Y-72.75
X104.253Y-10.34
X104.253Y-20.5
X104.253Y-29.09
X104.253Y-39.25
X104.253Y-48.59
X104.253Y-58.75
X104.253Y-67.34
X104.253Y-77.5
X123.251Y-30.801
X123.251Y-40.962
X123.251Y-68.965
X123.251Y-79.125
X123.253Y-10.34
X123.253Y-20.5
X123.253Y-48.59
X123.253Y-58.75
T5
X18.4Y-54.6
X27.11Y-87.05
X37.5Y-7.1
X37.5Y-26.2
X37.5Y-45.2
X37.5Y-64.2
X47.0Y-83.1
X56.5Y-4.7
X56.5Y-23.8
X56.5Y-42.8
X56.5Y-61.9
X66.0Y-80.85
X75.6Y-3.31
X75.6Y-22.4
X75.6Y-41.5
X75.6Y-60.5
X85.1Y-80.85
X94.6Y-4.7
X94.6Y-23.75
X94.6Y-42.8
X94.6Y-61.9
X113.7Y-9.5
X113.7Y-28.4
X113.7Y-47.6
X113.7Y-66.6
X132.7Y-11.0
X132.7Y-29.9
X132.7Y-49.1
X132.75Y-68.1
T6
X2.1Y-28.25
X2.1Y-34.75
T7
X15.86Y-55.42
X20.94Y-55.42
X22.21Y-57.96
X25.129Y-85.26
X26.105Y-92.03
X27.669Y-89.66
X34.96Y-7.92
X34.96Y-27.02
X34.96Y-46.02
X34.96Y-65.02
X40.04Y-7.92
X40.04Y-27.02
X40.04Y-46.02
X40.04Y-65.02
X41.31Y-10.46
X41.31Y-29.56
X41.31Y-48.56
X41.31Y-67.56
X44.46Y-83.92
X49.54Y-83.92
X50.81Y-86.46
X53.96Y-5.52
X53.96Y-24.62
X53.96Y-43.62
X53.96Y-62.72
X59.04Y-5.52
X59.04Y-24.62
X59.04Y-43.62
X59.04Y-62.72
X60.31Y-8.06
X60.31Y-27.16
X60.31Y-46.16
X60.31Y-65.26
X63.46Y-81.67
X68.54Y-81.67
X69.81Y-84.21
X73.06Y-4.13
X73.06Y-23.22
X73.06Y-42.32
X73.06Y-61.32
X78.14Y-4.13
X78.14Y-23.22
X78.14Y-42.32
X78.14Y-61.32
X79.41Y-6.67
X79.41Y-25.76
X79.41Y-44.86
X79.41Y-63.86
X82.56Y-81.67
X87.64Y-81.67
X88.91Y-84.21
X92.06Y-5.52
X92.06Y-24.57
X92.06Y-43.62
X92.06Y-62.72
X97.14Y-5.52
X97.14Y-24.57
X97.14Y-43.62
X97.14Y-62.72
X98.41Y-8.06
X98.41Y-27.11
X98.41Y-46.16
X98.41Y-65.26
X111.16Y-10.32
X111.16Y-29.22
X111.16Y-48.42
X111.16Y-67.42
X116.24Y-10.32
X116.24Y-29.22
X116.24Y-48.42
X116.24Y-67.42
X117.51Y-12.86
X117.51Y-31.76
X117.51Y-50.96
X117.51Y-69.96
X130.16Y-11.82
X130.16Y-30.72
X130.16Y-49.92
X130.21Y-68.92
X135.24Y-11.82
X135.24Y-30.72
X135.24Y-49.92
X135.29Y-68.92
X136.51Y-14.36
X136.51Y-33.26
X136.51Y-52.46
X136.56Y-71.46
T8
X22.0Y-77.8
X46.6Y-22.6
X46.6Y-60.6
X122.8Y-24.8
X122.8Y-63.0
T9
X13.18Y-64.7
X15.753Y-87.579
X20.973Y-96.621
X23.62Y-64.7
X32.28Y-17.2
X32.28Y-36.3
X32.28Y-55.3
X32.28Y-74.3
X41.78Y-93.2
X42.72Y-17.2
X42.72Y-36.3
X42.72Y-55.3
X42.72Y-74.3
X51.28Y-14.8
X51.28Y-33.9
X51.28Y-52.9
X51.28Y-72.0
X52.22Y-93.2
X60.78Y-90.95
X61.72Y-14.8
X61.72Y-33.9
X61.72Y-52.9
X61.72Y-72.0
X70.38Y-13.41
X70.38Y-32.5
X70.38Y-51.6
X70.38Y-70.6
X71.22Y-90.95
X79.88Y-90.95
X80.82Y-13.41
X80.82Y-32.5
X80.82Y-51.6
X80.82Y-70.6
X89.38Y-14.8
X89.38Y-33.85
X89.38Y-52.9
X89.38Y-72.0
X90.32Y-90.95
X99.82Y-14.8
X99.82Y-33.85
X99.82Y-52.9
X99.82Y-72.0
X108.48Y-19.6
X108.48Y-38.5
X108.48Y-57.7
X108.48Y-76.7
X118.92Y-19.6
X118.92Y-38.5
X118.92Y-57.7
X118.92Y-76.7
X127.48Y-21.1
X127.48Y-40.0
X127.48Y-59.2
X127.53Y-78.2
X137.92Y-21.1
X137.92Y-40.0
X137.92Y-59.2
X137.97Y-78.2
T10
X3.15Y-3.8
X3.15Y-10.8
X4.9Y-3.8
X4.9Y-10.8
T11
X13.32Y-60.5
X19.46Y-85.601
X23.48Y-60.5
X24.54Y-94.399
X32.42Y-13.0
X32.42Y-32.1
X32.42Y-51.1
X32.42Y-70.1
X41.92Y-89.0
X42.58Y-13.0
X42.58Y-32.1
X42.58Y-51.1
X42.58Y-70.1
X51.42Y-10.6
X51.42Y-29.7
X51.42Y-48.7
X51.42Y-67.8
X52.08Y-89.0
X60.92Y-86.75
X61.58Y-10.6
X61.58Y-29.7
X61.58Y-48.7
X61.58Y-67.8
X70.52Y-9.21
X70.52Y-28.3
X70.52Y-47.4
X70.52Y-66.4
X71.08Y-86.75
X80.02Y-86.75
X80.68Y-9.21
X80.68Y-28.3
X80.68Y-47.4
X80.68Y-66.4
X89.52Y-10.6
X89.52Y-29.65
X89.52Y-48.7
X89.52Y-67.8
X90.18Y-86.75
X99.68Y-10.6
X99.68Y-29.65
X99.68Y-48.7
X99.68Y-67.8
X108.62Y-15.4
X108.62Y-34.3
X108.62Y-53.5
X108.62Y-72.5
X118.78Y-15.4
X118.78Y-34.3
X118.78Y-53.5
X118.78Y-72.5
X127.62Y-16.9
X127.62Y-35.8
X127.62Y-55.0
X127.67Y-74.0
X137.78Y-16.9
X137.78Y-35.8
X137.78Y-55.0
X137.83Y-74.0
T12
X12.9Y-60.5
X19.25Y-85.237
X23.9Y-60.5
X24.75Y-94.763
X32.0Y-13.0
X32.0Y-32.1
X32.0Y-51.1
X32.0Y-70.1
X41.5Y-89.0
X43.0Y-13.0
X43.0Y-32.1
X43.0Y-51.1
X43.0Y-70.1
X51.0Y-10.6
X51.0Y-29.7
X51.0Y-48.7
X51.0Y-67.8
X52.5Y-89.0
X60.5Y-86.75
X62.0Y-10.6
X62.0Y-29.7
X62.0Y-48.7
X62.0Y-67.8
X70.1Y-9.21
X70.1Y-28.3
X70.1Y-47.4
X70.1Y-66.4
X71.5Y-86.75
X79.6Y-86.75
X81.1Y-9.21
X81.1Y-28.3
X81.1Y-47.4
X81.1Y-66.4
X89.1Y-10.6
X89.1Y-29.65
X89.1Y-48.7
X89.1Y-67.8
X90.6Y-86.75
X100.1Y-10.6
X100.1Y-29.65
X100.1Y-48.7
X100.1Y-67.8
X108.2Y-15.4
X108.2Y-34.3
X108.2Y-53.5
X108.2Y-72.5
X119.2Y-15.4
X119.2Y-34.3
X119.2Y-53.5
X119.2Y-72.5
X127.2Y-16.9
X127.2Y-35.8
X127.2Y-55.0
X127.25Y-74.0
X138.2Y-16.9
X138.2Y-35.8
X138.2Y-55.0
X138.25Y-74.0
T13
X3.0Y-48.0
X25.0Y-48.0
T14
X18.4Y-60.5
X22.0Y-90.0
X37.5Y-13.0
X37.5Y-32.1
X37.5Y-51.1
X37.5Y-70.1
X47.0Y-89.0
X56.5Y-10.6
X56.5Y-29.7
X56.5Y-48.7
X56.5Y-67.8
X66.0Y-86.75
X75.6Y-9.21
X75.6Y-28.3
X75.6Y-47.4
X75.6Y-66.4
X85.1Y-86.75
X94.6Y-10.6
X94.6Y-29.65
X94.6Y-48.7
X94.6Y-67.8
X113.7Y-15.4
X113.7Y-34.3
X113.7Y-53.5
X113.7Y-72.5
X132.7Y-16.9
X132.7Y-35.8
X132.7Y-55.0
X132.75Y-74.0
T2
G00X1.05Y-5.05
M15
G01X1.05Y-6.15
M16
G05
G00X1.05Y-8.05
M15
G01X1.05Y-9.15
M16
G05
G00X1.05Y-12.05
M15
G01X1.05Y-13.15
M16
G05
G00X2.8Y-13.55
M15
G01X2.8Y-14.65
M16
G05
G00X5.25Y-13.55
M15
G01X5.25Y-14.65
M16
G05
G00X7.0Y-5.05
M15
G01X7.0Y-6.15
M16
G05
G00X7.0Y-8.05
M15
G01X7.0Y-9.15
M16
G05
G00X7.0Y-12.05
M15
G01X7.0Y-13.15
M16
G05
T5
G00X13.3Y-56.6
M15
G01X13.3Y-56.6
M16
G05
G00X22.827Y-83.633
M15
G01X22.827Y-83.633
M16
G05
G00X23.5Y-56.6
M15
G01X23.5Y-56.6
M16
G05
G00X27.927Y-92.467
M15
G01X27.927Y-92.467
M16
G05
G00X32.4Y-9.1
M15
G01X32.4Y-9.1
M16
G05
G00X32.4Y-28.2
M15
G01X32.4Y-28.2
M16
G05
G00X32.4Y-47.2
M15
G01X32.4Y-47.2
M16
G05
G00X32.4Y-66.2
M15
G01X32.4Y-66.2
M16
G05
G00X41.9Y-85.1
M15
G01X41.9Y-85.1
M16
G05
G00X42.6Y-9.1
M15
G01X42.6Y-9.1
M16
G05
G00X42.6Y-28.2
M15
G01X42.6Y-28.2
M16
G05
G00X42.6Y-47.2
M15
G01X42.6Y-47.2
M16
G05
G00X42.6Y-66.2
M15
G01X42.6Y-66.2
M16
G05
G00X51.4Y-6.7
M15
G01X51.4Y-6.7
M16
G05
G00X51.4Y-25.8
M15
G01X51.4Y-25.8
M16
G05
G00X51.4Y-44.8
M15
G01X51.4Y-44.8
M16
G05
G00X51.4Y-63.9
M15
G01X51.4Y-63.9
M16
G05
G00X52.1Y-85.1
M15
G01X52.1Y-85.1
M16
G05
G00X60.9Y-82.85
M15
G01X60.9Y-82.85
M16
G05
G00X61.6Y-6.7
M15
G01X61.6Y-6.7
M16
G05
G00X61.6Y-25.8
M15
G01X61.6Y-25.8
M16
G05
G00X61.6Y-44.8
M15
G01X61.6Y-44.8
M16
G05
G00X61.6Y-63.9
M15
G01X61.6Y-63.9
M16
G05
G00X70.5Y-5.31
M15
G01X70.5Y-5.31
M16
G05
G00X70.5Y-24.4
M15
G01X70.5Y-24.4
M16
G05
G00X70.5Y-43.5
M15
G01X70.5Y-43.5
M16
G05
G00X70.5Y-62.5
M15
G01X70.5Y-62.5
M16
G05
G00X71.1Y-82.85
M15
G01X71.1Y-82.85
M16
G05
G00X80.0Y-82.85
M15
G01X80.0Y-82.85
M16
G05
G00X80.7Y-5.31
M15
G01X80.7Y-5.31
M16
G05
G00X80.7Y-24.4
M15
G01X80.7Y-24.4
M16
G05
G00X80.7Y-43.5
M15
G01X80.7Y-43.5
M16
G05
G00X80.7Y-62.5
M15
G01X80.7Y-62.5
M16
G05
G00X89.5Y-6.7
M15
G01X89.5Y-6.7
M16
G05
G00X89.5Y-25.75
M15
G01X89.5Y-25.75
M16
G05
G00X89.5Y-44.8
M15
G01X89.5Y-44.8
M16
G05
G00X89.5Y-63.9
M15
G01X89.5Y-63.9
M16
G05
G00X90.2Y-82.85
M15
G01X90.2Y-82.85
M16
G05
G00X99.7Y-6.7
M15
G01X99.7Y-6.7
M16
G05
G00X99.7Y-25.75
M15
G01X99.7Y-25.75
M16
G05
G00X99.7Y-44.8
M15
G01X99.7Y-44.8
M16
G05
G00X99.7Y-63.9
M15
G01X99.7Y-63.9
M16
G05
G00X108.6Y-11.5
M15
G01X108.6Y-11.5
M16
G05
G00X108.6Y-30.4
M15
G01X108.6Y-30.4
M16
G05
G00X108.6Y-49.6
M15
G01X108.6Y-49.6
M16
G05
G00X108.6Y-68.6
M15
G01X108.6Y-68.6
M16
G05
G00X118.8Y-11.5
M15
G01X118.8Y-11.5
M16
G05
G00X118.8Y-30.4
M15
G01X118.8Y-30.4
M16
G05
G00X118.8Y-49.6
M15
G01X118.8Y-49.6
M16
G05
G00X118.8Y-68.6
M15
G01X118.8Y-68.6
M16
G05
G00X127.6Y-13.0
M15
G01X127.6Y-13.0
M16
G05
G00X127.6Y-31.9
M15
G01X127.6Y-31.9
M16
G05
G00X127.6Y-51.1
M15
G01X127.6Y-51.1
M16
G05
G00X127.65Y-70.1
M15
G01X127.65Y-70.1
M16
G05
G00X137.8Y-13.0
M15
G01X137.8Y-13.0
M16
G05
G00X137.8Y-31.9
M15
G01X137.8Y-31.9
M16
G05
G00X137.8Y-51.1
M15
G01X137.8Y-51.1
M16
G05
G00X137.85Y-70.1
M15
G01X137.85Y-70.1
M16
G05
T7
G00X14.59Y-57.96
M15
G01X14.59Y-57.96
M16
G05
G00X22.295Y-85.43
M15
G01X22.295Y-85.43
M16
G05
G00X33.69Y-10.46
M15
G01X33.69Y-10.46
M16
G05
G00X33.69Y-29.56
M15
G01X33.69Y-29.56
M16
G05
G00X33.69Y-48.56
M15
G01X33.69Y-48.56
M16
G05
G00X33.69Y-67.56
M15
G01X33.69Y-67.56
M16
G05
G00X43.19Y-86.46
M15
G01X43.19Y-86.46
M16
G05
G00X52.69Y-8.06
M15
G01X52.69Y-8.06
M16
G05
G00X52.69Y-27.16
M15
G01X52.69Y-27.16
M16
G05
G00X52.69Y-46.16
M15
G01X52.69Y-46.16
M16
G05
G00X52.69Y-65.26
M15
G01X52.69Y-65.26
M16
G05
G00X62.19Y-84.21
M15
G01X62.19Y-84.21
M16
G05
G00X71.79Y-6.67
M15
G01X71.79Y-6.67
M16
G05
G00X71.79Y-25.76
M15
G01X71.79Y-25.76
M16
G05
G00X71.79Y-44.86
M15
G01X71.79Y-44.86
M16
G05
G00X71.79Y-63.86
M15
G01X71.79Y-63.86
M16
G05
G00X81.29Y-84.21
M15
G01X81.29Y-84.21
M16
G05
G00X90.79Y-8.06
M15
G01X90.79Y-8.06
M16
G05
G00X90.79Y-27.11
M15
G01X90.79Y-27.11
M16
G05
G00X90.79Y-46.16
M15
G01X90.79Y-46.16
M16
G05
G00X90.79Y-65.26
M15
G01X90.79Y-65.26
M16
G05
G00X109.89Y-12.86
M15
G01X109.89Y-12.86
M16
G05
G00X109.89Y-31.76
M15
G01X109.89Y-31.76
M16
G05
G00X109.89Y-50.96
M15
G01X109.89Y-50.96
M16
G05
G00X109.89Y-69.96
M15
G01X109.89Y-69.96
M16
G05
G00X128.89Y-14.36
M15
G01X128.89Y-14.36
M16
G05
G00X128.89Y-33.26
M15
G01X128.89Y-33.26
M16
G05
G00X128.89Y-52.46
M15
G01X128.89Y-52.46
M16
G05
G00X128.94Y-71.46
M15
G01X128.94Y-71.46
M16
G05
T0
M30
