<?xml version="1.0" encoding="UTF-8" standalone="no"?>
<!-- Created with Inkscape (http://www.inkscape.org/) -->

<svg
   width="203.30563mm"
   height="60.08847mm"
   viewBox="0 0 203.30564 60.08847"
   version="1.1"
   id="svg5"
   sodipodi:docname="lily58_x_logo.svg"
   inkscape:version="1.1 (c68e22c387, 2021-05-23)"
   inkscape:export-filename="C:\Users\kenyo\Desktop\Lily58-Glow\lily58_x_logo.png"
   inkscape:export-xdpi="96.012062"
   inkscape:export-ydpi="96.012062"
   xmlns:inkscape="http://www.inkscape.org/namespaces/inkscape"
   xmlns:sodipodi="http://sodipodi.sourceforge.net/DTD/sodipodi-0.dtd"
   xmlns="http://www.w3.org/2000/svg"
   xmlns:svg="http://www.w3.org/2000/svg">
  <sodipodi:namedview
     id="namedview7"
     pagecolor="#505050"
     bordercolor="#ffffff"
     borderopacity="1"
     inkscape:pageshadow="0"
     inkscape:pageopacity="0"
     inkscape:pagecheckerboard="1"
     inkscape:document-units="mm"
     showgrid="false"
     inkscape:zoom="0.77682379"
     inkscape:cx="317.31778"
     inkscape:cy="39.262443"
     inkscape:window-width="1858"
     inkscape:window-height="1057"
     inkscape:window-x="1134"
     inkscape:window-y="209"
     inkscape:window-maximized="1"
     inkscape:current-layer="text495" />
  <defs
     id="defs2" />
  <g
     inkscape:label="レイヤー 1"
     inkscape:groupmode="layer"
     id="layer1"
     transform="translate(-0.88217439,-5.7877493)">
    <g
       aria-label="Lily58-X "
       id="text495"
       style="font-size:16.0867px;line-height:0;font-family:'Matura MT Script Capitals';-inkscape-font-specification:'Matura MT Script Capitals, Normal';stroke-width:0.191592">
      <path
         d="m 38.624161,25.8355 -8.018836,19.699608 h 18.523511 q 3.715396,0 3.715396,2.566027 0,1.817604 -1.309745,2.806589 -1.309742,1.015721 -3.635204,1.015721 H 28.012569 l -0.320754,0.748423 q -1.871061,4.169798 -2.940239,5.853751 -1.069178,1.683959 -2.779863,3.260994 -4.463819,4.089608 -10.26411,4.089608 -4.7043838,0 -7.7515417,-2.806593 -3.07388691,-2.806594 -3.07388691,-7.136766 0,-2.699674 1.30974321,-5.051864 1.3097431,-2.352195 3.5550171,-3.661937 2.9135104,-1.683953 7.9119183,-1.683953 H 23.09435 L 31.086457,25.8355 h -3.207536 -0.721694 q -2.993699,0 -2.993699,-2.646217 0,-1.737414 1.309744,-2.726405 1.309743,-1.015717 3.635205,-1.015717 h 4.570737 l 1.229554,-3.02043 q 3.501561,-8.6603421 10.691781,-8.6603421 3.661935,0 6.094316,2.3254621 2.432379,2.298733 2.432379,5.773562 0,4.437089 -3.528287,7.216952 -3.528288,2.753135 -9.168203,2.753135 z m 2.592757,-6.388339 h 1.229558 q 2.004706,0 3.421366,-0.988991 1.443392,-1.01572 1.443392,-2.45911 0,-2.138356 -2.004708,-2.138356 -1.817605,0 -3.34118,3.742124 z M 20.474864,51.923445 h -7.029847 q -5.2389722,0 -5.2389722,3.715394 0,1.523581 1.1493662,2.539298 1.149366,1.04245 2.886781,1.04245 2.378921,0 4.570736,-1.97798 2.218544,-1.951252 3.661936,-5.319162 z"
         id="path132639"
         style="stroke-width:0.651974" />
      <path
         d="m 57.120945,38.799285 h 3.020428 q 3.36791,0 3.36791,2.37892 0,1.630499 -1.202828,2.539299 -1.176093,0.9088 -3.314449,0.9088 h -4.249985 q -2.35219,0 -3.715394,-0.962261 -1.33647,-0.962261 -1.33647,-2.619483 0,-0.882074 0.561316,-2.245275 l 4.410361,-10.852157 0.294014,-0.748429 q 1.229553,-3.020427 3.955958,-3.020427 1.12264,0 1.924523,0.748428 0.82861,0.748422 0.82861,1.79087 0,0.855343 -0.721693,2.619487 z m 3.528288,-23.147707 q 1.550307,0 2.619483,1.095907 1.09591,1.069178 1.09591,2.619487 0,1.550307 -1.09591,2.646217 -1.069176,1.069176 -2.619483,1.069176 -1.550311,0 -2.646218,-1.069176 -1.069176,-1.09591 -1.069176,-2.646217 0,-1.550309 1.069176,-2.619487 1.095907,-1.095907 2.646218,-1.095907 z"
         id="path132641"
         style="stroke-width:0.651974" />
      <path
         d="m 71.688498,38.799285 h 2.806595 q 3.39464,0 3.39464,2.37892 0,1.630499 -1.202827,2.539299 -1.176093,0.9088 -3.314451,0.9088 h -4.8113 q -1.97798,0 -3.127349,-0.935531 -1.149367,-0.93553 -1.149367,-2.512568 0,-0.828613 0.775155,-2.753132 L 75.858297,11.855996 76.15231,11.1343 q 1.229552,-2.9936987 3.929226,-2.9936987 1.122639,0 1.897795,0.7484249 0.801883,0.7484244 0.801883,1.7908728 0,0.801884 -0.400944,1.817603 l -0.294012,0.721695 z"
         id="path132643"
         style="stroke-width:0.651974" />
      <path
         d="m 94.328343,45.722214 h 3.100618 q 3.394639,0 3.394639,2.378921 0,1.630496 -1.202822,2.539296 -1.176097,0.9088 -3.314455,0.9088 h -4.33017 q -0.775153,2.298734 -2.806594,6.094318 -3.528287,6.682363 -10.264108,6.682363 -4.089608,0 -6.869469,-2.566029 -2.779863,-2.566027 -2.779863,-6.361607 0,-2.646217 1.523579,-4.944951 1.496847,-2.272003 3.955958,-3.42137 2.83332,-1.309741 8.366318,-1.309741 h 4.356902 l 0.775153,-1.924521 q -1.977978,0.828611 -3.635205,0.828611 -2.86005,0 -4.650924,-1.44339 -1.764143,-1.470121 -1.764143,-3.795581 0,-1.416661 1.149363,-4.249985 l 2.91351,-7.19022 0.294014,-0.748429 q 1.283014,-3.020427 3.982688,-3.020427 1.176097,0 1.95125,0.748428 0.801883,0.748422 0.801883,1.897789 0,0.775155 -0.694966,2.512568 l -2.619487,6.388341 q -0.614777,1.550308 -0.641507,2.004707 -0.08018,1.309744 1.657226,1.309744 1.229554,0 2.512568,-0.721694 1.283016,-0.721696 1.630496,-1.630496 l 3.581748,-8.740531 0.267301,-0.748429 q 1.256286,-3.020427 3.982691,-3.020427 1.176095,0 1.951245,0.775154 0.80189,0.748427 0.80189,1.871063 0,0.775155 -0.40095,1.790874 l -0.32075,0.721694 z m -8.740528,5.827017 h -3.742124 q -6.147774,0 -6.147774,3.849045 0,1.363199 0.855343,2.191815 0.828614,0.828613 2.245273,0.828613 1.95125,0 3.448097,-1.523581 1.523581,-1.523577 3.341185,-5.345892 z"
         id="path132645"
         style="stroke-width:0.651974" />
      <path
         d="m 118.41158,17.816663 -2.00471,4.891488 q 1.12264,-0.240553 1.95125,-0.240553 3.52829,0 5.66664,2.459112 2.16509,2.432377 2.16509,6.468524 0,5.827021 -3.74212,9.809713 -3.7154,3.955957 -9.16821,3.955957 -3.98268,0 -6.52198,-2.272004 -2.5393,-2.272003 -2.5393,-5.853751 0,-2.646214 1.1761,-4.356901 1.20282,-1.710683 3.07388,-1.710683 1.28302,0 2.0849,0.748422 0.80188,0.721697 0.80188,1.897794 0,0.534588 -0.16037,1.202823 l -0.24055,1.042452 q -0.10693,0.454399 -0.10693,0.96226 0,0.988989 0.77515,1.710684 0.80188,0.694965 1.92452,0.694965 2.35219,0 4.24998,-2.432379 1.89779,-2.459111 1.89779,-5.479539 0,-1.496851 -0.82861,-2.432379 -0.80188,-0.935531 -2.11162,-0.935531 -0.9088,0 -1.81761,0.50786 l -1.79087,0.962261 q -0.85534,0.454399 -1.8176,0.454399 -1.28302,0 -2.13836,-0.828613 -0.85534,-0.855344 -0.85534,-2.111628 0,-0.668235 0.4544,-1.790874 l 4.33017,-10.665051 q 0.69497,-1.737413 1.52358,-2.218544 0.82861,-0.48113 3.02043,-0.48113 h 8.95436 q 1.84434,0 2.67295,0.588048 0.82861,0.561319 0.82861,1.844333 0,1.710685 -1.22955,2.672944 -1.22956,0.935532 -3.42137,0.935532 z"
         style="letter-spacing:-0.799042px;baseline-shift:baseline;stroke-width:0.651974"
         id="path132647" />
      <path
         d="m 146.4581,26.958137 q 2.59275,2.40565 2.59275,5.827021 0,5.051864 -3.76885,8.713801 -3.74212,3.661935 -8.9009,3.661935 -4.19653,0 -6.81602,-2.378921 -2.61948,-2.405651 -2.61948,-6.201235 0,-3.555018 2.03144,-6.441798 2.03143,-2.88678 5.34588,-4.036147 -1.97797,-2.031437 -1.97797,-4.731111 0,-4.036149 3.44809,-7.003118 3.47484,-2.966969 8.23268,-2.966969 3.79558,0 6.12104,2.111626 2.3522,2.111627 2.3522,5.559728 0,2.779863 -1.60377,4.86476 -1.57704,2.084897 -4.43709,3.020428 z m -3.23427,-9.996816 q -1.73741,0 -3.1808,1.47012 -1.41666,1.470119 -1.41666,3.234264 0,1.229554 0.82861,2.031437 0.85534,0.801883 2.16509,0.801883 1.73741,0 3.12734,-1.41666 1.41666,-1.44339 1.41666,-3.260992 0,-2.860052 -2.94024,-2.860052 z m -4.03614,12.429197 q -2.19182,0 -3.92923,1.897789 -1.73742,1.897791 -1.73742,4.276714 0,1.496848 0.93554,2.485837 0.93552,0.988991 2.35219,0.988991 2.16508,0 3.95595,-2.00471 1.79088,-2.004708 1.79088,-4.410357 0,-1.416662 -0.96226,-2.325464 -0.93553,-0.9088 -2.40565,-0.9088 z"
         style="letter-spacing:0.0873125px;stroke-width:0.651974"
         id="path132649" />
      <path
         d="m 153.8118,28.69489 h 4.38362 0.50786 q 2.5393,0 2.5393,2.272004 0,2.298733 -2.5393,2.298733 h -0.50786 -4.38362 -0.50786 q -1.12264,0 -1.84434,-0.614776 -0.69497,-0.641508 -0.69497,-1.683957 0,-1.015721 0.69497,-1.630496 0.69497,-0.641508 1.84434,-0.641508 z"
         style="letter-spacing:-2.51619px;stroke-width:0.651974"
         id="path132651" />
      <path
         d="m 184.06054,24.685472 3.36791,16.893014 q 0.21384,1.01572 0.80188,1.363204 0.58805,0.347483 2.0849,0.347483 h 10.15719 q 3.71539,0 3.71539,2.512566 0,1.844335 -1.30974,2.860052 -1.28301,1.01572 -3.63519,1.01572 h -10.13047 -1.44339 q -3.23427,0 -4.65093,-1.229554 -1.41666,-1.202825 -2.05817,-4.490546 l -2.37892,-12.482657 -7.83173,9.515686 -0.58805,0.721692 q -1.76414,2.111627 -3.79558,2.111627 -1.33647,0 -2.21854,-0.882069 -0.88208,-0.855344 -0.88208,-2.191817 0,-1.416662 1.87107,-3.742122 l 11.60058,-14.246799 -1.04245,-5.639915 q -0.82861,-4.517277 -3.95596,-4.517277 -2.48584,0 -4.57074,2.298732 -2.05816,2.272004 -2.05816,4.998408 0,2.993698 2.96696,3.52829 3.20754,0.561316 3.20754,2.966969 0,1.657224 -1.3632,2.779861 -1.33648,1.095906 -3.36791,1.095906 -3.66194,0 -6.14778,-2.753129 -2.48584,-2.779865 -2.48584,-6.842742 0,-5.933938 4.43709,-10.397757 4.46382,-4.4905487 10.3443,-4.4905487 3.50156,0 5.93394,2.0848975 2.45911,2.0848974 3.23426,5.7468322 l 0.56132,2.672945 5.93394,-7.4575171 q 0.69497,-0.8553425 1.01572,-1.2830135 0.74843,-1.0424486 1.41666,-1.3364727 0.69497,-0.3207534 2.16509,-0.3207534 h 5.63991 q 3.68866,0 3.68866,2.5392979 0,1.8443328 -1.28301,2.8600518 -1.28301,0.988989 -3.63519,0.988989 h -3.55503 z"
         style="letter-spacing:-2.51619px;stroke-width:0.651974"
         id="path132653" />
    </g>
  </g>
</svg>
