G04 #@! TF.GenerationSoftware,KiCad,Pcbnew,(5.1.10)-1*
G04 #@! TF.CreationDate,2021-11-18T00:25:13+09:00*
G04 #@! TF.ProjectId,Lily58,4c696c79-3538-42e6-9b69-6361645f7063,rev?*
G04 #@! TF.SameCoordinates,PX4f27ac0PY2349340*
G04 #@! TF.FileFunction,Soldermask,Top*
G04 #@! TF.FilePolarity,Negative*
%FSLAX46Y46*%
G04 Gerber Fmt 4.6, Leading zero omitted, Abs format (unit mm)*
G04 Created by KiCad (PCBNEW (5.1.10)-1) date 2021-11-18 00:25:13*
%MOMM*%
%LPD*%
G01*
G04 APERTURE LIST*
%ADD10C,0.150000*%
%ADD11C,1.924000*%
%ADD12C,1.400000*%
%ADD13O,1.900000X2.900000*%
%ADD14C,2.300000*%
%ADD15C,4.400000*%
%ADD16C,2.100000*%
%ADD17C,3.100000*%
%ADD18C,1.797000*%
%ADD19C,2.398980*%
%ADD20C,1.600000*%
%ADD21C,5.300000*%
%ADD22C,2.900000*%
%ADD23C,2.600000*%
G04 APERTURE END LIST*
D10*
X115137053Y-81485714D02*
X114488244Y-82485714D01*
X114613244Y-81485714D02*
X114702529Y-81533333D01*
X114738244Y-81628571D01*
X114887053Y-82342857D01*
X114922767Y-82438095D01*
X115012053Y-82485714D01*
D11*
X10478815Y-10405745D03*
X25718815Y-28185745D03*
X10478815Y-20565745D03*
X25718815Y-18025745D03*
X25718815Y-12945745D03*
X10478815Y-30725745D03*
X25718815Y-10405745D03*
X25718815Y-5325745D03*
X10478815Y-25645745D03*
X25718815Y-33265745D03*
X10478815Y-18025745D03*
X10478815Y-7865745D03*
X10478815Y-12945745D03*
X10478815Y-15485745D03*
X10478815Y-28185745D03*
X10478815Y-23105745D03*
X25718815Y-25645745D03*
X25718815Y-23105745D03*
X10478815Y-33265745D03*
X25718815Y-30725745D03*
X25718815Y-7865745D03*
X10478815Y-5325745D03*
X25718815Y-20565745D03*
X25718815Y-15485745D03*
X9180000Y-4130000D03*
X9180000Y-6670000D03*
X9180000Y-9210000D03*
X9180000Y-11750000D03*
X9180000Y-14290000D03*
X9180000Y-16830000D03*
X9180000Y-19370000D03*
X9180000Y-21910000D03*
X9180000Y-24450000D03*
X9180000Y-26990000D03*
X9180000Y-29530000D03*
X9180000Y-32070000D03*
X24420000Y-32070000D03*
X24420000Y-29530000D03*
X24420000Y-26990000D03*
X24420000Y-24450000D03*
X24420000Y-21910000D03*
X24420000Y-19370000D03*
X24420000Y-16830000D03*
X24420000Y-14290000D03*
X24420000Y-11750000D03*
X24420000Y-9210000D03*
X24420000Y-6670000D03*
X24420000Y-4130000D03*
D12*
X71220000Y-90950000D03*
D13*
X66000000Y-80850000D03*
G36*
G01*
X70180762Y-81930762D02*
X70180762Y-81930762D01*
G75*
G02*
X71312132Y-81930762I565685J-565685D01*
G01*
X72019238Y-82637868D01*
G75*
G02*
X72019238Y-83769238I-565685J-565685D01*
G01*
X72019238Y-83769238D01*
G75*
G02*
X70887868Y-83769238I-565685J565685D01*
G01*
X70180762Y-83062132D01*
G75*
G02*
X70180762Y-81930762I565685J565685D01*
G01*
G37*
G36*
G01*
X59980762Y-83769238D02*
X59980762Y-83769238D01*
G75*
G02*
X59980762Y-82637868I565685J565685D01*
G01*
X60687868Y-81930762D01*
G75*
G02*
X61819238Y-81930762I565685J-565685D01*
G01*
X61819238Y-81930762D01*
G75*
G02*
X61819238Y-83062132I-565685J-565685D01*
G01*
X61112132Y-83769238D01*
G75*
G02*
X59980762Y-83769238I-565685J565685D01*
G01*
G37*
D14*
X71500000Y-86750000D03*
X60500000Y-86750000D03*
G36*
G01*
X61058630Y-85341370D02*
X61058630Y-85341370D01*
G75*
G02*
X61058630Y-83997868I671751J671751D01*
G01*
X61977868Y-83078630D01*
G75*
G02*
X63321370Y-83078630I671751J-671751D01*
G01*
X63321370Y-83078630D01*
G75*
G02*
X63321370Y-84422132I-671751J-671751D01*
G01*
X62402132Y-85341370D01*
G75*
G02*
X61058630Y-85341370I-671751J671751D01*
G01*
G37*
D15*
X66000000Y-86750000D03*
D16*
X60920000Y-86750000D03*
X71080000Y-86750000D03*
G36*
G01*
X68678630Y-83078630D02*
X68678630Y-83078630D01*
G75*
G02*
X70022132Y-83078630I671751J-671751D01*
G01*
X70941370Y-83997868D01*
G75*
G02*
X70941370Y-85341370I-671751J-671751D01*
G01*
X70941370Y-85341370D01*
G75*
G02*
X69597868Y-85341370I-671751J671751D01*
G01*
X68678630Y-84422132D01*
G75*
G02*
X68678630Y-83078630I671751J671751D01*
G01*
G37*
D17*
X63460000Y-81670000D03*
X68540000Y-81670000D03*
D12*
X60780000Y-90950000D03*
X118920000Y-38500000D03*
D13*
X113700000Y-28400000D03*
G36*
G01*
X117880762Y-29480762D02*
X117880762Y-29480762D01*
G75*
G02*
X119012132Y-29480762I565685J-565685D01*
G01*
X119719238Y-30187868D01*
G75*
G02*
X119719238Y-31319238I-565685J-565685D01*
G01*
X119719238Y-31319238D01*
G75*
G02*
X118587868Y-31319238I-565685J565685D01*
G01*
X117880762Y-30612132D01*
G75*
G02*
X117880762Y-29480762I565685J565685D01*
G01*
G37*
G36*
G01*
X107680762Y-31319238D02*
X107680762Y-31319238D01*
G75*
G02*
X107680762Y-30187868I565685J565685D01*
G01*
X108387868Y-29480762D01*
G75*
G02*
X109519238Y-29480762I565685J-565685D01*
G01*
X109519238Y-29480762D01*
G75*
G02*
X109519238Y-30612132I-565685J-565685D01*
G01*
X108812132Y-31319238D01*
G75*
G02*
X107680762Y-31319238I-565685J565685D01*
G01*
G37*
D14*
X119200000Y-34300000D03*
X108200000Y-34300000D03*
G36*
G01*
X108758630Y-32891370D02*
X108758630Y-32891370D01*
G75*
G02*
X108758630Y-31547868I671751J671751D01*
G01*
X109677868Y-30628630D01*
G75*
G02*
X111021370Y-30628630I671751J-671751D01*
G01*
X111021370Y-30628630D01*
G75*
G02*
X111021370Y-31972132I-671751J-671751D01*
G01*
X110102132Y-32891370D01*
G75*
G02*
X108758630Y-32891370I-671751J671751D01*
G01*
G37*
D15*
X113700000Y-34300000D03*
D16*
X108620000Y-34300000D03*
X118780000Y-34300000D03*
G36*
G01*
X116378630Y-30628630D02*
X116378630Y-30628630D01*
G75*
G02*
X117722132Y-30628630I671751J-671751D01*
G01*
X118641370Y-31547868D01*
G75*
G02*
X118641370Y-32891370I-671751J-671751D01*
G01*
X118641370Y-32891370D01*
G75*
G02*
X117297868Y-32891370I-671751J671751D01*
G01*
X116378630Y-31972132D01*
G75*
G02*
X116378630Y-30628630I671751J671751D01*
G01*
G37*
D17*
X111160000Y-29220000D03*
X116240000Y-29220000D03*
D12*
X108480000Y-38500000D03*
G36*
G01*
X13058500Y-42492500D02*
X14201500Y-42492500D01*
G75*
G02*
X14401500Y-42692500I0J-200000D01*
G01*
X14401500Y-43327500D01*
G75*
G02*
X14201500Y-43527500I-200000J0D01*
G01*
X13058500Y-43527500D01*
G75*
G02*
X12858500Y-43327500I0J200000D01*
G01*
X12858500Y-42692500D01*
G75*
G02*
X13058500Y-42492500I200000J0D01*
G01*
G37*
G36*
G01*
X13058500Y-43493260D02*
X14201500Y-43493260D01*
G75*
G02*
X14401500Y-43693260I0J-200000D01*
G01*
X14401500Y-44328260D01*
G75*
G02*
X14201500Y-44528260I-200000J0D01*
G01*
X13058500Y-44528260D01*
G75*
G02*
X12858500Y-44328260I0J200000D01*
G01*
X12858500Y-43693260D01*
G75*
G02*
X13058500Y-43493260I200000J0D01*
G01*
G37*
G36*
G01*
X15598500Y-43493260D02*
X16741500Y-43493260D01*
G75*
G02*
X16941500Y-43693260I0J-200000D01*
G01*
X16941500Y-44328260D01*
G75*
G02*
X16741500Y-44528260I-200000J0D01*
G01*
X15598500Y-44528260D01*
G75*
G02*
X15398500Y-44328260I0J200000D01*
G01*
X15398500Y-43693260D01*
G75*
G02*
X15598500Y-43493260I200000J0D01*
G01*
G37*
G36*
G01*
X15598500Y-42492500D02*
X16741500Y-42492500D01*
G75*
G02*
X16941500Y-42692500I0J-200000D01*
G01*
X16941500Y-43327500D01*
G75*
G02*
X16741500Y-43527500I-200000J0D01*
G01*
X15598500Y-43527500D01*
G75*
G02*
X15398500Y-43327500I0J200000D01*
G01*
X15398500Y-42692500D01*
G75*
G02*
X15598500Y-42492500I200000J0D01*
G01*
G37*
G36*
G01*
X18138500Y-43493260D02*
X19281500Y-43493260D01*
G75*
G02*
X19481500Y-43693260I0J-200000D01*
G01*
X19481500Y-44328260D01*
G75*
G02*
X19281500Y-44528260I-200000J0D01*
G01*
X18138500Y-44528260D01*
G75*
G02*
X17938500Y-44328260I0J200000D01*
G01*
X17938500Y-43693260D01*
G75*
G02*
X18138500Y-43493260I200000J0D01*
G01*
G37*
G36*
G01*
X18138500Y-42492500D02*
X19281500Y-42492500D01*
G75*
G02*
X19481500Y-42692500I0J-200000D01*
G01*
X19481500Y-43327500D01*
G75*
G02*
X19281500Y-43527500I-200000J0D01*
G01*
X18138500Y-43527500D01*
G75*
G02*
X17938500Y-43327500I0J200000D01*
G01*
X17938500Y-42692500D01*
G75*
G02*
X18138500Y-42492500I200000J0D01*
G01*
G37*
G36*
G01*
X20678500Y-43493260D02*
X21821500Y-43493260D01*
G75*
G02*
X22021500Y-43693260I0J-200000D01*
G01*
X22021500Y-44328260D01*
G75*
G02*
X21821500Y-44528260I-200000J0D01*
G01*
X20678500Y-44528260D01*
G75*
G02*
X20478500Y-44328260I0J200000D01*
G01*
X20478500Y-43693260D01*
G75*
G02*
X20678500Y-43493260I200000J0D01*
G01*
G37*
G36*
G01*
X20678500Y-42492500D02*
X21821500Y-42492500D01*
G75*
G02*
X22021500Y-42692500I0J-200000D01*
G01*
X22021500Y-43327500D01*
G75*
G02*
X21821500Y-43527500I-200000J0D01*
G01*
X20678500Y-43527500D01*
G75*
G02*
X20478500Y-43327500I0J200000D01*
G01*
X20478500Y-42692500D01*
G75*
G02*
X20678500Y-42492500I200000J0D01*
G01*
G37*
D18*
X21250000Y-40140000D03*
X18710000Y-40140000D03*
X16170000Y-40140000D03*
X13630000Y-40140000D03*
X21250000Y-37600000D03*
X18710000Y-37600000D03*
X16170000Y-37600000D03*
X13630000Y-37600000D03*
D12*
X42720000Y-55300000D03*
D13*
X37500000Y-45200000D03*
G36*
G01*
X41680762Y-46280762D02*
X41680762Y-46280762D01*
G75*
G02*
X42812132Y-46280762I565685J-565685D01*
G01*
X43519238Y-46987868D01*
G75*
G02*
X43519238Y-48119238I-565685J-565685D01*
G01*
X43519238Y-48119238D01*
G75*
G02*
X42387868Y-48119238I-565685J565685D01*
G01*
X41680762Y-47412132D01*
G75*
G02*
X41680762Y-46280762I565685J565685D01*
G01*
G37*
G36*
G01*
X31480762Y-48119238D02*
X31480762Y-48119238D01*
G75*
G02*
X31480762Y-46987868I565685J565685D01*
G01*
X32187868Y-46280762D01*
G75*
G02*
X33319238Y-46280762I565685J-565685D01*
G01*
X33319238Y-46280762D01*
G75*
G02*
X33319238Y-47412132I-565685J-565685D01*
G01*
X32612132Y-48119238D01*
G75*
G02*
X31480762Y-48119238I-565685J565685D01*
G01*
G37*
D14*
X43000000Y-51100000D03*
X32000000Y-51100000D03*
G36*
G01*
X32558630Y-49691370D02*
X32558630Y-49691370D01*
G75*
G02*
X32558630Y-48347868I671751J671751D01*
G01*
X33477868Y-47428630D01*
G75*
G02*
X34821370Y-47428630I671751J-671751D01*
G01*
X34821370Y-47428630D01*
G75*
G02*
X34821370Y-48772132I-671751J-671751D01*
G01*
X33902132Y-49691370D01*
G75*
G02*
X32558630Y-49691370I-671751J671751D01*
G01*
G37*
D15*
X37500000Y-51100000D03*
D16*
X32420000Y-51100000D03*
X42580000Y-51100000D03*
G36*
G01*
X40178630Y-47428630D02*
X40178630Y-47428630D01*
G75*
G02*
X41522132Y-47428630I671751J-671751D01*
G01*
X42441370Y-48347868D01*
G75*
G02*
X42441370Y-49691370I-671751J-671751D01*
G01*
X42441370Y-49691370D01*
G75*
G02*
X41097868Y-49691370I-671751J671751D01*
G01*
X40178630Y-48772132D01*
G75*
G02*
X40178630Y-47428630I671751J671751D01*
G01*
G37*
D17*
X34960000Y-46020000D03*
X40040000Y-46020000D03*
D12*
X32280000Y-55300000D03*
X61720000Y-33900000D03*
D13*
X56500000Y-23800000D03*
G36*
G01*
X60680762Y-24880762D02*
X60680762Y-24880762D01*
G75*
G02*
X61812132Y-24880762I565685J-565685D01*
G01*
X62519238Y-25587868D01*
G75*
G02*
X62519238Y-26719238I-565685J-565685D01*
G01*
X62519238Y-26719238D01*
G75*
G02*
X61387868Y-26719238I-565685J565685D01*
G01*
X60680762Y-26012132D01*
G75*
G02*
X60680762Y-24880762I565685J565685D01*
G01*
G37*
G36*
G01*
X50480762Y-26719238D02*
X50480762Y-26719238D01*
G75*
G02*
X50480762Y-25587868I565685J565685D01*
G01*
X51187868Y-24880762D01*
G75*
G02*
X52319238Y-24880762I565685J-565685D01*
G01*
X52319238Y-24880762D01*
G75*
G02*
X52319238Y-26012132I-565685J-565685D01*
G01*
X51612132Y-26719238D01*
G75*
G02*
X50480762Y-26719238I-565685J565685D01*
G01*
G37*
D14*
X62000000Y-29700000D03*
X51000000Y-29700000D03*
G36*
G01*
X51558630Y-28291370D02*
X51558630Y-28291370D01*
G75*
G02*
X51558630Y-26947868I671751J671751D01*
G01*
X52477868Y-26028630D01*
G75*
G02*
X53821370Y-26028630I671751J-671751D01*
G01*
X53821370Y-26028630D01*
G75*
G02*
X53821370Y-27372132I-671751J-671751D01*
G01*
X52902132Y-28291370D01*
G75*
G02*
X51558630Y-28291370I-671751J671751D01*
G01*
G37*
D15*
X56500000Y-29700000D03*
D16*
X51420000Y-29700000D03*
X61580000Y-29700000D03*
G36*
G01*
X59178630Y-26028630D02*
X59178630Y-26028630D01*
G75*
G02*
X60522132Y-26028630I671751J-671751D01*
G01*
X61441370Y-26947868D01*
G75*
G02*
X61441370Y-28291370I-671751J-671751D01*
G01*
X61441370Y-28291370D01*
G75*
G02*
X60097868Y-28291370I-671751J671751D01*
G01*
X59178630Y-27372132D01*
G75*
G02*
X59178630Y-26028630I671751J671751D01*
G01*
G37*
D17*
X53960000Y-24620000D03*
X59040000Y-24620000D03*
D12*
X51280000Y-33900000D03*
X108480000Y-76700000D03*
D17*
X116240000Y-67420000D03*
X111160000Y-67420000D03*
G36*
G01*
X116378630Y-68828630D02*
X116378630Y-68828630D01*
G75*
G02*
X117722132Y-68828630I671751J-671751D01*
G01*
X118641370Y-69747868D01*
G75*
G02*
X118641370Y-71091370I-671751J-671751D01*
G01*
X118641370Y-71091370D01*
G75*
G02*
X117297868Y-71091370I-671751J671751D01*
G01*
X116378630Y-70172132D01*
G75*
G02*
X116378630Y-68828630I671751J671751D01*
G01*
G37*
D16*
X118780000Y-72500000D03*
X108620000Y-72500000D03*
D15*
X113700000Y-72500000D03*
G36*
G01*
X108758630Y-71091370D02*
X108758630Y-71091370D01*
G75*
G02*
X108758630Y-69747868I671751J671751D01*
G01*
X109677868Y-68828630D01*
G75*
G02*
X111021370Y-68828630I671751J-671751D01*
G01*
X111021370Y-68828630D01*
G75*
G02*
X111021370Y-70172132I-671751J-671751D01*
G01*
X110102132Y-71091370D01*
G75*
G02*
X108758630Y-71091370I-671751J671751D01*
G01*
G37*
D14*
X108200000Y-72500000D03*
X119200000Y-72500000D03*
G36*
G01*
X107680762Y-69519238D02*
X107680762Y-69519238D01*
G75*
G02*
X107680762Y-68387868I565685J565685D01*
G01*
X108387868Y-67680762D01*
G75*
G02*
X109519238Y-67680762I565685J-565685D01*
G01*
X109519238Y-67680762D01*
G75*
G02*
X109519238Y-68812132I-565685J-565685D01*
G01*
X108812132Y-69519238D01*
G75*
G02*
X107680762Y-69519238I-565685J565685D01*
G01*
G37*
G36*
G01*
X117880762Y-67680762D02*
X117880762Y-67680762D01*
G75*
G02*
X119012132Y-67680762I565685J-565685D01*
G01*
X119719238Y-68387868D01*
G75*
G02*
X119719238Y-69519238I-565685J-565685D01*
G01*
X119719238Y-69519238D01*
G75*
G02*
X118587868Y-69519238I-565685J565685D01*
G01*
X117880762Y-68812132D01*
G75*
G02*
X117880762Y-67680762I565685J565685D01*
G01*
G37*
D13*
X113700000Y-66600000D03*
D12*
X118920000Y-76700000D03*
X89380000Y-33850000D03*
D17*
X97140000Y-24570000D03*
X92060000Y-24570000D03*
G36*
G01*
X97278630Y-25978630D02*
X97278630Y-25978630D01*
G75*
G02*
X98622132Y-25978630I671751J-671751D01*
G01*
X99541370Y-26897868D01*
G75*
G02*
X99541370Y-28241370I-671751J-671751D01*
G01*
X99541370Y-28241370D01*
G75*
G02*
X98197868Y-28241370I-671751J671751D01*
G01*
X97278630Y-27322132D01*
G75*
G02*
X97278630Y-25978630I671751J671751D01*
G01*
G37*
D16*
X99680000Y-29650000D03*
X89520000Y-29650000D03*
D15*
X94600000Y-29650000D03*
G36*
G01*
X89658630Y-28241370D02*
X89658630Y-28241370D01*
G75*
G02*
X89658630Y-26897868I671751J671751D01*
G01*
X90577868Y-25978630D01*
G75*
G02*
X91921370Y-25978630I671751J-671751D01*
G01*
X91921370Y-25978630D01*
G75*
G02*
X91921370Y-27322132I-671751J-671751D01*
G01*
X91002132Y-28241370D01*
G75*
G02*
X89658630Y-28241370I-671751J671751D01*
G01*
G37*
D14*
X89100000Y-29650000D03*
X100100000Y-29650000D03*
G36*
G01*
X88580762Y-26669238D02*
X88580762Y-26669238D01*
G75*
G02*
X88580762Y-25537868I565685J565685D01*
G01*
X89287868Y-24830762D01*
G75*
G02*
X90419238Y-24830762I565685J-565685D01*
G01*
X90419238Y-24830762D01*
G75*
G02*
X90419238Y-25962132I-565685J-565685D01*
G01*
X89712132Y-26669238D01*
G75*
G02*
X88580762Y-26669238I-565685J565685D01*
G01*
G37*
G36*
G01*
X98780762Y-24830762D02*
X98780762Y-24830762D01*
G75*
G02*
X99912132Y-24830762I565685J-565685D01*
G01*
X100619238Y-25537868D01*
G75*
G02*
X100619238Y-26669238I-565685J-565685D01*
G01*
X100619238Y-26669238D01*
G75*
G02*
X99487868Y-26669238I-565685J565685D01*
G01*
X98780762Y-25962132D01*
G75*
G02*
X98780762Y-24830762I565685J565685D01*
G01*
G37*
D13*
X94600000Y-23750000D03*
D12*
X99820000Y-33850000D03*
G36*
G01*
X59900000Y-16475000D02*
X59900000Y-17475000D01*
G75*
G02*
X59700000Y-17675000I-200000J0D01*
G01*
X58100000Y-17675000D01*
G75*
G02*
X57900000Y-17475000I0J200000D01*
G01*
X57900000Y-16475000D01*
G75*
G02*
X58100000Y-16275000I200000J0D01*
G01*
X59700000Y-16275000D01*
G75*
G02*
X59900000Y-16475000I0J-200000D01*
G01*
G37*
G36*
G01*
X59900000Y-14725000D02*
X59900000Y-15725000D01*
G75*
G02*
X59700000Y-15925000I-200000J0D01*
G01*
X58100000Y-15925000D01*
G75*
G02*
X57900000Y-15725000I0J200000D01*
G01*
X57900000Y-14725000D01*
G75*
G02*
X58100000Y-14525000I200000J0D01*
G01*
X59700000Y-14525000D01*
G75*
G02*
X59900000Y-14725000I0J-200000D01*
G01*
G37*
G36*
G01*
X55100000Y-16475000D02*
X55100000Y-17475000D01*
G75*
G02*
X54900000Y-17675000I-200000J0D01*
G01*
X53300000Y-17675000D01*
G75*
G02*
X53100000Y-17475000I0J200000D01*
G01*
X53100000Y-16475000D01*
G75*
G02*
X53300000Y-16275000I200000J0D01*
G01*
X54900000Y-16275000D01*
G75*
G02*
X55100000Y-16475000I0J-200000D01*
G01*
G37*
G36*
G01*
X55100000Y-14725000D02*
X55100000Y-15725000D01*
G75*
G02*
X54900000Y-15925000I-200000J0D01*
G01*
X53300000Y-15925000D01*
G75*
G02*
X53100000Y-15725000I0J200000D01*
G01*
X53100000Y-14725000D01*
G75*
G02*
X53300000Y-14525000I200000J0D01*
G01*
X54900000Y-14525000D01*
G75*
G02*
X55100000Y-14725000I0J-200000D01*
G01*
G37*
G36*
G01*
X40900000Y-18875000D02*
X40900000Y-19875000D01*
G75*
G02*
X40700000Y-20075000I-200000J0D01*
G01*
X39100000Y-20075000D01*
G75*
G02*
X38900000Y-19875000I0J200000D01*
G01*
X38900000Y-18875000D01*
G75*
G02*
X39100000Y-18675000I200000J0D01*
G01*
X40700000Y-18675000D01*
G75*
G02*
X40900000Y-18875000I0J-200000D01*
G01*
G37*
G36*
G01*
X40900000Y-17125000D02*
X40900000Y-18125000D01*
G75*
G02*
X40700000Y-18325000I-200000J0D01*
G01*
X39100000Y-18325000D01*
G75*
G02*
X38900000Y-18125000I0J200000D01*
G01*
X38900000Y-17125000D01*
G75*
G02*
X39100000Y-16925000I200000J0D01*
G01*
X40700000Y-16925000D01*
G75*
G02*
X40900000Y-17125000I0J-200000D01*
G01*
G37*
G36*
G01*
X36100000Y-18875000D02*
X36100000Y-19875000D01*
G75*
G02*
X35900000Y-20075000I-200000J0D01*
G01*
X34300000Y-20075000D01*
G75*
G02*
X34100000Y-19875000I0J200000D01*
G01*
X34100000Y-18875000D01*
G75*
G02*
X34300000Y-18675000I200000J0D01*
G01*
X35900000Y-18675000D01*
G75*
G02*
X36100000Y-18875000I0J-200000D01*
G01*
G37*
G36*
G01*
X36100000Y-17125000D02*
X36100000Y-18125000D01*
G75*
G02*
X35900000Y-18325000I-200000J0D01*
G01*
X34300000Y-18325000D01*
G75*
G02*
X34100000Y-18125000I0J200000D01*
G01*
X34100000Y-17125000D01*
G75*
G02*
X34300000Y-16925000I200000J0D01*
G01*
X35900000Y-16925000D01*
G75*
G02*
X36100000Y-17125000I0J-200000D01*
G01*
G37*
G36*
G01*
X18612100Y-95881986D02*
X17746074Y-96381986D01*
G75*
G02*
X17472869Y-96308781I-100000J173205D01*
G01*
X16672869Y-94923141D01*
G75*
G02*
X16746074Y-94649936I173205J100000D01*
G01*
X17612100Y-94149936D01*
G75*
G02*
X17885305Y-94223141I100000J-173205D01*
G01*
X18685305Y-95608781D01*
G75*
G02*
X18612100Y-95881986I-173205J-100000D01*
G01*
G37*
G36*
G01*
X20127644Y-95006986D02*
X19261618Y-95506986D01*
G75*
G02*
X18988413Y-95433781I-100000J173205D01*
G01*
X18188413Y-94048141D01*
G75*
G02*
X18261618Y-93774936I173205J100000D01*
G01*
X19127644Y-93274936D01*
G75*
G02*
X19400849Y-93348141I100000J-173205D01*
G01*
X20200849Y-94733781D01*
G75*
G02*
X20127644Y-95006986I-173205J-100000D01*
G01*
G37*
G36*
G01*
X16212100Y-91725064D02*
X15346074Y-92225064D01*
G75*
G02*
X15072869Y-92151859I-100000J173205D01*
G01*
X14272869Y-90766219D01*
G75*
G02*
X14346074Y-90493014I173205J100000D01*
G01*
X15212100Y-89993014D01*
G75*
G02*
X15485305Y-90066219I100000J-173205D01*
G01*
X16285305Y-91451859D01*
G75*
G02*
X16212100Y-91725064I-173205J-100000D01*
G01*
G37*
G36*
G01*
X17727644Y-90850064D02*
X16861618Y-91350064D01*
G75*
G02*
X16588413Y-91276859I-100000J173205D01*
G01*
X15788413Y-89891219D01*
G75*
G02*
X15861618Y-89618014I173205J100000D01*
G01*
X16727644Y-89118014D01*
G75*
G02*
X17000849Y-89191219I100000J-173205D01*
G01*
X17800849Y-90576859D01*
G75*
G02*
X17727644Y-90850064I-173205J-100000D01*
G01*
G37*
G36*
G01*
X88500000Y-92625000D02*
X88500000Y-93625000D01*
G75*
G02*
X88300000Y-93825000I-200000J0D01*
G01*
X86700000Y-93825000D01*
G75*
G02*
X86500000Y-93625000I0J200000D01*
G01*
X86500000Y-92625000D01*
G75*
G02*
X86700000Y-92425000I200000J0D01*
G01*
X88300000Y-92425000D01*
G75*
G02*
X88500000Y-92625000I0J-200000D01*
G01*
G37*
G36*
G01*
X88500000Y-90875000D02*
X88500000Y-91875000D01*
G75*
G02*
X88300000Y-92075000I-200000J0D01*
G01*
X86700000Y-92075000D01*
G75*
G02*
X86500000Y-91875000I0J200000D01*
G01*
X86500000Y-90875000D01*
G75*
G02*
X86700000Y-90675000I200000J0D01*
G01*
X88300000Y-90675000D01*
G75*
G02*
X88500000Y-90875000I0J-200000D01*
G01*
G37*
G36*
G01*
X83700000Y-92625000D02*
X83700000Y-93625000D01*
G75*
G02*
X83500000Y-93825000I-200000J0D01*
G01*
X81900000Y-93825000D01*
G75*
G02*
X81700000Y-93625000I0J200000D01*
G01*
X81700000Y-92625000D01*
G75*
G02*
X81900000Y-92425000I200000J0D01*
G01*
X83500000Y-92425000D01*
G75*
G02*
X83700000Y-92625000I0J-200000D01*
G01*
G37*
G36*
G01*
X83700000Y-90875000D02*
X83700000Y-91875000D01*
G75*
G02*
X83500000Y-92075000I-200000J0D01*
G01*
X81900000Y-92075000D01*
G75*
G02*
X81700000Y-91875000I0J200000D01*
G01*
X81700000Y-90875000D01*
G75*
G02*
X81900000Y-90675000I200000J0D01*
G01*
X83500000Y-90675000D01*
G75*
G02*
X83700000Y-90875000I0J-200000D01*
G01*
G37*
G36*
G01*
X79000000Y-15085000D02*
X79000000Y-16085000D01*
G75*
G02*
X78800000Y-16285000I-200000J0D01*
G01*
X77200000Y-16285000D01*
G75*
G02*
X77000000Y-16085000I0J200000D01*
G01*
X77000000Y-15085000D01*
G75*
G02*
X77200000Y-14885000I200000J0D01*
G01*
X78800000Y-14885000D01*
G75*
G02*
X79000000Y-15085000I0J-200000D01*
G01*
G37*
G36*
G01*
X79000000Y-13335000D02*
X79000000Y-14335000D01*
G75*
G02*
X78800000Y-14535000I-200000J0D01*
G01*
X77200000Y-14535000D01*
G75*
G02*
X77000000Y-14335000I0J200000D01*
G01*
X77000000Y-13335000D01*
G75*
G02*
X77200000Y-13135000I200000J0D01*
G01*
X78800000Y-13135000D01*
G75*
G02*
X79000000Y-13335000I0J-200000D01*
G01*
G37*
G36*
G01*
X74200000Y-15085000D02*
X74200000Y-16085000D01*
G75*
G02*
X74000000Y-16285000I-200000J0D01*
G01*
X72400000Y-16285000D01*
G75*
G02*
X72200000Y-16085000I0J200000D01*
G01*
X72200000Y-15085000D01*
G75*
G02*
X72400000Y-14885000I200000J0D01*
G01*
X74000000Y-14885000D01*
G75*
G02*
X74200000Y-15085000I0J-200000D01*
G01*
G37*
G36*
G01*
X74200000Y-13335000D02*
X74200000Y-14335000D01*
G75*
G02*
X74000000Y-14535000I-200000J0D01*
G01*
X72400000Y-14535000D01*
G75*
G02*
X72200000Y-14335000I0J200000D01*
G01*
X72200000Y-13335000D01*
G75*
G02*
X72400000Y-13135000I200000J0D01*
G01*
X74000000Y-13135000D01*
G75*
G02*
X74200000Y-13335000I0J-200000D01*
G01*
G37*
G36*
G01*
X98000000Y-16475000D02*
X98000000Y-17475000D01*
G75*
G02*
X97800000Y-17675000I-200000J0D01*
G01*
X96200000Y-17675000D01*
G75*
G02*
X96000000Y-17475000I0J200000D01*
G01*
X96000000Y-16475000D01*
G75*
G02*
X96200000Y-16275000I200000J0D01*
G01*
X97800000Y-16275000D01*
G75*
G02*
X98000000Y-16475000I0J-200000D01*
G01*
G37*
G36*
G01*
X98000000Y-14725000D02*
X98000000Y-15725000D01*
G75*
G02*
X97800000Y-15925000I-200000J0D01*
G01*
X96200000Y-15925000D01*
G75*
G02*
X96000000Y-15725000I0J200000D01*
G01*
X96000000Y-14725000D01*
G75*
G02*
X96200000Y-14525000I200000J0D01*
G01*
X97800000Y-14525000D01*
G75*
G02*
X98000000Y-14725000I0J-200000D01*
G01*
G37*
G36*
G01*
X93200000Y-16475000D02*
X93200000Y-17475000D01*
G75*
G02*
X93000000Y-17675000I-200000J0D01*
G01*
X91400000Y-17675000D01*
G75*
G02*
X91200000Y-17475000I0J200000D01*
G01*
X91200000Y-16475000D01*
G75*
G02*
X91400000Y-16275000I200000J0D01*
G01*
X93000000Y-16275000D01*
G75*
G02*
X93200000Y-16475000I0J-200000D01*
G01*
G37*
G36*
G01*
X93200000Y-14725000D02*
X93200000Y-15725000D01*
G75*
G02*
X93000000Y-15925000I-200000J0D01*
G01*
X91400000Y-15925000D01*
G75*
G02*
X91200000Y-15725000I0J200000D01*
G01*
X91200000Y-14725000D01*
G75*
G02*
X91400000Y-14525000I200000J0D01*
G01*
X93000000Y-14525000D01*
G75*
G02*
X93200000Y-14725000I0J-200000D01*
G01*
G37*
G36*
G01*
X117100000Y-21275000D02*
X117100000Y-22275000D01*
G75*
G02*
X116900000Y-22475000I-200000J0D01*
G01*
X115300000Y-22475000D01*
G75*
G02*
X115100000Y-22275000I0J200000D01*
G01*
X115100000Y-21275000D01*
G75*
G02*
X115300000Y-21075000I200000J0D01*
G01*
X116900000Y-21075000D01*
G75*
G02*
X117100000Y-21275000I0J-200000D01*
G01*
G37*
G36*
G01*
X117100000Y-19525000D02*
X117100000Y-20525000D01*
G75*
G02*
X116900000Y-20725000I-200000J0D01*
G01*
X115300000Y-20725000D01*
G75*
G02*
X115100000Y-20525000I0J200000D01*
G01*
X115100000Y-19525000D01*
G75*
G02*
X115300000Y-19325000I200000J0D01*
G01*
X116900000Y-19325000D01*
G75*
G02*
X117100000Y-19525000I0J-200000D01*
G01*
G37*
G36*
G01*
X112300000Y-21275000D02*
X112300000Y-22275000D01*
G75*
G02*
X112100000Y-22475000I-200000J0D01*
G01*
X110500000Y-22475000D01*
G75*
G02*
X110300000Y-22275000I0J200000D01*
G01*
X110300000Y-21275000D01*
G75*
G02*
X110500000Y-21075000I200000J0D01*
G01*
X112100000Y-21075000D01*
G75*
G02*
X112300000Y-21275000I0J-200000D01*
G01*
G37*
G36*
G01*
X112300000Y-19525000D02*
X112300000Y-20525000D01*
G75*
G02*
X112100000Y-20725000I-200000J0D01*
G01*
X110500000Y-20725000D01*
G75*
G02*
X110300000Y-20525000I0J200000D01*
G01*
X110300000Y-19525000D01*
G75*
G02*
X110500000Y-19325000I200000J0D01*
G01*
X112100000Y-19325000D01*
G75*
G02*
X112300000Y-19525000I0J-200000D01*
G01*
G37*
G36*
G01*
X136100000Y-22775000D02*
X136100000Y-23775000D01*
G75*
G02*
X135900000Y-23975000I-200000J0D01*
G01*
X134300000Y-23975000D01*
G75*
G02*
X134100000Y-23775000I0J200000D01*
G01*
X134100000Y-22775000D01*
G75*
G02*
X134300000Y-22575000I200000J0D01*
G01*
X135900000Y-22575000D01*
G75*
G02*
X136100000Y-22775000I0J-200000D01*
G01*
G37*
G36*
G01*
X136100000Y-21025000D02*
X136100000Y-22025000D01*
G75*
G02*
X135900000Y-22225000I-200000J0D01*
G01*
X134300000Y-22225000D01*
G75*
G02*
X134100000Y-22025000I0J200000D01*
G01*
X134100000Y-21025000D01*
G75*
G02*
X134300000Y-20825000I200000J0D01*
G01*
X135900000Y-20825000D01*
G75*
G02*
X136100000Y-21025000I0J-200000D01*
G01*
G37*
G36*
G01*
X131300000Y-22775000D02*
X131300000Y-23775000D01*
G75*
G02*
X131100000Y-23975000I-200000J0D01*
G01*
X129500000Y-23975000D01*
G75*
G02*
X129300000Y-23775000I0J200000D01*
G01*
X129300000Y-22775000D01*
G75*
G02*
X129500000Y-22575000I200000J0D01*
G01*
X131100000Y-22575000D01*
G75*
G02*
X131300000Y-22775000I0J-200000D01*
G01*
G37*
G36*
G01*
X131300000Y-21025000D02*
X131300000Y-22025000D01*
G75*
G02*
X131100000Y-22225000I-200000J0D01*
G01*
X129500000Y-22225000D01*
G75*
G02*
X129300000Y-22025000I0J200000D01*
G01*
X129300000Y-21025000D01*
G75*
G02*
X129500000Y-20825000I200000J0D01*
G01*
X131100000Y-20825000D01*
G75*
G02*
X131300000Y-21025000I0J-200000D01*
G01*
G37*
G36*
G01*
X34100000Y-37225000D02*
X34100000Y-36225000D01*
G75*
G02*
X34300000Y-36025000I200000J0D01*
G01*
X35900000Y-36025000D01*
G75*
G02*
X36100000Y-36225000I0J-200000D01*
G01*
X36100000Y-37225000D01*
G75*
G02*
X35900000Y-37425000I-200000J0D01*
G01*
X34300000Y-37425000D01*
G75*
G02*
X34100000Y-37225000I0J200000D01*
G01*
G37*
G36*
G01*
X34100000Y-38975000D02*
X34100000Y-37975000D01*
G75*
G02*
X34300000Y-37775000I200000J0D01*
G01*
X35900000Y-37775000D01*
G75*
G02*
X36100000Y-37975000I0J-200000D01*
G01*
X36100000Y-38975000D01*
G75*
G02*
X35900000Y-39175000I-200000J0D01*
G01*
X34300000Y-39175000D01*
G75*
G02*
X34100000Y-38975000I0J200000D01*
G01*
G37*
G36*
G01*
X38900000Y-37225000D02*
X38900000Y-36225000D01*
G75*
G02*
X39100000Y-36025000I200000J0D01*
G01*
X40700000Y-36025000D01*
G75*
G02*
X40900000Y-36225000I0J-200000D01*
G01*
X40900000Y-37225000D01*
G75*
G02*
X40700000Y-37425000I-200000J0D01*
G01*
X39100000Y-37425000D01*
G75*
G02*
X38900000Y-37225000I0J200000D01*
G01*
G37*
G36*
G01*
X38900000Y-38975000D02*
X38900000Y-37975000D01*
G75*
G02*
X39100000Y-37775000I200000J0D01*
G01*
X40700000Y-37775000D01*
G75*
G02*
X40900000Y-37975000I0J-200000D01*
G01*
X40900000Y-38975000D01*
G75*
G02*
X40700000Y-39175000I-200000J0D01*
G01*
X39100000Y-39175000D01*
G75*
G02*
X38900000Y-38975000I0J200000D01*
G01*
G37*
G36*
G01*
X53100000Y-34825000D02*
X53100000Y-33825000D01*
G75*
G02*
X53300000Y-33625000I200000J0D01*
G01*
X54900000Y-33625000D01*
G75*
G02*
X55100000Y-33825000I0J-200000D01*
G01*
X55100000Y-34825000D01*
G75*
G02*
X54900000Y-35025000I-200000J0D01*
G01*
X53300000Y-35025000D01*
G75*
G02*
X53100000Y-34825000I0J200000D01*
G01*
G37*
G36*
G01*
X53100000Y-36575000D02*
X53100000Y-35575000D01*
G75*
G02*
X53300000Y-35375000I200000J0D01*
G01*
X54900000Y-35375000D01*
G75*
G02*
X55100000Y-35575000I0J-200000D01*
G01*
X55100000Y-36575000D01*
G75*
G02*
X54900000Y-36775000I-200000J0D01*
G01*
X53300000Y-36775000D01*
G75*
G02*
X53100000Y-36575000I0J200000D01*
G01*
G37*
G36*
G01*
X57900000Y-34825000D02*
X57900000Y-33825000D01*
G75*
G02*
X58100000Y-33625000I200000J0D01*
G01*
X59700000Y-33625000D01*
G75*
G02*
X59900000Y-33825000I0J-200000D01*
G01*
X59900000Y-34825000D01*
G75*
G02*
X59700000Y-35025000I-200000J0D01*
G01*
X58100000Y-35025000D01*
G75*
G02*
X57900000Y-34825000I0J200000D01*
G01*
G37*
G36*
G01*
X57900000Y-36575000D02*
X57900000Y-35575000D01*
G75*
G02*
X58100000Y-35375000I200000J0D01*
G01*
X59700000Y-35375000D01*
G75*
G02*
X59900000Y-35575000I0J-200000D01*
G01*
X59900000Y-36575000D01*
G75*
G02*
X59700000Y-36775000I-200000J0D01*
G01*
X58100000Y-36775000D01*
G75*
G02*
X57900000Y-36575000I0J200000D01*
G01*
G37*
G36*
G01*
X72200000Y-33425000D02*
X72200000Y-32425000D01*
G75*
G02*
X72400000Y-32225000I200000J0D01*
G01*
X74000000Y-32225000D01*
G75*
G02*
X74200000Y-32425000I0J-200000D01*
G01*
X74200000Y-33425000D01*
G75*
G02*
X74000000Y-33625000I-200000J0D01*
G01*
X72400000Y-33625000D01*
G75*
G02*
X72200000Y-33425000I0J200000D01*
G01*
G37*
G36*
G01*
X72200000Y-35175000D02*
X72200000Y-34175000D01*
G75*
G02*
X72400000Y-33975000I200000J0D01*
G01*
X74000000Y-33975000D01*
G75*
G02*
X74200000Y-34175000I0J-200000D01*
G01*
X74200000Y-35175000D01*
G75*
G02*
X74000000Y-35375000I-200000J0D01*
G01*
X72400000Y-35375000D01*
G75*
G02*
X72200000Y-35175000I0J200000D01*
G01*
G37*
G36*
G01*
X77000000Y-33425000D02*
X77000000Y-32425000D01*
G75*
G02*
X77200000Y-32225000I200000J0D01*
G01*
X78800000Y-32225000D01*
G75*
G02*
X79000000Y-32425000I0J-200000D01*
G01*
X79000000Y-33425000D01*
G75*
G02*
X78800000Y-33625000I-200000J0D01*
G01*
X77200000Y-33625000D01*
G75*
G02*
X77000000Y-33425000I0J200000D01*
G01*
G37*
G36*
G01*
X77000000Y-35175000D02*
X77000000Y-34175000D01*
G75*
G02*
X77200000Y-33975000I200000J0D01*
G01*
X78800000Y-33975000D01*
G75*
G02*
X79000000Y-34175000I0J-200000D01*
G01*
X79000000Y-35175000D01*
G75*
G02*
X78800000Y-35375000I-200000J0D01*
G01*
X77200000Y-35375000D01*
G75*
G02*
X77000000Y-35175000I0J200000D01*
G01*
G37*
G36*
G01*
X91200000Y-34725000D02*
X91200000Y-33725000D01*
G75*
G02*
X91400000Y-33525000I200000J0D01*
G01*
X93000000Y-33525000D01*
G75*
G02*
X93200000Y-33725000I0J-200000D01*
G01*
X93200000Y-34725000D01*
G75*
G02*
X93000000Y-34925000I-200000J0D01*
G01*
X91400000Y-34925000D01*
G75*
G02*
X91200000Y-34725000I0J200000D01*
G01*
G37*
G36*
G01*
X91200000Y-36475000D02*
X91200000Y-35475000D01*
G75*
G02*
X91400000Y-35275000I200000J0D01*
G01*
X93000000Y-35275000D01*
G75*
G02*
X93200000Y-35475000I0J-200000D01*
G01*
X93200000Y-36475000D01*
G75*
G02*
X93000000Y-36675000I-200000J0D01*
G01*
X91400000Y-36675000D01*
G75*
G02*
X91200000Y-36475000I0J200000D01*
G01*
G37*
G36*
G01*
X96000000Y-34725000D02*
X96000000Y-33725000D01*
G75*
G02*
X96200000Y-33525000I200000J0D01*
G01*
X97800000Y-33525000D01*
G75*
G02*
X98000000Y-33725000I0J-200000D01*
G01*
X98000000Y-34725000D01*
G75*
G02*
X97800000Y-34925000I-200000J0D01*
G01*
X96200000Y-34925000D01*
G75*
G02*
X96000000Y-34725000I0J200000D01*
G01*
G37*
G36*
G01*
X96000000Y-36475000D02*
X96000000Y-35475000D01*
G75*
G02*
X96200000Y-35275000I200000J0D01*
G01*
X97800000Y-35275000D01*
G75*
G02*
X98000000Y-35475000I0J-200000D01*
G01*
X98000000Y-36475000D01*
G75*
G02*
X97800000Y-36675000I-200000J0D01*
G01*
X96200000Y-36675000D01*
G75*
G02*
X96000000Y-36475000I0J200000D01*
G01*
G37*
G36*
G01*
X110300000Y-39425000D02*
X110300000Y-38425000D01*
G75*
G02*
X110500000Y-38225000I200000J0D01*
G01*
X112100000Y-38225000D01*
G75*
G02*
X112300000Y-38425000I0J-200000D01*
G01*
X112300000Y-39425000D01*
G75*
G02*
X112100000Y-39625000I-200000J0D01*
G01*
X110500000Y-39625000D01*
G75*
G02*
X110300000Y-39425000I0J200000D01*
G01*
G37*
G36*
G01*
X110300000Y-41175000D02*
X110300000Y-40175000D01*
G75*
G02*
X110500000Y-39975000I200000J0D01*
G01*
X112100000Y-39975000D01*
G75*
G02*
X112300000Y-40175000I0J-200000D01*
G01*
X112300000Y-41175000D01*
G75*
G02*
X112100000Y-41375000I-200000J0D01*
G01*
X110500000Y-41375000D01*
G75*
G02*
X110300000Y-41175000I0J200000D01*
G01*
G37*
G36*
G01*
X115100000Y-39425000D02*
X115100000Y-38425000D01*
G75*
G02*
X115300000Y-38225000I200000J0D01*
G01*
X116900000Y-38225000D01*
G75*
G02*
X117100000Y-38425000I0J-200000D01*
G01*
X117100000Y-39425000D01*
G75*
G02*
X116900000Y-39625000I-200000J0D01*
G01*
X115300000Y-39625000D01*
G75*
G02*
X115100000Y-39425000I0J200000D01*
G01*
G37*
G36*
G01*
X115100000Y-41175000D02*
X115100000Y-40175000D01*
G75*
G02*
X115300000Y-39975000I200000J0D01*
G01*
X116900000Y-39975000D01*
G75*
G02*
X117100000Y-40175000I0J-200000D01*
G01*
X117100000Y-41175000D01*
G75*
G02*
X116900000Y-41375000I-200000J0D01*
G01*
X115300000Y-41375000D01*
G75*
G02*
X115100000Y-41175000I0J200000D01*
G01*
G37*
G36*
G01*
X129300000Y-40925000D02*
X129300000Y-39925000D01*
G75*
G02*
X129500000Y-39725000I200000J0D01*
G01*
X131100000Y-39725000D01*
G75*
G02*
X131300000Y-39925000I0J-200000D01*
G01*
X131300000Y-40925000D01*
G75*
G02*
X131100000Y-41125000I-200000J0D01*
G01*
X129500000Y-41125000D01*
G75*
G02*
X129300000Y-40925000I0J200000D01*
G01*
G37*
G36*
G01*
X129300000Y-42675000D02*
X129300000Y-41675000D01*
G75*
G02*
X129500000Y-41475000I200000J0D01*
G01*
X131100000Y-41475000D01*
G75*
G02*
X131300000Y-41675000I0J-200000D01*
G01*
X131300000Y-42675000D01*
G75*
G02*
X131100000Y-42875000I-200000J0D01*
G01*
X129500000Y-42875000D01*
G75*
G02*
X129300000Y-42675000I0J200000D01*
G01*
G37*
G36*
G01*
X134100000Y-40925000D02*
X134100000Y-39925000D01*
G75*
G02*
X134300000Y-39725000I200000J0D01*
G01*
X135900000Y-39725000D01*
G75*
G02*
X136100000Y-39925000I0J-200000D01*
G01*
X136100000Y-40925000D01*
G75*
G02*
X135900000Y-41125000I-200000J0D01*
G01*
X134300000Y-41125000D01*
G75*
G02*
X134100000Y-40925000I0J200000D01*
G01*
G37*
G36*
G01*
X134100000Y-42675000D02*
X134100000Y-41675000D01*
G75*
G02*
X134300000Y-41475000I200000J0D01*
G01*
X135900000Y-41475000D01*
G75*
G02*
X136100000Y-41675000I0J-200000D01*
G01*
X136100000Y-42675000D01*
G75*
G02*
X135900000Y-42875000I-200000J0D01*
G01*
X134300000Y-42875000D01*
G75*
G02*
X134100000Y-42675000I0J200000D01*
G01*
G37*
G36*
G01*
X40900000Y-56975000D02*
X40900000Y-57975000D01*
G75*
G02*
X40700000Y-58175000I-200000J0D01*
G01*
X39100000Y-58175000D01*
G75*
G02*
X38900000Y-57975000I0J200000D01*
G01*
X38900000Y-56975000D01*
G75*
G02*
X39100000Y-56775000I200000J0D01*
G01*
X40700000Y-56775000D01*
G75*
G02*
X40900000Y-56975000I0J-200000D01*
G01*
G37*
G36*
G01*
X40900000Y-55225000D02*
X40900000Y-56225000D01*
G75*
G02*
X40700000Y-56425000I-200000J0D01*
G01*
X39100000Y-56425000D01*
G75*
G02*
X38900000Y-56225000I0J200000D01*
G01*
X38900000Y-55225000D01*
G75*
G02*
X39100000Y-55025000I200000J0D01*
G01*
X40700000Y-55025000D01*
G75*
G02*
X40900000Y-55225000I0J-200000D01*
G01*
G37*
G36*
G01*
X36100000Y-56975000D02*
X36100000Y-57975000D01*
G75*
G02*
X35900000Y-58175000I-200000J0D01*
G01*
X34300000Y-58175000D01*
G75*
G02*
X34100000Y-57975000I0J200000D01*
G01*
X34100000Y-56975000D01*
G75*
G02*
X34300000Y-56775000I200000J0D01*
G01*
X35900000Y-56775000D01*
G75*
G02*
X36100000Y-56975000I0J-200000D01*
G01*
G37*
G36*
G01*
X36100000Y-55225000D02*
X36100000Y-56225000D01*
G75*
G02*
X35900000Y-56425000I-200000J0D01*
G01*
X34300000Y-56425000D01*
G75*
G02*
X34100000Y-56225000I0J200000D01*
G01*
X34100000Y-55225000D01*
G75*
G02*
X34300000Y-55025000I200000J0D01*
G01*
X35900000Y-55025000D01*
G75*
G02*
X36100000Y-55225000I0J-200000D01*
G01*
G37*
G36*
G01*
X59900000Y-54575000D02*
X59900000Y-55575000D01*
G75*
G02*
X59700000Y-55775000I-200000J0D01*
G01*
X58100000Y-55775000D01*
G75*
G02*
X57900000Y-55575000I0J200000D01*
G01*
X57900000Y-54575000D01*
G75*
G02*
X58100000Y-54375000I200000J0D01*
G01*
X59700000Y-54375000D01*
G75*
G02*
X59900000Y-54575000I0J-200000D01*
G01*
G37*
G36*
G01*
X59900000Y-52825000D02*
X59900000Y-53825000D01*
G75*
G02*
X59700000Y-54025000I-200000J0D01*
G01*
X58100000Y-54025000D01*
G75*
G02*
X57900000Y-53825000I0J200000D01*
G01*
X57900000Y-52825000D01*
G75*
G02*
X58100000Y-52625000I200000J0D01*
G01*
X59700000Y-52625000D01*
G75*
G02*
X59900000Y-52825000I0J-200000D01*
G01*
G37*
G36*
G01*
X55100000Y-54575000D02*
X55100000Y-55575000D01*
G75*
G02*
X54900000Y-55775000I-200000J0D01*
G01*
X53300000Y-55775000D01*
G75*
G02*
X53100000Y-55575000I0J200000D01*
G01*
X53100000Y-54575000D01*
G75*
G02*
X53300000Y-54375000I200000J0D01*
G01*
X54900000Y-54375000D01*
G75*
G02*
X55100000Y-54575000I0J-200000D01*
G01*
G37*
G36*
G01*
X55100000Y-52825000D02*
X55100000Y-53825000D01*
G75*
G02*
X54900000Y-54025000I-200000J0D01*
G01*
X53300000Y-54025000D01*
G75*
G02*
X53100000Y-53825000I0J200000D01*
G01*
X53100000Y-52825000D01*
G75*
G02*
X53300000Y-52625000I200000J0D01*
G01*
X54900000Y-52625000D01*
G75*
G02*
X55100000Y-52825000I0J-200000D01*
G01*
G37*
G36*
G01*
X79000000Y-53275000D02*
X79000000Y-54275000D01*
G75*
G02*
X78800000Y-54475000I-200000J0D01*
G01*
X77200000Y-54475000D01*
G75*
G02*
X77000000Y-54275000I0J200000D01*
G01*
X77000000Y-53275000D01*
G75*
G02*
X77200000Y-53075000I200000J0D01*
G01*
X78800000Y-53075000D01*
G75*
G02*
X79000000Y-53275000I0J-200000D01*
G01*
G37*
G36*
G01*
X79000000Y-51525000D02*
X79000000Y-52525000D01*
G75*
G02*
X78800000Y-52725000I-200000J0D01*
G01*
X77200000Y-52725000D01*
G75*
G02*
X77000000Y-52525000I0J200000D01*
G01*
X77000000Y-51525000D01*
G75*
G02*
X77200000Y-51325000I200000J0D01*
G01*
X78800000Y-51325000D01*
G75*
G02*
X79000000Y-51525000I0J-200000D01*
G01*
G37*
G36*
G01*
X74200000Y-53275000D02*
X74200000Y-54275000D01*
G75*
G02*
X74000000Y-54475000I-200000J0D01*
G01*
X72400000Y-54475000D01*
G75*
G02*
X72200000Y-54275000I0J200000D01*
G01*
X72200000Y-53275000D01*
G75*
G02*
X72400000Y-53075000I200000J0D01*
G01*
X74000000Y-53075000D01*
G75*
G02*
X74200000Y-53275000I0J-200000D01*
G01*
G37*
G36*
G01*
X74200000Y-51525000D02*
X74200000Y-52525000D01*
G75*
G02*
X74000000Y-52725000I-200000J0D01*
G01*
X72400000Y-52725000D01*
G75*
G02*
X72200000Y-52525000I0J200000D01*
G01*
X72200000Y-51525000D01*
G75*
G02*
X72400000Y-51325000I200000J0D01*
G01*
X74000000Y-51325000D01*
G75*
G02*
X74200000Y-51525000I0J-200000D01*
G01*
G37*
G36*
G01*
X98000000Y-54575000D02*
X98000000Y-55575000D01*
G75*
G02*
X97800000Y-55775000I-200000J0D01*
G01*
X96200000Y-55775000D01*
G75*
G02*
X96000000Y-55575000I0J200000D01*
G01*
X96000000Y-54575000D01*
G75*
G02*
X96200000Y-54375000I200000J0D01*
G01*
X97800000Y-54375000D01*
G75*
G02*
X98000000Y-54575000I0J-200000D01*
G01*
G37*
G36*
G01*
X98000000Y-52825000D02*
X98000000Y-53825000D01*
G75*
G02*
X97800000Y-54025000I-200000J0D01*
G01*
X96200000Y-54025000D01*
G75*
G02*
X96000000Y-53825000I0J200000D01*
G01*
X96000000Y-52825000D01*
G75*
G02*
X96200000Y-52625000I200000J0D01*
G01*
X97800000Y-52625000D01*
G75*
G02*
X98000000Y-52825000I0J-200000D01*
G01*
G37*
G36*
G01*
X93200000Y-54575000D02*
X93200000Y-55575000D01*
G75*
G02*
X93000000Y-55775000I-200000J0D01*
G01*
X91400000Y-55775000D01*
G75*
G02*
X91200000Y-55575000I0J200000D01*
G01*
X91200000Y-54575000D01*
G75*
G02*
X91400000Y-54375000I200000J0D01*
G01*
X93000000Y-54375000D01*
G75*
G02*
X93200000Y-54575000I0J-200000D01*
G01*
G37*
G36*
G01*
X93200000Y-52825000D02*
X93200000Y-53825000D01*
G75*
G02*
X93000000Y-54025000I-200000J0D01*
G01*
X91400000Y-54025000D01*
G75*
G02*
X91200000Y-53825000I0J200000D01*
G01*
X91200000Y-52825000D01*
G75*
G02*
X91400000Y-52625000I200000J0D01*
G01*
X93000000Y-52625000D01*
G75*
G02*
X93200000Y-52825000I0J-200000D01*
G01*
G37*
G36*
G01*
X117100000Y-59375000D02*
X117100000Y-60375000D01*
G75*
G02*
X116900000Y-60575000I-200000J0D01*
G01*
X115300000Y-60575000D01*
G75*
G02*
X115100000Y-60375000I0J200000D01*
G01*
X115100000Y-59375000D01*
G75*
G02*
X115300000Y-59175000I200000J0D01*
G01*
X116900000Y-59175000D01*
G75*
G02*
X117100000Y-59375000I0J-200000D01*
G01*
G37*
G36*
G01*
X117100000Y-57625000D02*
X117100000Y-58625000D01*
G75*
G02*
X116900000Y-58825000I-200000J0D01*
G01*
X115300000Y-58825000D01*
G75*
G02*
X115100000Y-58625000I0J200000D01*
G01*
X115100000Y-57625000D01*
G75*
G02*
X115300000Y-57425000I200000J0D01*
G01*
X116900000Y-57425000D01*
G75*
G02*
X117100000Y-57625000I0J-200000D01*
G01*
G37*
G36*
G01*
X112300000Y-59375000D02*
X112300000Y-60375000D01*
G75*
G02*
X112100000Y-60575000I-200000J0D01*
G01*
X110500000Y-60575000D01*
G75*
G02*
X110300000Y-60375000I0J200000D01*
G01*
X110300000Y-59375000D01*
G75*
G02*
X110500000Y-59175000I200000J0D01*
G01*
X112100000Y-59175000D01*
G75*
G02*
X112300000Y-59375000I0J-200000D01*
G01*
G37*
G36*
G01*
X112300000Y-57625000D02*
X112300000Y-58625000D01*
G75*
G02*
X112100000Y-58825000I-200000J0D01*
G01*
X110500000Y-58825000D01*
G75*
G02*
X110300000Y-58625000I0J200000D01*
G01*
X110300000Y-57625000D01*
G75*
G02*
X110500000Y-57425000I200000J0D01*
G01*
X112100000Y-57425000D01*
G75*
G02*
X112300000Y-57625000I0J-200000D01*
G01*
G37*
G36*
G01*
X136100000Y-60875000D02*
X136100000Y-61875000D01*
G75*
G02*
X135900000Y-62075000I-200000J0D01*
G01*
X134300000Y-62075000D01*
G75*
G02*
X134100000Y-61875000I0J200000D01*
G01*
X134100000Y-60875000D01*
G75*
G02*
X134300000Y-60675000I200000J0D01*
G01*
X135900000Y-60675000D01*
G75*
G02*
X136100000Y-60875000I0J-200000D01*
G01*
G37*
G36*
G01*
X136100000Y-59125000D02*
X136100000Y-60125000D01*
G75*
G02*
X135900000Y-60325000I-200000J0D01*
G01*
X134300000Y-60325000D01*
G75*
G02*
X134100000Y-60125000I0J200000D01*
G01*
X134100000Y-59125000D01*
G75*
G02*
X134300000Y-58925000I200000J0D01*
G01*
X135900000Y-58925000D01*
G75*
G02*
X136100000Y-59125000I0J-200000D01*
G01*
G37*
G36*
G01*
X131300000Y-60875000D02*
X131300000Y-61875000D01*
G75*
G02*
X131100000Y-62075000I-200000J0D01*
G01*
X129500000Y-62075000D01*
G75*
G02*
X129300000Y-61875000I0J200000D01*
G01*
X129300000Y-60875000D01*
G75*
G02*
X129500000Y-60675000I200000J0D01*
G01*
X131100000Y-60675000D01*
G75*
G02*
X131300000Y-60875000I0J-200000D01*
G01*
G37*
G36*
G01*
X131300000Y-59125000D02*
X131300000Y-60125000D01*
G75*
G02*
X131100000Y-60325000I-200000J0D01*
G01*
X129500000Y-60325000D01*
G75*
G02*
X129300000Y-60125000I0J200000D01*
G01*
X129300000Y-59125000D01*
G75*
G02*
X129500000Y-58925000I200000J0D01*
G01*
X131100000Y-58925000D01*
G75*
G02*
X131300000Y-59125000I0J-200000D01*
G01*
G37*
G36*
G01*
X34100000Y-75225000D02*
X34100000Y-74225000D01*
G75*
G02*
X34300000Y-74025000I200000J0D01*
G01*
X35900000Y-74025000D01*
G75*
G02*
X36100000Y-74225000I0J-200000D01*
G01*
X36100000Y-75225000D01*
G75*
G02*
X35900000Y-75425000I-200000J0D01*
G01*
X34300000Y-75425000D01*
G75*
G02*
X34100000Y-75225000I0J200000D01*
G01*
G37*
G36*
G01*
X34100000Y-76975000D02*
X34100000Y-75975000D01*
G75*
G02*
X34300000Y-75775000I200000J0D01*
G01*
X35900000Y-75775000D01*
G75*
G02*
X36100000Y-75975000I0J-200000D01*
G01*
X36100000Y-76975000D01*
G75*
G02*
X35900000Y-77175000I-200000J0D01*
G01*
X34300000Y-77175000D01*
G75*
G02*
X34100000Y-76975000I0J200000D01*
G01*
G37*
G36*
G01*
X38900000Y-75225000D02*
X38900000Y-74225000D01*
G75*
G02*
X39100000Y-74025000I200000J0D01*
G01*
X40700000Y-74025000D01*
G75*
G02*
X40900000Y-74225000I0J-200000D01*
G01*
X40900000Y-75225000D01*
G75*
G02*
X40700000Y-75425000I-200000J0D01*
G01*
X39100000Y-75425000D01*
G75*
G02*
X38900000Y-75225000I0J200000D01*
G01*
G37*
G36*
G01*
X38900000Y-76975000D02*
X38900000Y-75975000D01*
G75*
G02*
X39100000Y-75775000I200000J0D01*
G01*
X40700000Y-75775000D01*
G75*
G02*
X40900000Y-75975000I0J-200000D01*
G01*
X40900000Y-76975000D01*
G75*
G02*
X40700000Y-77175000I-200000J0D01*
G01*
X39100000Y-77175000D01*
G75*
G02*
X38900000Y-76975000I0J200000D01*
G01*
G37*
G36*
G01*
X53100000Y-72925000D02*
X53100000Y-71925000D01*
G75*
G02*
X53300000Y-71725000I200000J0D01*
G01*
X54900000Y-71725000D01*
G75*
G02*
X55100000Y-71925000I0J-200000D01*
G01*
X55100000Y-72925000D01*
G75*
G02*
X54900000Y-73125000I-200000J0D01*
G01*
X53300000Y-73125000D01*
G75*
G02*
X53100000Y-72925000I0J200000D01*
G01*
G37*
G36*
G01*
X53100000Y-74675000D02*
X53100000Y-73675000D01*
G75*
G02*
X53300000Y-73475000I200000J0D01*
G01*
X54900000Y-73475000D01*
G75*
G02*
X55100000Y-73675000I0J-200000D01*
G01*
X55100000Y-74675000D01*
G75*
G02*
X54900000Y-74875000I-200000J0D01*
G01*
X53300000Y-74875000D01*
G75*
G02*
X53100000Y-74675000I0J200000D01*
G01*
G37*
G36*
G01*
X57900000Y-72925000D02*
X57900000Y-71925000D01*
G75*
G02*
X58100000Y-71725000I200000J0D01*
G01*
X59700000Y-71725000D01*
G75*
G02*
X59900000Y-71925000I0J-200000D01*
G01*
X59900000Y-72925000D01*
G75*
G02*
X59700000Y-73125000I-200000J0D01*
G01*
X58100000Y-73125000D01*
G75*
G02*
X57900000Y-72925000I0J200000D01*
G01*
G37*
G36*
G01*
X57900000Y-74675000D02*
X57900000Y-73675000D01*
G75*
G02*
X58100000Y-73475000I200000J0D01*
G01*
X59700000Y-73475000D01*
G75*
G02*
X59900000Y-73675000I0J-200000D01*
G01*
X59900000Y-74675000D01*
G75*
G02*
X59700000Y-74875000I-200000J0D01*
G01*
X58100000Y-74875000D01*
G75*
G02*
X57900000Y-74675000I0J200000D01*
G01*
G37*
G36*
G01*
X72200000Y-71525000D02*
X72200000Y-70525000D01*
G75*
G02*
X72400000Y-70325000I200000J0D01*
G01*
X74000000Y-70325000D01*
G75*
G02*
X74200000Y-70525000I0J-200000D01*
G01*
X74200000Y-71525000D01*
G75*
G02*
X74000000Y-71725000I-200000J0D01*
G01*
X72400000Y-71725000D01*
G75*
G02*
X72200000Y-71525000I0J200000D01*
G01*
G37*
G36*
G01*
X72200000Y-73275000D02*
X72200000Y-72275000D01*
G75*
G02*
X72400000Y-72075000I200000J0D01*
G01*
X74000000Y-72075000D01*
G75*
G02*
X74200000Y-72275000I0J-200000D01*
G01*
X74200000Y-73275000D01*
G75*
G02*
X74000000Y-73475000I-200000J0D01*
G01*
X72400000Y-73475000D01*
G75*
G02*
X72200000Y-73275000I0J200000D01*
G01*
G37*
G36*
G01*
X77000000Y-71525000D02*
X77000000Y-70525000D01*
G75*
G02*
X77200000Y-70325000I200000J0D01*
G01*
X78800000Y-70325000D01*
G75*
G02*
X79000000Y-70525000I0J-200000D01*
G01*
X79000000Y-71525000D01*
G75*
G02*
X78800000Y-71725000I-200000J0D01*
G01*
X77200000Y-71725000D01*
G75*
G02*
X77000000Y-71525000I0J200000D01*
G01*
G37*
G36*
G01*
X77000000Y-73275000D02*
X77000000Y-72275000D01*
G75*
G02*
X77200000Y-72075000I200000J0D01*
G01*
X78800000Y-72075000D01*
G75*
G02*
X79000000Y-72275000I0J-200000D01*
G01*
X79000000Y-73275000D01*
G75*
G02*
X78800000Y-73475000I-200000J0D01*
G01*
X77200000Y-73475000D01*
G75*
G02*
X77000000Y-73275000I0J200000D01*
G01*
G37*
G36*
G01*
X91200000Y-72925000D02*
X91200000Y-71925000D01*
G75*
G02*
X91400000Y-71725000I200000J0D01*
G01*
X93000000Y-71725000D01*
G75*
G02*
X93200000Y-71925000I0J-200000D01*
G01*
X93200000Y-72925000D01*
G75*
G02*
X93000000Y-73125000I-200000J0D01*
G01*
X91400000Y-73125000D01*
G75*
G02*
X91200000Y-72925000I0J200000D01*
G01*
G37*
G36*
G01*
X91200000Y-74675000D02*
X91200000Y-73675000D01*
G75*
G02*
X91400000Y-73475000I200000J0D01*
G01*
X93000000Y-73475000D01*
G75*
G02*
X93200000Y-73675000I0J-200000D01*
G01*
X93200000Y-74675000D01*
G75*
G02*
X93000000Y-74875000I-200000J0D01*
G01*
X91400000Y-74875000D01*
G75*
G02*
X91200000Y-74675000I0J200000D01*
G01*
G37*
G36*
G01*
X96000000Y-72925000D02*
X96000000Y-71925000D01*
G75*
G02*
X96200000Y-71725000I200000J0D01*
G01*
X97800000Y-71725000D01*
G75*
G02*
X98000000Y-71925000I0J-200000D01*
G01*
X98000000Y-72925000D01*
G75*
G02*
X97800000Y-73125000I-200000J0D01*
G01*
X96200000Y-73125000D01*
G75*
G02*
X96000000Y-72925000I0J200000D01*
G01*
G37*
G36*
G01*
X96000000Y-74675000D02*
X96000000Y-73675000D01*
G75*
G02*
X96200000Y-73475000I200000J0D01*
G01*
X97800000Y-73475000D01*
G75*
G02*
X98000000Y-73675000I0J-200000D01*
G01*
X98000000Y-74675000D01*
G75*
G02*
X97800000Y-74875000I-200000J0D01*
G01*
X96200000Y-74875000D01*
G75*
G02*
X96000000Y-74675000I0J200000D01*
G01*
G37*
G36*
G01*
X110300000Y-77625000D02*
X110300000Y-76625000D01*
G75*
G02*
X110500000Y-76425000I200000J0D01*
G01*
X112100000Y-76425000D01*
G75*
G02*
X112300000Y-76625000I0J-200000D01*
G01*
X112300000Y-77625000D01*
G75*
G02*
X112100000Y-77825000I-200000J0D01*
G01*
X110500000Y-77825000D01*
G75*
G02*
X110300000Y-77625000I0J200000D01*
G01*
G37*
G36*
G01*
X110300000Y-79375000D02*
X110300000Y-78375000D01*
G75*
G02*
X110500000Y-78175000I200000J0D01*
G01*
X112100000Y-78175000D01*
G75*
G02*
X112300000Y-78375000I0J-200000D01*
G01*
X112300000Y-79375000D01*
G75*
G02*
X112100000Y-79575000I-200000J0D01*
G01*
X110500000Y-79575000D01*
G75*
G02*
X110300000Y-79375000I0J200000D01*
G01*
G37*
G36*
G01*
X115100000Y-77625000D02*
X115100000Y-76625000D01*
G75*
G02*
X115300000Y-76425000I200000J0D01*
G01*
X116900000Y-76425000D01*
G75*
G02*
X117100000Y-76625000I0J-200000D01*
G01*
X117100000Y-77625000D01*
G75*
G02*
X116900000Y-77825000I-200000J0D01*
G01*
X115300000Y-77825000D01*
G75*
G02*
X115100000Y-77625000I0J200000D01*
G01*
G37*
G36*
G01*
X115100000Y-79375000D02*
X115100000Y-78375000D01*
G75*
G02*
X115300000Y-78175000I200000J0D01*
G01*
X116900000Y-78175000D01*
G75*
G02*
X117100000Y-78375000I0J-200000D01*
G01*
X117100000Y-79375000D01*
G75*
G02*
X116900000Y-79575000I-200000J0D01*
G01*
X115300000Y-79575000D01*
G75*
G02*
X115100000Y-79375000I0J200000D01*
G01*
G37*
G36*
G01*
X129350000Y-79125000D02*
X129350000Y-78125000D01*
G75*
G02*
X129550000Y-77925000I200000J0D01*
G01*
X131150000Y-77925000D01*
G75*
G02*
X131350000Y-78125000I0J-200000D01*
G01*
X131350000Y-79125000D01*
G75*
G02*
X131150000Y-79325000I-200000J0D01*
G01*
X129550000Y-79325000D01*
G75*
G02*
X129350000Y-79125000I0J200000D01*
G01*
G37*
G36*
G01*
X129350000Y-80875000D02*
X129350000Y-79875000D01*
G75*
G02*
X129550000Y-79675000I200000J0D01*
G01*
X131150000Y-79675000D01*
G75*
G02*
X131350000Y-79875000I0J-200000D01*
G01*
X131350000Y-80875000D01*
G75*
G02*
X131150000Y-81075000I-200000J0D01*
G01*
X129550000Y-81075000D01*
G75*
G02*
X129350000Y-80875000I0J200000D01*
G01*
G37*
G36*
G01*
X134150000Y-79125000D02*
X134150000Y-78125000D01*
G75*
G02*
X134350000Y-77925000I200000J0D01*
G01*
X135950000Y-77925000D01*
G75*
G02*
X136150000Y-78125000I0J-200000D01*
G01*
X136150000Y-79125000D01*
G75*
G02*
X135950000Y-79325000I-200000J0D01*
G01*
X134350000Y-79325000D01*
G75*
G02*
X134150000Y-79125000I0J200000D01*
G01*
G37*
G36*
G01*
X134150000Y-80875000D02*
X134150000Y-79875000D01*
G75*
G02*
X134350000Y-79675000I200000J0D01*
G01*
X135950000Y-79675000D01*
G75*
G02*
X136150000Y-79875000I0J-200000D01*
G01*
X136150000Y-80875000D01*
G75*
G02*
X135950000Y-81075000I-200000J0D01*
G01*
X134350000Y-81075000D01*
G75*
G02*
X134150000Y-80875000I0J200000D01*
G01*
G37*
G36*
G01*
X15000000Y-65625000D02*
X15000000Y-64625000D01*
G75*
G02*
X15200000Y-64425000I200000J0D01*
G01*
X16800000Y-64425000D01*
G75*
G02*
X17000000Y-64625000I0J-200000D01*
G01*
X17000000Y-65625000D01*
G75*
G02*
X16800000Y-65825000I-200000J0D01*
G01*
X15200000Y-65825000D01*
G75*
G02*
X15000000Y-65625000I0J200000D01*
G01*
G37*
G36*
G01*
X15000000Y-67375000D02*
X15000000Y-66375000D01*
G75*
G02*
X15200000Y-66175000I200000J0D01*
G01*
X16800000Y-66175000D01*
G75*
G02*
X17000000Y-66375000I0J-200000D01*
G01*
X17000000Y-67375000D01*
G75*
G02*
X16800000Y-67575000I-200000J0D01*
G01*
X15200000Y-67575000D01*
G75*
G02*
X15000000Y-67375000I0J200000D01*
G01*
G37*
G36*
G01*
X19800000Y-65625000D02*
X19800000Y-64625000D01*
G75*
G02*
X20000000Y-64425000I200000J0D01*
G01*
X21600000Y-64425000D01*
G75*
G02*
X21800000Y-64625000I0J-200000D01*
G01*
X21800000Y-65625000D01*
G75*
G02*
X21600000Y-65825000I-200000J0D01*
G01*
X20000000Y-65825000D01*
G75*
G02*
X19800000Y-65625000I0J200000D01*
G01*
G37*
G36*
G01*
X19800000Y-67375000D02*
X19800000Y-66375000D01*
G75*
G02*
X20000000Y-66175000I200000J0D01*
G01*
X21600000Y-66175000D01*
G75*
G02*
X21800000Y-66375000I0J-200000D01*
G01*
X21800000Y-67375000D01*
G75*
G02*
X21600000Y-67575000I-200000J0D01*
G01*
X20000000Y-67575000D01*
G75*
G02*
X19800000Y-67375000I0J200000D01*
G01*
G37*
G36*
G01*
X50400000Y-94875000D02*
X50400000Y-95875000D01*
G75*
G02*
X50200000Y-96075000I-200000J0D01*
G01*
X48600000Y-96075000D01*
G75*
G02*
X48400000Y-95875000I0J200000D01*
G01*
X48400000Y-94875000D01*
G75*
G02*
X48600000Y-94675000I200000J0D01*
G01*
X50200000Y-94675000D01*
G75*
G02*
X50400000Y-94875000I0J-200000D01*
G01*
G37*
G36*
G01*
X50400000Y-93125000D02*
X50400000Y-94125000D01*
G75*
G02*
X50200000Y-94325000I-200000J0D01*
G01*
X48600000Y-94325000D01*
G75*
G02*
X48400000Y-94125000I0J200000D01*
G01*
X48400000Y-93125000D01*
G75*
G02*
X48600000Y-92925000I200000J0D01*
G01*
X50200000Y-92925000D01*
G75*
G02*
X50400000Y-93125000I0J-200000D01*
G01*
G37*
G36*
G01*
X45600000Y-94875000D02*
X45600000Y-95875000D01*
G75*
G02*
X45400000Y-96075000I-200000J0D01*
G01*
X43800000Y-96075000D01*
G75*
G02*
X43600000Y-95875000I0J200000D01*
G01*
X43600000Y-94875000D01*
G75*
G02*
X43800000Y-94675000I200000J0D01*
G01*
X45400000Y-94675000D01*
G75*
G02*
X45600000Y-94875000I0J-200000D01*
G01*
G37*
G36*
G01*
X45600000Y-93125000D02*
X45600000Y-94125000D01*
G75*
G02*
X45400000Y-94325000I-200000J0D01*
G01*
X43800000Y-94325000D01*
G75*
G02*
X43600000Y-94125000I0J200000D01*
G01*
X43600000Y-93125000D01*
G75*
G02*
X43800000Y-92925000I200000J0D01*
G01*
X45400000Y-92925000D01*
G75*
G02*
X45600000Y-93125000I0J-200000D01*
G01*
G37*
G36*
G01*
X69400000Y-92625000D02*
X69400000Y-93625000D01*
G75*
G02*
X69200000Y-93825000I-200000J0D01*
G01*
X67600000Y-93825000D01*
G75*
G02*
X67400000Y-93625000I0J200000D01*
G01*
X67400000Y-92625000D01*
G75*
G02*
X67600000Y-92425000I200000J0D01*
G01*
X69200000Y-92425000D01*
G75*
G02*
X69400000Y-92625000I0J-200000D01*
G01*
G37*
G36*
G01*
X69400000Y-90875000D02*
X69400000Y-91875000D01*
G75*
G02*
X69200000Y-92075000I-200000J0D01*
G01*
X67600000Y-92075000D01*
G75*
G02*
X67400000Y-91875000I0J200000D01*
G01*
X67400000Y-90875000D01*
G75*
G02*
X67600000Y-90675000I200000J0D01*
G01*
X69200000Y-90675000D01*
G75*
G02*
X69400000Y-90875000I0J-200000D01*
G01*
G37*
G36*
G01*
X64600000Y-92625000D02*
X64600000Y-93625000D01*
G75*
G02*
X64400000Y-93825000I-200000J0D01*
G01*
X62800000Y-93825000D01*
G75*
G02*
X62600000Y-93625000I0J200000D01*
G01*
X62600000Y-92625000D01*
G75*
G02*
X62800000Y-92425000I200000J0D01*
G01*
X64400000Y-92425000D01*
G75*
G02*
X64600000Y-92625000I0J-200000D01*
G01*
G37*
G36*
G01*
X64600000Y-90875000D02*
X64600000Y-91875000D01*
G75*
G02*
X64400000Y-92075000I-200000J0D01*
G01*
X62800000Y-92075000D01*
G75*
G02*
X62600000Y-91875000I0J200000D01*
G01*
X62600000Y-90875000D01*
G75*
G02*
X62800000Y-90675000I200000J0D01*
G01*
X64400000Y-90675000D01*
G75*
G02*
X64600000Y-90875000I0J-200000D01*
G01*
G37*
X32280000Y-17200000D03*
D17*
X40040000Y-7920000D03*
X34960000Y-7920000D03*
G36*
G01*
X40178630Y-9328630D02*
X40178630Y-9328630D01*
G75*
G02*
X41522132Y-9328630I671751J-671751D01*
G01*
X42441370Y-10247868D01*
G75*
G02*
X42441370Y-11591370I-671751J-671751D01*
G01*
X42441370Y-11591370D01*
G75*
G02*
X41097868Y-11591370I-671751J671751D01*
G01*
X40178630Y-10672132D01*
G75*
G02*
X40178630Y-9328630I671751J671751D01*
G01*
G37*
D16*
X42580000Y-13000000D03*
X32420000Y-13000000D03*
D15*
X37500000Y-13000000D03*
G36*
G01*
X32558630Y-11591370D02*
X32558630Y-11591370D01*
G75*
G02*
X32558630Y-10247868I671751J671751D01*
G01*
X33477868Y-9328630D01*
G75*
G02*
X34821370Y-9328630I671751J-671751D01*
G01*
X34821370Y-9328630D01*
G75*
G02*
X34821370Y-10672132I-671751J-671751D01*
G01*
X33902132Y-11591370D01*
G75*
G02*
X32558630Y-11591370I-671751J671751D01*
G01*
G37*
D14*
X32000000Y-13000000D03*
X43000000Y-13000000D03*
G36*
G01*
X31480762Y-10019238D02*
X31480762Y-10019238D01*
G75*
G02*
X31480762Y-8887868I565685J565685D01*
G01*
X32187868Y-8180762D01*
G75*
G02*
X33319238Y-8180762I565685J-565685D01*
G01*
X33319238Y-8180762D01*
G75*
G02*
X33319238Y-9312132I-565685J-565685D01*
G01*
X32612132Y-10019238D01*
G75*
G02*
X31480762Y-10019238I-565685J565685D01*
G01*
G37*
G36*
G01*
X41680762Y-8180762D02*
X41680762Y-8180762D01*
G75*
G02*
X42812132Y-8180762I565685J-565685D01*
G01*
X43519238Y-8887868D01*
G75*
G02*
X43519238Y-10019238I-565685J-565685D01*
G01*
X43519238Y-10019238D01*
G75*
G02*
X42387868Y-10019238I-565685J565685D01*
G01*
X41680762Y-9312132D01*
G75*
G02*
X41680762Y-8180762I565685J565685D01*
G01*
G37*
D13*
X37500000Y-7100000D03*
D12*
X42720000Y-17200000D03*
G36*
G01*
X2337500Y-42375000D02*
X1662500Y-42375000D01*
G75*
G02*
X1325000Y-42037500I0J337500D01*
G01*
X1325000Y-41262500D01*
G75*
G02*
X1662500Y-40925000I337500J0D01*
G01*
X2337500Y-40925000D01*
G75*
G02*
X2675000Y-41262500I0J-337500D01*
G01*
X2675000Y-42037500D01*
G75*
G02*
X2337500Y-42375000I-337500J0D01*
G01*
G37*
G36*
G01*
X2337500Y-44125000D02*
X1662500Y-44125000D01*
G75*
G02*
X1325000Y-43787500I0J337500D01*
G01*
X1325000Y-43012500D01*
G75*
G02*
X1662500Y-42675000I337500J0D01*
G01*
X2337500Y-42675000D01*
G75*
G02*
X2675000Y-43012500I0J-337500D01*
G01*
X2675000Y-43787500D01*
G75*
G02*
X2337500Y-44125000I-337500J0D01*
G01*
G37*
G36*
G01*
X2337500Y-44139000D02*
X1662500Y-44139000D01*
G75*
G02*
X1325000Y-43801500I0J337500D01*
G01*
X1325000Y-43026500D01*
G75*
G02*
X1662500Y-42689000I337500J0D01*
G01*
X2337500Y-42689000D01*
G75*
G02*
X2675000Y-43026500I0J-337500D01*
G01*
X2675000Y-43801500D01*
G75*
G02*
X2337500Y-44139000I-337500J0D01*
G01*
G37*
G36*
G01*
X2337500Y-42361000D02*
X1662500Y-42361000D01*
G75*
G02*
X1325000Y-42023500I0J337500D01*
G01*
X1325000Y-41248500D01*
G75*
G02*
X1662500Y-40911000I337500J0D01*
G01*
X2337500Y-40911000D01*
G75*
G02*
X2675000Y-41248500I0J-337500D01*
G01*
X2675000Y-42023500D01*
G75*
G02*
X2337500Y-42361000I-337500J0D01*
G01*
G37*
G36*
G01*
X4944373Y-42387500D02*
X6455627Y-42387500D01*
G75*
G02*
X6775000Y-42706873I0J-319373D01*
G01*
X6775000Y-43893127D01*
G75*
G02*
X6455627Y-44212500I-319373J0D01*
G01*
X4944373Y-44212500D01*
G75*
G02*
X4625000Y-43893127I0J319373D01*
G01*
X4625000Y-42706873D01*
G75*
G02*
X4944373Y-42387500I319373J0D01*
G01*
G37*
G36*
G01*
X4944373Y-39412500D02*
X6455627Y-39412500D01*
G75*
G02*
X6775000Y-39731873I0J-319373D01*
G01*
X6775000Y-40918127D01*
G75*
G02*
X6455627Y-41237500I-319373J0D01*
G01*
X4944373Y-41237500D01*
G75*
G02*
X4625000Y-40918127I0J319373D01*
G01*
X4625000Y-39731873D01*
G75*
G02*
X4944373Y-39412500I319373J0D01*
G01*
G37*
G36*
G01*
X4944373Y-42398600D02*
X6455627Y-42398600D01*
G75*
G02*
X6775000Y-42717973I0J-319373D01*
G01*
X6775000Y-43904227D01*
G75*
G02*
X6455627Y-44223600I-319373J0D01*
G01*
X4944373Y-44223600D01*
G75*
G02*
X4625000Y-43904227I0J319373D01*
G01*
X4625000Y-42717973D01*
G75*
G02*
X4944373Y-42398600I319373J0D01*
G01*
G37*
G36*
G01*
X4969773Y-39401400D02*
X6481027Y-39401400D01*
G75*
G02*
X6800400Y-39720773I0J-319373D01*
G01*
X6800400Y-40907027D01*
G75*
G02*
X6481027Y-41226400I-319373J0D01*
G01*
X4969773Y-41226400D01*
G75*
G02*
X4650400Y-40907027I0J319373D01*
G01*
X4650400Y-39720773D01*
G75*
G02*
X4969773Y-39401400I319373J0D01*
G01*
G37*
D18*
X3938035Y-16499272D03*
X3938035Y-21579272D03*
G36*
G01*
X6390500Y-23509500D02*
X6390500Y-23890500D01*
G75*
G02*
X6190500Y-24090500I-200000J0D01*
G01*
X5809500Y-24090500D01*
G75*
G02*
X5609500Y-23890500I0J200000D01*
G01*
X5609500Y-23509500D01*
G75*
G02*
X5809500Y-23309500I200000J0D01*
G01*
X6190500Y-23309500D01*
G75*
G02*
X6390500Y-23509500I0J-200000D01*
G01*
G37*
G36*
G01*
X6571500Y-23717120D02*
X5428500Y-23717120D01*
G75*
G02*
X5228500Y-23517120I0J200000D01*
G01*
X5228500Y-22882120D01*
G75*
G02*
X5428500Y-22682120I200000J0D01*
G01*
X6571500Y-22682120D01*
G75*
G02*
X6771500Y-22882120I0J-200000D01*
G01*
X6771500Y-23517120D01*
G75*
G02*
X6571500Y-23717120I-200000J0D01*
G01*
G37*
G36*
G01*
X6571500Y-24717880D02*
X5428500Y-24717880D01*
G75*
G02*
X5228500Y-24517880I0J200000D01*
G01*
X5228500Y-23882880D01*
G75*
G02*
X5428500Y-23682880I200000J0D01*
G01*
X6571500Y-23682880D01*
G75*
G02*
X6771500Y-23882880I0J-200000D01*
G01*
X6771500Y-24517880D01*
G75*
G02*
X6571500Y-24717880I-200000J0D01*
G01*
G37*
G36*
G01*
X29649519Y-84805385D02*
X28350481Y-85555385D01*
G75*
G02*
X28077276Y-85482180I-100000J173205D01*
G01*
X27177276Y-83923334D01*
G75*
G02*
X27250481Y-83650129I173205J100000D01*
G01*
X28549519Y-82900129D01*
G75*
G02*
X28822724Y-82973334I100000J-173205D01*
G01*
X29722724Y-84532180D01*
G75*
G02*
X29649519Y-84805385I-173205J-100000D01*
G01*
G37*
G36*
G01*
X31349519Y-87749871D02*
X30050481Y-88499871D01*
G75*
G02*
X29777276Y-88426666I-100000J173205D01*
G01*
X28877276Y-86867820D01*
G75*
G02*
X28950481Y-86594615I173205J100000D01*
G01*
X30249519Y-85844615D01*
G75*
G02*
X30522724Y-85917820I100000J-173205D01*
G01*
X31422724Y-87476666D01*
G75*
G02*
X31349519Y-87749871I-173205J-100000D01*
G01*
G37*
D19*
X26717800Y-81232579D03*
G36*
G01*
X30332471Y-89492353D02*
X32063639Y-88492863D01*
G75*
G02*
X32336844Y-88566068I100000J-173205D01*
G01*
X33336334Y-90297236D01*
G75*
G02*
X33263129Y-90570441I-173205J-100000D01*
G01*
X31531961Y-91569931D01*
G75*
G02*
X31258756Y-91496726I-100000J173205D01*
G01*
X30259266Y-89765558D01*
G75*
G02*
X30332471Y-89492353I173205J100000D01*
G01*
G37*
D12*
X61720000Y-52900000D03*
D13*
X56500000Y-42800000D03*
G36*
G01*
X60680762Y-43880762D02*
X60680762Y-43880762D01*
G75*
G02*
X61812132Y-43880762I565685J-565685D01*
G01*
X62519238Y-44587868D01*
G75*
G02*
X62519238Y-45719238I-565685J-565685D01*
G01*
X62519238Y-45719238D01*
G75*
G02*
X61387868Y-45719238I-565685J565685D01*
G01*
X60680762Y-45012132D01*
G75*
G02*
X60680762Y-43880762I565685J565685D01*
G01*
G37*
G36*
G01*
X50480762Y-45719238D02*
X50480762Y-45719238D01*
G75*
G02*
X50480762Y-44587868I565685J565685D01*
G01*
X51187868Y-43880762D01*
G75*
G02*
X52319238Y-43880762I565685J-565685D01*
G01*
X52319238Y-43880762D01*
G75*
G02*
X52319238Y-45012132I-565685J-565685D01*
G01*
X51612132Y-45719238D01*
G75*
G02*
X50480762Y-45719238I-565685J565685D01*
G01*
G37*
D14*
X62000000Y-48700000D03*
X51000000Y-48700000D03*
G36*
G01*
X51558630Y-47291370D02*
X51558630Y-47291370D01*
G75*
G02*
X51558630Y-45947868I671751J671751D01*
G01*
X52477868Y-45028630D01*
G75*
G02*
X53821370Y-45028630I671751J-671751D01*
G01*
X53821370Y-45028630D01*
G75*
G02*
X53821370Y-46372132I-671751J-671751D01*
G01*
X52902132Y-47291370D01*
G75*
G02*
X51558630Y-47291370I-671751J671751D01*
G01*
G37*
D15*
X56500000Y-48700000D03*
D16*
X51420000Y-48700000D03*
X61580000Y-48700000D03*
G36*
G01*
X59178630Y-45028630D02*
X59178630Y-45028630D01*
G75*
G02*
X60522132Y-45028630I671751J-671751D01*
G01*
X61441370Y-45947868D01*
G75*
G02*
X61441370Y-47291370I-671751J-671751D01*
G01*
X61441370Y-47291370D01*
G75*
G02*
X60097868Y-47291370I-671751J671751D01*
G01*
X59178630Y-46372132D01*
G75*
G02*
X59178630Y-45028630I671751J671751D01*
G01*
G37*
D17*
X53960000Y-43620000D03*
X59040000Y-43620000D03*
D12*
X51280000Y-52900000D03*
X127480000Y-40000000D03*
D17*
X135240000Y-30720000D03*
X130160000Y-30720000D03*
G36*
G01*
X135378630Y-32128630D02*
X135378630Y-32128630D01*
G75*
G02*
X136722132Y-32128630I671751J-671751D01*
G01*
X137641370Y-33047868D01*
G75*
G02*
X137641370Y-34391370I-671751J-671751D01*
G01*
X137641370Y-34391370D01*
G75*
G02*
X136297868Y-34391370I-671751J671751D01*
G01*
X135378630Y-33472132D01*
G75*
G02*
X135378630Y-32128630I671751J671751D01*
G01*
G37*
D16*
X137780000Y-35800000D03*
X127620000Y-35800000D03*
D15*
X132700000Y-35800000D03*
G36*
G01*
X127758630Y-34391370D02*
X127758630Y-34391370D01*
G75*
G02*
X127758630Y-33047868I671751J671751D01*
G01*
X128677868Y-32128630D01*
G75*
G02*
X130021370Y-32128630I671751J-671751D01*
G01*
X130021370Y-32128630D01*
G75*
G02*
X130021370Y-33472132I-671751J-671751D01*
G01*
X129102132Y-34391370D01*
G75*
G02*
X127758630Y-34391370I-671751J671751D01*
G01*
G37*
D14*
X127200000Y-35800000D03*
X138200000Y-35800000D03*
G36*
G01*
X126680762Y-32819238D02*
X126680762Y-32819238D01*
G75*
G02*
X126680762Y-31687868I565685J565685D01*
G01*
X127387868Y-30980762D01*
G75*
G02*
X128519238Y-30980762I565685J-565685D01*
G01*
X128519238Y-30980762D01*
G75*
G02*
X128519238Y-32112132I-565685J-565685D01*
G01*
X127812132Y-32819238D01*
G75*
G02*
X126680762Y-32819238I-565685J565685D01*
G01*
G37*
G36*
G01*
X136880762Y-30980762D02*
X136880762Y-30980762D01*
G75*
G02*
X138012132Y-30980762I565685J-565685D01*
G01*
X138719238Y-31687868D01*
G75*
G02*
X138719238Y-32819238I-565685J-565685D01*
G01*
X138719238Y-32819238D01*
G75*
G02*
X137587868Y-32819238I-565685J565685D01*
G01*
X136880762Y-32112132D01*
G75*
G02*
X136880762Y-30980762I565685J565685D01*
G01*
G37*
D13*
X132700000Y-29900000D03*
D12*
X137920000Y-40000000D03*
X51280000Y-72000000D03*
D17*
X59040000Y-62720000D03*
X53960000Y-62720000D03*
G36*
G01*
X59178630Y-64128630D02*
X59178630Y-64128630D01*
G75*
G02*
X60522132Y-64128630I671751J-671751D01*
G01*
X61441370Y-65047868D01*
G75*
G02*
X61441370Y-66391370I-671751J-671751D01*
G01*
X61441370Y-66391370D01*
G75*
G02*
X60097868Y-66391370I-671751J671751D01*
G01*
X59178630Y-65472132D01*
G75*
G02*
X59178630Y-64128630I671751J671751D01*
G01*
G37*
D16*
X61580000Y-67800000D03*
X51420000Y-67800000D03*
D15*
X56500000Y-67800000D03*
G36*
G01*
X51558630Y-66391370D02*
X51558630Y-66391370D01*
G75*
G02*
X51558630Y-65047868I671751J671751D01*
G01*
X52477868Y-64128630D01*
G75*
G02*
X53821370Y-64128630I671751J-671751D01*
G01*
X53821370Y-64128630D01*
G75*
G02*
X53821370Y-65472132I-671751J-671751D01*
G01*
X52902132Y-66391370D01*
G75*
G02*
X51558630Y-66391370I-671751J671751D01*
G01*
G37*
D14*
X51000000Y-67800000D03*
X62000000Y-67800000D03*
G36*
G01*
X50480762Y-64819238D02*
X50480762Y-64819238D01*
G75*
G02*
X50480762Y-63687868I565685J565685D01*
G01*
X51187868Y-62980762D01*
G75*
G02*
X52319238Y-62980762I565685J-565685D01*
G01*
X52319238Y-62980762D01*
G75*
G02*
X52319238Y-64112132I-565685J-565685D01*
G01*
X51612132Y-64819238D01*
G75*
G02*
X50480762Y-64819238I-565685J565685D01*
G01*
G37*
G36*
G01*
X60680762Y-62980762D02*
X60680762Y-62980762D01*
G75*
G02*
X61812132Y-62980762I565685J-565685D01*
G01*
X62519238Y-63687868D01*
G75*
G02*
X62519238Y-64819238I-565685J-565685D01*
G01*
X62519238Y-64819238D01*
G75*
G02*
X61387868Y-64819238I-565685J565685D01*
G01*
X60680762Y-64112132D01*
G75*
G02*
X60680762Y-62980762I565685J565685D01*
G01*
G37*
D13*
X56500000Y-61900000D03*
D12*
X61720000Y-72000000D03*
X137920000Y-59200000D03*
D13*
X132700000Y-49100000D03*
G36*
G01*
X136880762Y-50180762D02*
X136880762Y-50180762D01*
G75*
G02*
X138012132Y-50180762I565685J-565685D01*
G01*
X138719238Y-50887868D01*
G75*
G02*
X138719238Y-52019238I-565685J-565685D01*
G01*
X138719238Y-52019238D01*
G75*
G02*
X137587868Y-52019238I-565685J565685D01*
G01*
X136880762Y-51312132D01*
G75*
G02*
X136880762Y-50180762I565685J565685D01*
G01*
G37*
G36*
G01*
X126680762Y-52019238D02*
X126680762Y-52019238D01*
G75*
G02*
X126680762Y-50887868I565685J565685D01*
G01*
X127387868Y-50180762D01*
G75*
G02*
X128519238Y-50180762I565685J-565685D01*
G01*
X128519238Y-50180762D01*
G75*
G02*
X128519238Y-51312132I-565685J-565685D01*
G01*
X127812132Y-52019238D01*
G75*
G02*
X126680762Y-52019238I-565685J565685D01*
G01*
G37*
D14*
X138200000Y-55000000D03*
X127200000Y-55000000D03*
G36*
G01*
X127758630Y-53591370D02*
X127758630Y-53591370D01*
G75*
G02*
X127758630Y-52247868I671751J671751D01*
G01*
X128677868Y-51328630D01*
G75*
G02*
X130021370Y-51328630I671751J-671751D01*
G01*
X130021370Y-51328630D01*
G75*
G02*
X130021370Y-52672132I-671751J-671751D01*
G01*
X129102132Y-53591370D01*
G75*
G02*
X127758630Y-53591370I-671751J671751D01*
G01*
G37*
D15*
X132700000Y-55000000D03*
D16*
X127620000Y-55000000D03*
X137780000Y-55000000D03*
G36*
G01*
X135378630Y-51328630D02*
X135378630Y-51328630D01*
G75*
G02*
X136722132Y-51328630I671751J-671751D01*
G01*
X137641370Y-52247868D01*
G75*
G02*
X137641370Y-53591370I-671751J-671751D01*
G01*
X137641370Y-53591370D01*
G75*
G02*
X136297868Y-53591370I-671751J671751D01*
G01*
X135378630Y-52672132D01*
G75*
G02*
X135378630Y-51328630I671751J671751D01*
G01*
G37*
D17*
X130160000Y-49920000D03*
X135240000Y-49920000D03*
D12*
X127480000Y-59200000D03*
G36*
G01*
X123998000Y-73525000D02*
X122498000Y-73525000D01*
G75*
G02*
X122298000Y-73325000I0J200000D01*
G01*
X122298000Y-71525000D01*
G75*
G02*
X122498000Y-71325000I200000J0D01*
G01*
X123998000Y-71325000D01*
G75*
G02*
X124198000Y-71525000I0J-200000D01*
G01*
X124198000Y-73325000D01*
G75*
G02*
X123998000Y-73525000I-200000J0D01*
G01*
G37*
G36*
G01*
X123998000Y-76925000D02*
X122498000Y-76925000D01*
G75*
G02*
X122298000Y-76725000I0J200000D01*
G01*
X122298000Y-74925000D01*
G75*
G02*
X122498000Y-74725000I200000J0D01*
G01*
X123998000Y-74725000D01*
G75*
G02*
X124198000Y-74925000I0J-200000D01*
G01*
X124198000Y-76725000D01*
G75*
G02*
X123998000Y-76925000I-200000J0D01*
G01*
G37*
D19*
X123250540Y-68965000D03*
G36*
G01*
X122251050Y-77925510D02*
X124250030Y-77925510D01*
G75*
G02*
X124450030Y-78125510I0J-200000D01*
G01*
X124450030Y-80124490D01*
G75*
G02*
X124250030Y-80324490I-200000J0D01*
G01*
X122251050Y-80324490D01*
G75*
G02*
X122051050Y-80124490I0J200000D01*
G01*
X122051050Y-78125510D01*
G75*
G02*
X122251050Y-77925510I200000J0D01*
G01*
G37*
D12*
X70380000Y-32500000D03*
D17*
X78140000Y-23220000D03*
X73060000Y-23220000D03*
G36*
G01*
X78278630Y-24628630D02*
X78278630Y-24628630D01*
G75*
G02*
X79622132Y-24628630I671751J-671751D01*
G01*
X80541370Y-25547868D01*
G75*
G02*
X80541370Y-26891370I-671751J-671751D01*
G01*
X80541370Y-26891370D01*
G75*
G02*
X79197868Y-26891370I-671751J671751D01*
G01*
X78278630Y-25972132D01*
G75*
G02*
X78278630Y-24628630I671751J671751D01*
G01*
G37*
D16*
X80680000Y-28300000D03*
X70520000Y-28300000D03*
D15*
X75600000Y-28300000D03*
G36*
G01*
X70658630Y-26891370D02*
X70658630Y-26891370D01*
G75*
G02*
X70658630Y-25547868I671751J671751D01*
G01*
X71577868Y-24628630D01*
G75*
G02*
X72921370Y-24628630I671751J-671751D01*
G01*
X72921370Y-24628630D01*
G75*
G02*
X72921370Y-25972132I-671751J-671751D01*
G01*
X72002132Y-26891370D01*
G75*
G02*
X70658630Y-26891370I-671751J671751D01*
G01*
G37*
D14*
X70100000Y-28300000D03*
X81100000Y-28300000D03*
G36*
G01*
X69580762Y-25319238D02*
X69580762Y-25319238D01*
G75*
G02*
X69580762Y-24187868I565685J565685D01*
G01*
X70287868Y-23480762D01*
G75*
G02*
X71419238Y-23480762I565685J-565685D01*
G01*
X71419238Y-23480762D01*
G75*
G02*
X71419238Y-24612132I-565685J-565685D01*
G01*
X70712132Y-25319238D01*
G75*
G02*
X69580762Y-25319238I-565685J565685D01*
G01*
G37*
G36*
G01*
X79780762Y-23480762D02*
X79780762Y-23480762D01*
G75*
G02*
X80912132Y-23480762I565685J-565685D01*
G01*
X81619238Y-24187868D01*
G75*
G02*
X81619238Y-25319238I-565685J-565685D01*
G01*
X81619238Y-25319238D01*
G75*
G02*
X80487868Y-25319238I-565685J565685D01*
G01*
X79780762Y-24612132D01*
G75*
G02*
X79780762Y-23480762I565685J565685D01*
G01*
G37*
D13*
X75600000Y-22400000D03*
D12*
X80820000Y-32500000D03*
X99820000Y-72000000D03*
D13*
X94600000Y-61900000D03*
G36*
G01*
X98780762Y-62980762D02*
X98780762Y-62980762D01*
G75*
G02*
X99912132Y-62980762I565685J-565685D01*
G01*
X100619238Y-63687868D01*
G75*
G02*
X100619238Y-64819238I-565685J-565685D01*
G01*
X100619238Y-64819238D01*
G75*
G02*
X99487868Y-64819238I-565685J565685D01*
G01*
X98780762Y-64112132D01*
G75*
G02*
X98780762Y-62980762I565685J565685D01*
G01*
G37*
G36*
G01*
X88580762Y-64819238D02*
X88580762Y-64819238D01*
G75*
G02*
X88580762Y-63687868I565685J565685D01*
G01*
X89287868Y-62980762D01*
G75*
G02*
X90419238Y-62980762I565685J-565685D01*
G01*
X90419238Y-62980762D01*
G75*
G02*
X90419238Y-64112132I-565685J-565685D01*
G01*
X89712132Y-64819238D01*
G75*
G02*
X88580762Y-64819238I-565685J565685D01*
G01*
G37*
D14*
X100100000Y-67800000D03*
X89100000Y-67800000D03*
G36*
G01*
X89658630Y-66391370D02*
X89658630Y-66391370D01*
G75*
G02*
X89658630Y-65047868I671751J671751D01*
G01*
X90577868Y-64128630D01*
G75*
G02*
X91921370Y-64128630I671751J-671751D01*
G01*
X91921370Y-64128630D01*
G75*
G02*
X91921370Y-65472132I-671751J-671751D01*
G01*
X91002132Y-66391370D01*
G75*
G02*
X89658630Y-66391370I-671751J671751D01*
G01*
G37*
D15*
X94600000Y-67800000D03*
D16*
X89520000Y-67800000D03*
X99680000Y-67800000D03*
G36*
G01*
X97278630Y-64128630D02*
X97278630Y-64128630D01*
G75*
G02*
X98622132Y-64128630I671751J-671751D01*
G01*
X99541370Y-65047868D01*
G75*
G02*
X99541370Y-66391370I-671751J-671751D01*
G01*
X99541370Y-66391370D01*
G75*
G02*
X98197868Y-66391370I-671751J671751D01*
G01*
X97278630Y-65472132D01*
G75*
G02*
X97278630Y-64128630I671751J671751D01*
G01*
G37*
D17*
X92060000Y-62720000D03*
X97140000Y-62720000D03*
D12*
X89380000Y-72000000D03*
X70380000Y-70600000D03*
D17*
X78140000Y-61320000D03*
X73060000Y-61320000D03*
G36*
G01*
X78278630Y-62728630D02*
X78278630Y-62728630D01*
G75*
G02*
X79622132Y-62728630I671751J-671751D01*
G01*
X80541370Y-63647868D01*
G75*
G02*
X80541370Y-64991370I-671751J-671751D01*
G01*
X80541370Y-64991370D01*
G75*
G02*
X79197868Y-64991370I-671751J671751D01*
G01*
X78278630Y-64072132D01*
G75*
G02*
X78278630Y-62728630I671751J671751D01*
G01*
G37*
D16*
X80680000Y-66400000D03*
X70520000Y-66400000D03*
D15*
X75600000Y-66400000D03*
G36*
G01*
X70658630Y-64991370D02*
X70658630Y-64991370D01*
G75*
G02*
X70658630Y-63647868I671751J671751D01*
G01*
X71577868Y-62728630D01*
G75*
G02*
X72921370Y-62728630I671751J-671751D01*
G01*
X72921370Y-62728630D01*
G75*
G02*
X72921370Y-64072132I-671751J-671751D01*
G01*
X72002132Y-64991370D01*
G75*
G02*
X70658630Y-64991370I-671751J671751D01*
G01*
G37*
D14*
X70100000Y-66400000D03*
X81100000Y-66400000D03*
G36*
G01*
X69580762Y-63419238D02*
X69580762Y-63419238D01*
G75*
G02*
X69580762Y-62287868I565685J565685D01*
G01*
X70287868Y-61580762D01*
G75*
G02*
X71419238Y-61580762I565685J-565685D01*
G01*
X71419238Y-61580762D01*
G75*
G02*
X71419238Y-62712132I-565685J-565685D01*
G01*
X70712132Y-63419238D01*
G75*
G02*
X69580762Y-63419238I-565685J565685D01*
G01*
G37*
G36*
G01*
X79780762Y-61580762D02*
X79780762Y-61580762D01*
G75*
G02*
X80912132Y-61580762I565685J-565685D01*
G01*
X81619238Y-62287868D01*
G75*
G02*
X81619238Y-63419238I-565685J-565685D01*
G01*
X81619238Y-63419238D01*
G75*
G02*
X80487868Y-63419238I-565685J565685D01*
G01*
X79780762Y-62712132D01*
G75*
G02*
X79780762Y-61580762I565685J565685D01*
G01*
G37*
D13*
X75600000Y-60500000D03*
D12*
X80820000Y-70600000D03*
X51280000Y-14800000D03*
D17*
X59040000Y-5520000D03*
X53960000Y-5520000D03*
G36*
G01*
X59178630Y-6928630D02*
X59178630Y-6928630D01*
G75*
G02*
X60522132Y-6928630I671751J-671751D01*
G01*
X61441370Y-7847868D01*
G75*
G02*
X61441370Y-9191370I-671751J-671751D01*
G01*
X61441370Y-9191370D01*
G75*
G02*
X60097868Y-9191370I-671751J671751D01*
G01*
X59178630Y-8272132D01*
G75*
G02*
X59178630Y-6928630I671751J671751D01*
G01*
G37*
D16*
X61580000Y-10600000D03*
X51420000Y-10600000D03*
D15*
X56500000Y-10600000D03*
G36*
G01*
X51558630Y-9191370D02*
X51558630Y-9191370D01*
G75*
G02*
X51558630Y-7847868I671751J671751D01*
G01*
X52477868Y-6928630D01*
G75*
G02*
X53821370Y-6928630I671751J-671751D01*
G01*
X53821370Y-6928630D01*
G75*
G02*
X53821370Y-8272132I-671751J-671751D01*
G01*
X52902132Y-9191370D01*
G75*
G02*
X51558630Y-9191370I-671751J671751D01*
G01*
G37*
D14*
X51000000Y-10600000D03*
X62000000Y-10600000D03*
G36*
G01*
X50480762Y-7619238D02*
X50480762Y-7619238D01*
G75*
G02*
X50480762Y-6487868I565685J565685D01*
G01*
X51187868Y-5780762D01*
G75*
G02*
X52319238Y-5780762I565685J-565685D01*
G01*
X52319238Y-5780762D01*
G75*
G02*
X52319238Y-6912132I-565685J-565685D01*
G01*
X51612132Y-7619238D01*
G75*
G02*
X50480762Y-7619238I-565685J565685D01*
G01*
G37*
G36*
G01*
X60680762Y-5780762D02*
X60680762Y-5780762D01*
G75*
G02*
X61812132Y-5780762I565685J-565685D01*
G01*
X62519238Y-6487868D01*
G75*
G02*
X62519238Y-7619238I-565685J-565685D01*
G01*
X62519238Y-7619238D01*
G75*
G02*
X61387868Y-7619238I-565685J565685D01*
G01*
X60680762Y-6912132D01*
G75*
G02*
X60680762Y-5780762I565685J565685D01*
G01*
G37*
D13*
X56500000Y-4700000D03*
D12*
X61720000Y-14800000D03*
X118920000Y-19600000D03*
D13*
X113700000Y-9500000D03*
G36*
G01*
X117880762Y-10580762D02*
X117880762Y-10580762D01*
G75*
G02*
X119012132Y-10580762I565685J-565685D01*
G01*
X119719238Y-11287868D01*
G75*
G02*
X119719238Y-12419238I-565685J-565685D01*
G01*
X119719238Y-12419238D01*
G75*
G02*
X118587868Y-12419238I-565685J565685D01*
G01*
X117880762Y-11712132D01*
G75*
G02*
X117880762Y-10580762I565685J565685D01*
G01*
G37*
G36*
G01*
X107680762Y-12419238D02*
X107680762Y-12419238D01*
G75*
G02*
X107680762Y-11287868I565685J565685D01*
G01*
X108387868Y-10580762D01*
G75*
G02*
X109519238Y-10580762I565685J-565685D01*
G01*
X109519238Y-10580762D01*
G75*
G02*
X109519238Y-11712132I-565685J-565685D01*
G01*
X108812132Y-12419238D01*
G75*
G02*
X107680762Y-12419238I-565685J565685D01*
G01*
G37*
D14*
X119200000Y-15400000D03*
X108200000Y-15400000D03*
G36*
G01*
X108758630Y-13991370D02*
X108758630Y-13991370D01*
G75*
G02*
X108758630Y-12647868I671751J671751D01*
G01*
X109677868Y-11728630D01*
G75*
G02*
X111021370Y-11728630I671751J-671751D01*
G01*
X111021370Y-11728630D01*
G75*
G02*
X111021370Y-13072132I-671751J-671751D01*
G01*
X110102132Y-13991370D01*
G75*
G02*
X108758630Y-13991370I-671751J671751D01*
G01*
G37*
D15*
X113700000Y-15400000D03*
D16*
X108620000Y-15400000D03*
X118780000Y-15400000D03*
G36*
G01*
X116378630Y-11728630D02*
X116378630Y-11728630D01*
G75*
G02*
X117722132Y-11728630I671751J-671751D01*
G01*
X118641370Y-12647868D01*
G75*
G02*
X118641370Y-13991370I-671751J-671751D01*
G01*
X118641370Y-13991370D01*
G75*
G02*
X117297868Y-13991370I-671751J671751D01*
G01*
X116378630Y-13072132D01*
G75*
G02*
X116378630Y-11728630I671751J671751D01*
G01*
G37*
D17*
X111160000Y-10320000D03*
X116240000Y-10320000D03*
D12*
X108480000Y-19600000D03*
X13180000Y-64700000D03*
D17*
X20940000Y-55420000D03*
X15860000Y-55420000D03*
G36*
G01*
X21078630Y-56828630D02*
X21078630Y-56828630D01*
G75*
G02*
X22422132Y-56828630I671751J-671751D01*
G01*
X23341370Y-57747868D01*
G75*
G02*
X23341370Y-59091370I-671751J-671751D01*
G01*
X23341370Y-59091370D01*
G75*
G02*
X21997868Y-59091370I-671751J671751D01*
G01*
X21078630Y-58172132D01*
G75*
G02*
X21078630Y-56828630I671751J671751D01*
G01*
G37*
D16*
X23480000Y-60500000D03*
X13320000Y-60500000D03*
D15*
X18400000Y-60500000D03*
G36*
G01*
X13458630Y-59091370D02*
X13458630Y-59091370D01*
G75*
G02*
X13458630Y-57747868I671751J671751D01*
G01*
X14377868Y-56828630D01*
G75*
G02*
X15721370Y-56828630I671751J-671751D01*
G01*
X15721370Y-56828630D01*
G75*
G02*
X15721370Y-58172132I-671751J-671751D01*
G01*
X14802132Y-59091370D01*
G75*
G02*
X13458630Y-59091370I-671751J671751D01*
G01*
G37*
D14*
X12900000Y-60500000D03*
X23900000Y-60500000D03*
G36*
G01*
X12380762Y-57519238D02*
X12380762Y-57519238D01*
G75*
G02*
X12380762Y-56387868I565685J565685D01*
G01*
X13087868Y-55680762D01*
G75*
G02*
X14219238Y-55680762I565685J-565685D01*
G01*
X14219238Y-55680762D01*
G75*
G02*
X14219238Y-56812132I-565685J-565685D01*
G01*
X13512132Y-57519238D01*
G75*
G02*
X12380762Y-57519238I-565685J565685D01*
G01*
G37*
G36*
G01*
X22580762Y-55680762D02*
X22580762Y-55680762D01*
G75*
G02*
X23712132Y-55680762I565685J-565685D01*
G01*
X24419238Y-56387868D01*
G75*
G02*
X24419238Y-57519238I-565685J-565685D01*
G01*
X24419238Y-57519238D01*
G75*
G02*
X23287868Y-57519238I-565685J565685D01*
G01*
X22580762Y-56812132D01*
G75*
G02*
X22580762Y-55680762I565685J565685D01*
G01*
G37*
D13*
X18400000Y-54600000D03*
D12*
X23620000Y-64700000D03*
X15752693Y-87579347D03*
D17*
X27669409Y-89659705D03*
X25129409Y-85260295D03*
G36*
G01*
X26518815Y-90484075D02*
X26518815Y-90484075D01*
G75*
G02*
X27190567Y-91647583I-245878J-917630D01*
G01*
X26854103Y-92903287D01*
G75*
G02*
X25690595Y-93575039I-917630J245878D01*
G01*
X25690595Y-93575039D01*
G75*
G02*
X25018843Y-92411531I245878J917630D01*
G01*
X25355307Y-91155827D01*
G75*
G02*
X26518815Y-90484075I917630J-245878D01*
G01*
G37*
D16*
X24540000Y-94399409D03*
X19460000Y-85600591D03*
D15*
X22000000Y-90000000D03*
G36*
G01*
X20749223Y-85016333D02*
X20749223Y-85016333D01*
G75*
G02*
X21912731Y-84344581I917630J-245878D01*
G01*
X23168435Y-84681045D01*
G75*
G02*
X23840187Y-85844553I-245878J-917630D01*
G01*
X23840187Y-85844553D01*
G75*
G02*
X22676679Y-86516305I-917630J245878D01*
G01*
X21420975Y-86179841D01*
G75*
G02*
X20749223Y-85016333I245878J917630D01*
G01*
G37*
D14*
X19250000Y-85236860D03*
X24750000Y-94763140D03*
G36*
G01*
X21571795Y-83296805D02*
X21571795Y-83296805D01*
G75*
G02*
X22551591Y-82731119I772741J-207055D01*
G01*
X23517517Y-82989939D01*
G75*
G02*
X24083203Y-83969735I-207055J-772741D01*
G01*
X24083203Y-83969735D01*
G75*
G02*
X23103407Y-84535421I-772741J207055D01*
G01*
X22137481Y-84276601D01*
G75*
G02*
X21571795Y-83296805I207055J772741D01*
G01*
G37*
G36*
G01*
X28263964Y-91211026D02*
X28263964Y-91211026D01*
G75*
G02*
X28829650Y-92190822I-207055J-772741D01*
G01*
X28570830Y-93156748D01*
G75*
G02*
X27591034Y-93722434I-772741J207055D01*
G01*
X27591034Y-93722434D01*
G75*
G02*
X27025348Y-92742638I207055J772741D01*
G01*
X27284168Y-91776712D01*
G75*
G02*
X28263964Y-91211026I772741J-207055D01*
G01*
G37*
G36*
G01*
X25853813Y-87775000D02*
X25853813Y-87775000D01*
G75*
G02*
X26201537Y-86477276I822724J475000D01*
G01*
X27067563Y-85977276D01*
G75*
G02*
X28365287Y-86325000I475000J-822724D01*
G01*
X28365287Y-86325000D01*
G75*
G02*
X28017563Y-87622724I-822724J-475000D01*
G01*
X27151537Y-88122724D01*
G75*
G02*
X25853813Y-87775000I-475000J822724D01*
G01*
G37*
D12*
X20972693Y-96620653D03*
X41780000Y-93200000D03*
D17*
X49540000Y-83920000D03*
X44460000Y-83920000D03*
G36*
G01*
X49678630Y-85328630D02*
X49678630Y-85328630D01*
G75*
G02*
X51022132Y-85328630I671751J-671751D01*
G01*
X51941370Y-86247868D01*
G75*
G02*
X51941370Y-87591370I-671751J-671751D01*
G01*
X51941370Y-87591370D01*
G75*
G02*
X50597868Y-87591370I-671751J671751D01*
G01*
X49678630Y-86672132D01*
G75*
G02*
X49678630Y-85328630I671751J671751D01*
G01*
G37*
D16*
X52080000Y-89000000D03*
X41920000Y-89000000D03*
D15*
X47000000Y-89000000D03*
G36*
G01*
X42058630Y-87591370D02*
X42058630Y-87591370D01*
G75*
G02*
X42058630Y-86247868I671751J671751D01*
G01*
X42977868Y-85328630D01*
G75*
G02*
X44321370Y-85328630I671751J-671751D01*
G01*
X44321370Y-85328630D01*
G75*
G02*
X44321370Y-86672132I-671751J-671751D01*
G01*
X43402132Y-87591370D01*
G75*
G02*
X42058630Y-87591370I-671751J671751D01*
G01*
G37*
D14*
X41500000Y-89000000D03*
X52500000Y-89000000D03*
G36*
G01*
X40980762Y-86019238D02*
X40980762Y-86019238D01*
G75*
G02*
X40980762Y-84887868I565685J565685D01*
G01*
X41687868Y-84180762D01*
G75*
G02*
X42819238Y-84180762I565685J-565685D01*
G01*
X42819238Y-84180762D01*
G75*
G02*
X42819238Y-85312132I-565685J-565685D01*
G01*
X42112132Y-86019238D01*
G75*
G02*
X40980762Y-86019238I-565685J565685D01*
G01*
G37*
G36*
G01*
X51180762Y-84180762D02*
X51180762Y-84180762D01*
G75*
G02*
X52312132Y-84180762I565685J-565685D01*
G01*
X53019238Y-84887868D01*
G75*
G02*
X53019238Y-86019238I-565685J-565685D01*
G01*
X53019238Y-86019238D01*
G75*
G02*
X51887868Y-86019238I-565685J565685D01*
G01*
X51180762Y-85312132D01*
G75*
G02*
X51180762Y-84180762I565685J565685D01*
G01*
G37*
D13*
X47000000Y-83100000D03*
D12*
X52220000Y-93200000D03*
X137970000Y-78200000D03*
D13*
X132750000Y-68100000D03*
G36*
G01*
X136930762Y-69180762D02*
X136930762Y-69180762D01*
G75*
G02*
X138062132Y-69180762I565685J-565685D01*
G01*
X138769238Y-69887868D01*
G75*
G02*
X138769238Y-71019238I-565685J-565685D01*
G01*
X138769238Y-71019238D01*
G75*
G02*
X137637868Y-71019238I-565685J565685D01*
G01*
X136930762Y-70312132D01*
G75*
G02*
X136930762Y-69180762I565685J565685D01*
G01*
G37*
G36*
G01*
X126730762Y-71019238D02*
X126730762Y-71019238D01*
G75*
G02*
X126730762Y-69887868I565685J565685D01*
G01*
X127437868Y-69180762D01*
G75*
G02*
X128569238Y-69180762I565685J-565685D01*
G01*
X128569238Y-69180762D01*
G75*
G02*
X128569238Y-70312132I-565685J-565685D01*
G01*
X127862132Y-71019238D01*
G75*
G02*
X126730762Y-71019238I-565685J565685D01*
G01*
G37*
D14*
X138250000Y-74000000D03*
X127250000Y-74000000D03*
G36*
G01*
X127808630Y-72591370D02*
X127808630Y-72591370D01*
G75*
G02*
X127808630Y-71247868I671751J671751D01*
G01*
X128727868Y-70328630D01*
G75*
G02*
X130071370Y-70328630I671751J-671751D01*
G01*
X130071370Y-70328630D01*
G75*
G02*
X130071370Y-71672132I-671751J-671751D01*
G01*
X129152132Y-72591370D01*
G75*
G02*
X127808630Y-72591370I-671751J671751D01*
G01*
G37*
D15*
X132750000Y-74000000D03*
D16*
X127670000Y-74000000D03*
X137830000Y-74000000D03*
G36*
G01*
X135428630Y-70328630D02*
X135428630Y-70328630D01*
G75*
G02*
X136772132Y-70328630I671751J-671751D01*
G01*
X137691370Y-71247868D01*
G75*
G02*
X137691370Y-72591370I-671751J-671751D01*
G01*
X137691370Y-72591370D01*
G75*
G02*
X136347868Y-72591370I-671751J671751D01*
G01*
X135428630Y-71672132D01*
G75*
G02*
X135428630Y-70328630I671751J671751D01*
G01*
G37*
D17*
X130210000Y-68920000D03*
X135290000Y-68920000D03*
D12*
X127530000Y-78200000D03*
X42720000Y-74300000D03*
D13*
X37500000Y-64200000D03*
G36*
G01*
X41680762Y-65280762D02*
X41680762Y-65280762D01*
G75*
G02*
X42812132Y-65280762I565685J-565685D01*
G01*
X43519238Y-65987868D01*
G75*
G02*
X43519238Y-67119238I-565685J-565685D01*
G01*
X43519238Y-67119238D01*
G75*
G02*
X42387868Y-67119238I-565685J565685D01*
G01*
X41680762Y-66412132D01*
G75*
G02*
X41680762Y-65280762I565685J565685D01*
G01*
G37*
G36*
G01*
X31480762Y-67119238D02*
X31480762Y-67119238D01*
G75*
G02*
X31480762Y-65987868I565685J565685D01*
G01*
X32187868Y-65280762D01*
G75*
G02*
X33319238Y-65280762I565685J-565685D01*
G01*
X33319238Y-65280762D01*
G75*
G02*
X33319238Y-66412132I-565685J-565685D01*
G01*
X32612132Y-67119238D01*
G75*
G02*
X31480762Y-67119238I-565685J565685D01*
G01*
G37*
D14*
X43000000Y-70100000D03*
X32000000Y-70100000D03*
G36*
G01*
X32558630Y-68691370D02*
X32558630Y-68691370D01*
G75*
G02*
X32558630Y-67347868I671751J671751D01*
G01*
X33477868Y-66428630D01*
G75*
G02*
X34821370Y-66428630I671751J-671751D01*
G01*
X34821370Y-66428630D01*
G75*
G02*
X34821370Y-67772132I-671751J-671751D01*
G01*
X33902132Y-68691370D01*
G75*
G02*
X32558630Y-68691370I-671751J671751D01*
G01*
G37*
D15*
X37500000Y-70100000D03*
D16*
X32420000Y-70100000D03*
X42580000Y-70100000D03*
G36*
G01*
X40178630Y-66428630D02*
X40178630Y-66428630D01*
G75*
G02*
X41522132Y-66428630I671751J-671751D01*
G01*
X42441370Y-67347868D01*
G75*
G02*
X42441370Y-68691370I-671751J-671751D01*
G01*
X42441370Y-68691370D01*
G75*
G02*
X41097868Y-68691370I-671751J671751D01*
G01*
X40178630Y-67772132D01*
G75*
G02*
X40178630Y-66428630I671751J671751D01*
G01*
G37*
D17*
X34960000Y-65020000D03*
X40040000Y-65020000D03*
D12*
X32280000Y-74300000D03*
X108480000Y-57700000D03*
D17*
X116240000Y-48420000D03*
X111160000Y-48420000D03*
G36*
G01*
X116378630Y-49828630D02*
X116378630Y-49828630D01*
G75*
G02*
X117722132Y-49828630I671751J-671751D01*
G01*
X118641370Y-50747868D01*
G75*
G02*
X118641370Y-52091370I-671751J-671751D01*
G01*
X118641370Y-52091370D01*
G75*
G02*
X117297868Y-52091370I-671751J671751D01*
G01*
X116378630Y-51172132D01*
G75*
G02*
X116378630Y-49828630I671751J671751D01*
G01*
G37*
D16*
X118780000Y-53500000D03*
X108620000Y-53500000D03*
D15*
X113700000Y-53500000D03*
G36*
G01*
X108758630Y-52091370D02*
X108758630Y-52091370D01*
G75*
G02*
X108758630Y-50747868I671751J671751D01*
G01*
X109677868Y-49828630D01*
G75*
G02*
X111021370Y-49828630I671751J-671751D01*
G01*
X111021370Y-49828630D01*
G75*
G02*
X111021370Y-51172132I-671751J-671751D01*
G01*
X110102132Y-52091370D01*
G75*
G02*
X108758630Y-52091370I-671751J671751D01*
G01*
G37*
D14*
X108200000Y-53500000D03*
X119200000Y-53500000D03*
G36*
G01*
X107680762Y-50519238D02*
X107680762Y-50519238D01*
G75*
G02*
X107680762Y-49387868I565685J565685D01*
G01*
X108387868Y-48680762D01*
G75*
G02*
X109519238Y-48680762I565685J-565685D01*
G01*
X109519238Y-48680762D01*
G75*
G02*
X109519238Y-49812132I-565685J-565685D01*
G01*
X108812132Y-50519238D01*
G75*
G02*
X107680762Y-50519238I-565685J565685D01*
G01*
G37*
G36*
G01*
X117880762Y-48680762D02*
X117880762Y-48680762D01*
G75*
G02*
X119012132Y-48680762I565685J-565685D01*
G01*
X119719238Y-49387868D01*
G75*
G02*
X119719238Y-50519238I-565685J-565685D01*
G01*
X119719238Y-50519238D01*
G75*
G02*
X118587868Y-50519238I-565685J565685D01*
G01*
X117880762Y-49812132D01*
G75*
G02*
X117880762Y-48680762I565685J565685D01*
G01*
G37*
D13*
X113700000Y-47600000D03*
D12*
X118920000Y-57700000D03*
X89380000Y-14800000D03*
D17*
X97140000Y-5520000D03*
X92060000Y-5520000D03*
G36*
G01*
X97278630Y-6928630D02*
X97278630Y-6928630D01*
G75*
G02*
X98622132Y-6928630I671751J-671751D01*
G01*
X99541370Y-7847868D01*
G75*
G02*
X99541370Y-9191370I-671751J-671751D01*
G01*
X99541370Y-9191370D01*
G75*
G02*
X98197868Y-9191370I-671751J671751D01*
G01*
X97278630Y-8272132D01*
G75*
G02*
X97278630Y-6928630I671751J671751D01*
G01*
G37*
D16*
X99680000Y-10600000D03*
X89520000Y-10600000D03*
D15*
X94600000Y-10600000D03*
G36*
G01*
X89658630Y-9191370D02*
X89658630Y-9191370D01*
G75*
G02*
X89658630Y-7847868I671751J671751D01*
G01*
X90577868Y-6928630D01*
G75*
G02*
X91921370Y-6928630I671751J-671751D01*
G01*
X91921370Y-6928630D01*
G75*
G02*
X91921370Y-8272132I-671751J-671751D01*
G01*
X91002132Y-9191370D01*
G75*
G02*
X89658630Y-9191370I-671751J671751D01*
G01*
G37*
D14*
X89100000Y-10600000D03*
X100100000Y-10600000D03*
G36*
G01*
X88580762Y-7619238D02*
X88580762Y-7619238D01*
G75*
G02*
X88580762Y-6487868I565685J565685D01*
G01*
X89287868Y-5780762D01*
G75*
G02*
X90419238Y-5780762I565685J-565685D01*
G01*
X90419238Y-5780762D01*
G75*
G02*
X90419238Y-6912132I-565685J-565685D01*
G01*
X89712132Y-7619238D01*
G75*
G02*
X88580762Y-7619238I-565685J565685D01*
G01*
G37*
G36*
G01*
X98780762Y-5780762D02*
X98780762Y-5780762D01*
G75*
G02*
X99912132Y-5780762I565685J-565685D01*
G01*
X100619238Y-6487868D01*
G75*
G02*
X100619238Y-7619238I-565685J-565685D01*
G01*
X100619238Y-7619238D01*
G75*
G02*
X99487868Y-7619238I-565685J565685D01*
G01*
X98780762Y-6912132D01*
G75*
G02*
X98780762Y-5780762I565685J565685D01*
G01*
G37*
D13*
X94600000Y-4700000D03*
D12*
X99820000Y-14800000D03*
G36*
G01*
X86000000Y-9900000D02*
X84500000Y-9900000D01*
G75*
G02*
X84300000Y-9700000I0J200000D01*
G01*
X84300000Y-7900000D01*
G75*
G02*
X84500000Y-7700000I200000J0D01*
G01*
X86000000Y-7700000D01*
G75*
G02*
X86200000Y-7900000I0J-200000D01*
G01*
X86200000Y-9700000D01*
G75*
G02*
X86000000Y-9900000I-200000J0D01*
G01*
G37*
G36*
G01*
X86000000Y-13300000D02*
X84500000Y-13300000D01*
G75*
G02*
X84300000Y-13100000I0J200000D01*
G01*
X84300000Y-11300000D01*
G75*
G02*
X84500000Y-11100000I200000J0D01*
G01*
X86000000Y-11100000D01*
G75*
G02*
X86200000Y-11300000I0J-200000D01*
G01*
X86200000Y-13100000D01*
G75*
G02*
X86000000Y-13300000I-200000J0D01*
G01*
G37*
D19*
X85252540Y-5340000D03*
G36*
G01*
X84253050Y-14300510D02*
X86252030Y-14300510D01*
G75*
G02*
X86452030Y-14500510I0J-200000D01*
G01*
X86452030Y-16499490D01*
G75*
G02*
X86252030Y-16699490I-200000J0D01*
G01*
X84253050Y-16699490D01*
G75*
G02*
X84053050Y-16499490I0J200000D01*
G01*
X84053050Y-14500510D01*
G75*
G02*
X84253050Y-14300510I200000J0D01*
G01*
G37*
D12*
X80820000Y-13410000D03*
D13*
X75600000Y-3310000D03*
G36*
G01*
X79780762Y-4390762D02*
X79780762Y-4390762D01*
G75*
G02*
X80912132Y-4390762I565685J-565685D01*
G01*
X81619238Y-5097868D01*
G75*
G02*
X81619238Y-6229238I-565685J-565685D01*
G01*
X81619238Y-6229238D01*
G75*
G02*
X80487868Y-6229238I-565685J565685D01*
G01*
X79780762Y-5522132D01*
G75*
G02*
X79780762Y-4390762I565685J565685D01*
G01*
G37*
G36*
G01*
X69580762Y-6229238D02*
X69580762Y-6229238D01*
G75*
G02*
X69580762Y-5097868I565685J565685D01*
G01*
X70287868Y-4390762D01*
G75*
G02*
X71419238Y-4390762I565685J-565685D01*
G01*
X71419238Y-4390762D01*
G75*
G02*
X71419238Y-5522132I-565685J-565685D01*
G01*
X70712132Y-6229238D01*
G75*
G02*
X69580762Y-6229238I-565685J565685D01*
G01*
G37*
D14*
X81100000Y-9210000D03*
X70100000Y-9210000D03*
G36*
G01*
X70658630Y-7801370D02*
X70658630Y-7801370D01*
G75*
G02*
X70658630Y-6457868I671751J671751D01*
G01*
X71577868Y-5538630D01*
G75*
G02*
X72921370Y-5538630I671751J-671751D01*
G01*
X72921370Y-5538630D01*
G75*
G02*
X72921370Y-6882132I-671751J-671751D01*
G01*
X72002132Y-7801370D01*
G75*
G02*
X70658630Y-7801370I-671751J671751D01*
G01*
G37*
D15*
X75600000Y-9210000D03*
D16*
X70520000Y-9210000D03*
X80680000Y-9210000D03*
G36*
G01*
X78278630Y-5538630D02*
X78278630Y-5538630D01*
G75*
G02*
X79622132Y-5538630I671751J-671751D01*
G01*
X80541370Y-6457868D01*
G75*
G02*
X80541370Y-7801370I-671751J-671751D01*
G01*
X80541370Y-7801370D01*
G75*
G02*
X79197868Y-7801370I-671751J671751D01*
G01*
X78278630Y-6882132D01*
G75*
G02*
X78278630Y-5538630I671751J671751D01*
G01*
G37*
D17*
X73060000Y-4130000D03*
X78140000Y-4130000D03*
D12*
X70380000Y-13410000D03*
X127480000Y-21100000D03*
D17*
X135240000Y-11820000D03*
X130160000Y-11820000D03*
G36*
G01*
X135378630Y-13228630D02*
X135378630Y-13228630D01*
G75*
G02*
X136722132Y-13228630I671751J-671751D01*
G01*
X137641370Y-14147868D01*
G75*
G02*
X137641370Y-15491370I-671751J-671751D01*
G01*
X137641370Y-15491370D01*
G75*
G02*
X136297868Y-15491370I-671751J671751D01*
G01*
X135378630Y-14572132D01*
G75*
G02*
X135378630Y-13228630I671751J671751D01*
G01*
G37*
D16*
X137780000Y-16900000D03*
X127620000Y-16900000D03*
D15*
X132700000Y-16900000D03*
G36*
G01*
X127758630Y-15491370D02*
X127758630Y-15491370D01*
G75*
G02*
X127758630Y-14147868I671751J671751D01*
G01*
X128677868Y-13228630D01*
G75*
G02*
X130021370Y-13228630I671751J-671751D01*
G01*
X130021370Y-13228630D01*
G75*
G02*
X130021370Y-14572132I-671751J-671751D01*
G01*
X129102132Y-15491370D01*
G75*
G02*
X127758630Y-15491370I-671751J671751D01*
G01*
G37*
D14*
X127200000Y-16900000D03*
X138200000Y-16900000D03*
G36*
G01*
X126680762Y-13919238D02*
X126680762Y-13919238D01*
G75*
G02*
X126680762Y-12787868I565685J565685D01*
G01*
X127387868Y-12080762D01*
G75*
G02*
X128519238Y-12080762I565685J-565685D01*
G01*
X128519238Y-12080762D01*
G75*
G02*
X128519238Y-13212132I-565685J-565685D01*
G01*
X127812132Y-13919238D01*
G75*
G02*
X126680762Y-13919238I-565685J565685D01*
G01*
G37*
G36*
G01*
X136880762Y-12080762D02*
X136880762Y-12080762D01*
G75*
G02*
X138012132Y-12080762I565685J-565685D01*
G01*
X138719238Y-12787868D01*
G75*
G02*
X138719238Y-13919238I-565685J-565685D01*
G01*
X138719238Y-13919238D01*
G75*
G02*
X137587868Y-13919238I-565685J565685D01*
G01*
X136880762Y-13212132D01*
G75*
G02*
X136880762Y-12080762I565685J565685D01*
G01*
G37*
D13*
X132700000Y-11000000D03*
D12*
X137920000Y-21100000D03*
D20*
X3150000Y-10800000D03*
X3150000Y-3800000D03*
G36*
G01*
X250000Y-13650000D02*
X250000Y-11550000D01*
G75*
G02*
X450000Y-11350000I200000J0D01*
G01*
X1650000Y-11350000D01*
G75*
G02*
X1850000Y-11550000I0J-200000D01*
G01*
X1850000Y-13650000D01*
G75*
G02*
X1650000Y-13850000I-200000J0D01*
G01*
X450000Y-13850000D01*
G75*
G02*
X250000Y-13650000I0J200000D01*
G01*
G37*
G36*
G01*
X4450000Y-15150000D02*
X4450000Y-13050000D01*
G75*
G02*
X4650000Y-12850000I200000J0D01*
G01*
X5850000Y-12850000D01*
G75*
G02*
X6050000Y-13050000I0J-200000D01*
G01*
X6050000Y-15150000D01*
G75*
G02*
X5850000Y-15350000I-200000J0D01*
G01*
X4650000Y-15350000D01*
G75*
G02*
X4450000Y-15150000I0J200000D01*
G01*
G37*
G36*
G01*
X250000Y-6650000D02*
X250000Y-4550000D01*
G75*
G02*
X450000Y-4350000I200000J0D01*
G01*
X1650000Y-4350000D01*
G75*
G02*
X1850000Y-4550000I0J-200000D01*
G01*
X1850000Y-6650000D01*
G75*
G02*
X1650000Y-6850000I-200000J0D01*
G01*
X450000Y-6850000D01*
G75*
G02*
X250000Y-6650000I0J200000D01*
G01*
G37*
G36*
G01*
X250000Y-9650000D02*
X250000Y-7550000D01*
G75*
G02*
X450000Y-7350000I200000J0D01*
G01*
X1650000Y-7350000D01*
G75*
G02*
X1850000Y-7550000I0J-200000D01*
G01*
X1850000Y-9650000D01*
G75*
G02*
X1650000Y-9850000I-200000J0D01*
G01*
X450000Y-9850000D01*
G75*
G02*
X250000Y-9650000I0J200000D01*
G01*
G37*
X4900000Y-3800000D03*
X4900000Y-10800000D03*
G36*
G01*
X6200000Y-6650000D02*
X6200000Y-4550000D01*
G75*
G02*
X6400000Y-4350000I200000J0D01*
G01*
X7600000Y-4350000D01*
G75*
G02*
X7800000Y-4550000I0J-200000D01*
G01*
X7800000Y-6650000D01*
G75*
G02*
X7600000Y-6850000I-200000J0D01*
G01*
X6400000Y-6850000D01*
G75*
G02*
X6200000Y-6650000I0J200000D01*
G01*
G37*
G36*
G01*
X6200000Y-9650000D02*
X6200000Y-7550000D01*
G75*
G02*
X6400000Y-7350000I200000J0D01*
G01*
X7600000Y-7350000D01*
G75*
G02*
X7800000Y-7550000I0J-200000D01*
G01*
X7800000Y-9650000D01*
G75*
G02*
X7600000Y-9850000I-200000J0D01*
G01*
X6400000Y-9850000D01*
G75*
G02*
X6200000Y-9650000I0J200000D01*
G01*
G37*
G36*
G01*
X6200000Y-13650000D02*
X6200000Y-11550000D01*
G75*
G02*
X6400000Y-11350000I200000J0D01*
G01*
X7600000Y-11350000D01*
G75*
G02*
X7800000Y-11550000I0J-200000D01*
G01*
X7800000Y-13650000D01*
G75*
G02*
X7600000Y-13850000I-200000J0D01*
G01*
X6400000Y-13850000D01*
G75*
G02*
X6200000Y-13650000I0J200000D01*
G01*
G37*
G36*
G01*
X2000000Y-15150000D02*
X2000000Y-13050000D01*
G75*
G02*
X2200000Y-12850000I200000J0D01*
G01*
X3400000Y-12850000D01*
G75*
G02*
X3600000Y-13050000I0J-200000D01*
G01*
X3600000Y-15150000D01*
G75*
G02*
X3400000Y-15350000I-200000J0D01*
G01*
X2200000Y-15350000D01*
G75*
G02*
X2000000Y-15150000I0J200000D01*
G01*
G37*
G36*
G01*
X46500000Y-10150000D02*
X45000000Y-10150000D01*
G75*
G02*
X44800000Y-9950000I0J200000D01*
G01*
X44800000Y-8150000D01*
G75*
G02*
X45000000Y-7950000I200000J0D01*
G01*
X46500000Y-7950000D01*
G75*
G02*
X46700000Y-8150000I0J-200000D01*
G01*
X46700000Y-9950000D01*
G75*
G02*
X46500000Y-10150000I-200000J0D01*
G01*
G37*
G36*
G01*
X46500000Y-13550000D02*
X45000000Y-13550000D01*
G75*
G02*
X44800000Y-13350000I0J200000D01*
G01*
X44800000Y-11550000D01*
G75*
G02*
X45000000Y-11350000I200000J0D01*
G01*
X46500000Y-11350000D01*
G75*
G02*
X46700000Y-11550000I0J-200000D01*
G01*
X46700000Y-13350000D01*
G75*
G02*
X46500000Y-13550000I-200000J0D01*
G01*
G37*
D19*
X45752540Y-5590000D03*
G36*
G01*
X44753050Y-14550510D02*
X46752030Y-14550510D01*
G75*
G02*
X46952030Y-14750510I0J-200000D01*
G01*
X46952030Y-16749490D01*
G75*
G02*
X46752030Y-16949490I-200000J0D01*
G01*
X44753050Y-16949490D01*
G75*
G02*
X44553050Y-16749490I0J200000D01*
G01*
X44553050Y-14750510D01*
G75*
G02*
X44753050Y-14550510I200000J0D01*
G01*
G37*
G36*
G01*
X49000000Y-69400000D02*
X47500000Y-69400000D01*
G75*
G02*
X47300000Y-69200000I0J200000D01*
G01*
X47300000Y-67400000D01*
G75*
G02*
X47500000Y-67200000I200000J0D01*
G01*
X49000000Y-67200000D01*
G75*
G02*
X49200000Y-67400000I0J-200000D01*
G01*
X49200000Y-69200000D01*
G75*
G02*
X49000000Y-69400000I-200000J0D01*
G01*
G37*
G36*
G01*
X49000000Y-72800000D02*
X47500000Y-72800000D01*
G75*
G02*
X47300000Y-72600000I0J200000D01*
G01*
X47300000Y-70800000D01*
G75*
G02*
X47500000Y-70600000I200000J0D01*
G01*
X49000000Y-70600000D01*
G75*
G02*
X49200000Y-70800000I0J-200000D01*
G01*
X49200000Y-72600000D01*
G75*
G02*
X49000000Y-72800000I-200000J0D01*
G01*
G37*
X48252540Y-64840000D03*
G36*
G01*
X47253050Y-73800510D02*
X49252030Y-73800510D01*
G75*
G02*
X49452030Y-74000510I0J-200000D01*
G01*
X49452030Y-75999490D01*
G75*
G02*
X49252030Y-76199490I-200000J0D01*
G01*
X47253050Y-76199490D01*
G75*
G02*
X47053050Y-75999490I0J200000D01*
G01*
X47053050Y-74000510D01*
G75*
G02*
X47253050Y-73800510I200000J0D01*
G01*
G37*
G36*
G01*
X46500000Y-31400000D02*
X45000000Y-31400000D01*
G75*
G02*
X44800000Y-31200000I0J200000D01*
G01*
X44800000Y-29400000D01*
G75*
G02*
X45000000Y-29200000I200000J0D01*
G01*
X46500000Y-29200000D01*
G75*
G02*
X46700000Y-29400000I0J-200000D01*
G01*
X46700000Y-31200000D01*
G75*
G02*
X46500000Y-31400000I-200000J0D01*
G01*
G37*
G36*
G01*
X46500000Y-34800000D02*
X45000000Y-34800000D01*
G75*
G02*
X44800000Y-34600000I0J200000D01*
G01*
X44800000Y-32800000D01*
G75*
G02*
X45000000Y-32600000I200000J0D01*
G01*
X46500000Y-32600000D01*
G75*
G02*
X46700000Y-32800000I0J-200000D01*
G01*
X46700000Y-34600000D01*
G75*
G02*
X46500000Y-34800000I-200000J0D01*
G01*
G37*
X45752540Y-26840000D03*
G36*
G01*
X44753050Y-35800510D02*
X46752030Y-35800510D01*
G75*
G02*
X46952030Y-36000510I0J-200000D01*
G01*
X46952030Y-37999490D01*
G75*
G02*
X46752030Y-38199490I-200000J0D01*
G01*
X44753050Y-38199490D01*
G75*
G02*
X44553050Y-37999490I0J200000D01*
G01*
X44553050Y-36000510D01*
G75*
G02*
X44753050Y-35800510I200000J0D01*
G01*
G37*
G36*
G01*
X49000000Y-10150000D02*
X47500000Y-10150000D01*
G75*
G02*
X47300000Y-9950000I0J200000D01*
G01*
X47300000Y-8150000D01*
G75*
G02*
X47500000Y-7950000I200000J0D01*
G01*
X49000000Y-7950000D01*
G75*
G02*
X49200000Y-8150000I0J-200000D01*
G01*
X49200000Y-9950000D01*
G75*
G02*
X49000000Y-10150000I-200000J0D01*
G01*
G37*
G36*
G01*
X49000000Y-13550000D02*
X47500000Y-13550000D01*
G75*
G02*
X47300000Y-13350000I0J200000D01*
G01*
X47300000Y-11550000D01*
G75*
G02*
X47500000Y-11350000I200000J0D01*
G01*
X49000000Y-11350000D01*
G75*
G02*
X49200000Y-11550000I0J-200000D01*
G01*
X49200000Y-13350000D01*
G75*
G02*
X49000000Y-13550000I-200000J0D01*
G01*
G37*
X48252540Y-5590000D03*
G36*
G01*
X47253050Y-14550510D02*
X49252030Y-14550510D01*
G75*
G02*
X49452030Y-14750510I0J-200000D01*
G01*
X49452030Y-16749490D01*
G75*
G02*
X49252030Y-16949490I-200000J0D01*
G01*
X47253050Y-16949490D01*
G75*
G02*
X47053050Y-16749490I0J200000D01*
G01*
X47053050Y-14750510D01*
G75*
G02*
X47253050Y-14550510I200000J0D01*
G01*
G37*
G36*
G01*
X67000000Y-7650000D02*
X65500000Y-7650000D01*
G75*
G02*
X65300000Y-7450000I0J200000D01*
G01*
X65300000Y-5650000D01*
G75*
G02*
X65500000Y-5450000I200000J0D01*
G01*
X67000000Y-5450000D01*
G75*
G02*
X67200000Y-5650000I0J-200000D01*
G01*
X67200000Y-7450000D01*
G75*
G02*
X67000000Y-7650000I-200000J0D01*
G01*
G37*
G36*
G01*
X67000000Y-11050000D02*
X65500000Y-11050000D01*
G75*
G02*
X65300000Y-10850000I0J200000D01*
G01*
X65300000Y-9050000D01*
G75*
G02*
X65500000Y-8850000I200000J0D01*
G01*
X67000000Y-8850000D01*
G75*
G02*
X67200000Y-9050000I0J-200000D01*
G01*
X67200000Y-10850000D01*
G75*
G02*
X67000000Y-11050000I-200000J0D01*
G01*
G37*
X66252540Y-3090000D03*
G36*
G01*
X65253050Y-12050510D02*
X67252030Y-12050510D01*
G75*
G02*
X67452030Y-12250510I0J-200000D01*
G01*
X67452030Y-14249490D01*
G75*
G02*
X67252030Y-14449490I-200000J0D01*
G01*
X65253050Y-14449490D01*
G75*
G02*
X65053050Y-14249490I0J200000D01*
G01*
X65053050Y-12250510D01*
G75*
G02*
X65253050Y-12050510I200000J0D01*
G01*
G37*
G36*
G01*
X105000000Y-14900000D02*
X103500000Y-14900000D01*
G75*
G02*
X103300000Y-14700000I0J200000D01*
G01*
X103300000Y-12900000D01*
G75*
G02*
X103500000Y-12700000I200000J0D01*
G01*
X105000000Y-12700000D01*
G75*
G02*
X105200000Y-12900000I0J-200000D01*
G01*
X105200000Y-14700000D01*
G75*
G02*
X105000000Y-14900000I-200000J0D01*
G01*
G37*
G36*
G01*
X105000000Y-18300000D02*
X103500000Y-18300000D01*
G75*
G02*
X103300000Y-18100000I0J200000D01*
G01*
X103300000Y-16300000D01*
G75*
G02*
X103500000Y-16100000I200000J0D01*
G01*
X105000000Y-16100000D01*
G75*
G02*
X105200000Y-16300000I0J-200000D01*
G01*
X105200000Y-18100000D01*
G75*
G02*
X105000000Y-18300000I-200000J0D01*
G01*
G37*
X104252540Y-10340000D03*
G36*
G01*
X103253050Y-19300510D02*
X105252030Y-19300510D01*
G75*
G02*
X105452030Y-19500510I0J-200000D01*
G01*
X105452030Y-21499490D01*
G75*
G02*
X105252030Y-21699490I-200000J0D01*
G01*
X103253050Y-21699490D01*
G75*
G02*
X103053050Y-21499490I0J200000D01*
G01*
X103053050Y-19500510D01*
G75*
G02*
X103253050Y-19300510I200000J0D01*
G01*
G37*
G36*
G01*
X124000000Y-14900000D02*
X122500000Y-14900000D01*
G75*
G02*
X122300000Y-14700000I0J200000D01*
G01*
X122300000Y-12900000D01*
G75*
G02*
X122500000Y-12700000I200000J0D01*
G01*
X124000000Y-12700000D01*
G75*
G02*
X124200000Y-12900000I0J-200000D01*
G01*
X124200000Y-14700000D01*
G75*
G02*
X124000000Y-14900000I-200000J0D01*
G01*
G37*
G36*
G01*
X124000000Y-18300000D02*
X122500000Y-18300000D01*
G75*
G02*
X122300000Y-18100000I0J200000D01*
G01*
X122300000Y-16300000D01*
G75*
G02*
X122500000Y-16100000I200000J0D01*
G01*
X124000000Y-16100000D01*
G75*
G02*
X124200000Y-16300000I0J-200000D01*
G01*
X124200000Y-18100000D01*
G75*
G02*
X124000000Y-18300000I-200000J0D01*
G01*
G37*
X123252540Y-10340000D03*
G36*
G01*
X122253050Y-19300510D02*
X124252030Y-19300510D01*
G75*
G02*
X124452030Y-19500510I0J-200000D01*
G01*
X124452030Y-21499490D01*
G75*
G02*
X124252030Y-21699490I-200000J0D01*
G01*
X122253050Y-21699490D01*
G75*
G02*
X122053050Y-21499490I0J200000D01*
G01*
X122053050Y-19500510D01*
G75*
G02*
X122253050Y-19300510I200000J0D01*
G01*
G37*
G36*
G01*
X49002540Y-31352540D02*
X47502540Y-31352540D01*
G75*
G02*
X47302540Y-31152540I0J200000D01*
G01*
X47302540Y-29352540D01*
G75*
G02*
X47502540Y-29152540I200000J0D01*
G01*
X49002540Y-29152540D01*
G75*
G02*
X49202540Y-29352540I0J-200000D01*
G01*
X49202540Y-31152540D01*
G75*
G02*
X49002540Y-31352540I-200000J0D01*
G01*
G37*
G36*
G01*
X49002540Y-34752540D02*
X47502540Y-34752540D01*
G75*
G02*
X47302540Y-34552540I0J200000D01*
G01*
X47302540Y-32752540D01*
G75*
G02*
X47502540Y-32552540I200000J0D01*
G01*
X49002540Y-32552540D01*
G75*
G02*
X49202540Y-32752540I0J-200000D01*
G01*
X49202540Y-34552540D01*
G75*
G02*
X49002540Y-34752540I-200000J0D01*
G01*
G37*
X48255080Y-26792540D03*
G36*
G01*
X47255590Y-35753050D02*
X49254570Y-35753050D01*
G75*
G02*
X49454570Y-35953050I0J-200000D01*
G01*
X49454570Y-37952030D01*
G75*
G02*
X49254570Y-38152030I-200000J0D01*
G01*
X47255590Y-38152030D01*
G75*
G02*
X47055590Y-37952030I0J200000D01*
G01*
X47055590Y-35953050D01*
G75*
G02*
X47255590Y-35753050I200000J0D01*
G01*
G37*
G36*
G01*
X66750000Y-26900000D02*
X65250000Y-26900000D01*
G75*
G02*
X65050000Y-26700000I0J200000D01*
G01*
X65050000Y-24900000D01*
G75*
G02*
X65250000Y-24700000I200000J0D01*
G01*
X66750000Y-24700000D01*
G75*
G02*
X66950000Y-24900000I0J-200000D01*
G01*
X66950000Y-26700000D01*
G75*
G02*
X66750000Y-26900000I-200000J0D01*
G01*
G37*
G36*
G01*
X66750000Y-30300000D02*
X65250000Y-30300000D01*
G75*
G02*
X65050000Y-30100000I0J200000D01*
G01*
X65050000Y-28300000D01*
G75*
G02*
X65250000Y-28100000I200000J0D01*
G01*
X66750000Y-28100000D01*
G75*
G02*
X66950000Y-28300000I0J-200000D01*
G01*
X66950000Y-30100000D01*
G75*
G02*
X66750000Y-30300000I-200000J0D01*
G01*
G37*
X66002540Y-22340000D03*
G36*
G01*
X65003050Y-31300510D02*
X67002030Y-31300510D01*
G75*
G02*
X67202030Y-31500510I0J-200000D01*
G01*
X67202030Y-33499490D01*
G75*
G02*
X67002030Y-33699490I-200000J0D01*
G01*
X65003050Y-33699490D01*
G75*
G02*
X64803050Y-33499490I0J200000D01*
G01*
X64803050Y-31500510D01*
G75*
G02*
X65003050Y-31300510I200000J0D01*
G01*
G37*
G36*
G01*
X86000000Y-28900000D02*
X84500000Y-28900000D01*
G75*
G02*
X84300000Y-28700000I0J200000D01*
G01*
X84300000Y-26900000D01*
G75*
G02*
X84500000Y-26700000I200000J0D01*
G01*
X86000000Y-26700000D01*
G75*
G02*
X86200000Y-26900000I0J-200000D01*
G01*
X86200000Y-28700000D01*
G75*
G02*
X86000000Y-28900000I-200000J0D01*
G01*
G37*
G36*
G01*
X86000000Y-32300000D02*
X84500000Y-32300000D01*
G75*
G02*
X84300000Y-32100000I0J200000D01*
G01*
X84300000Y-30300000D01*
G75*
G02*
X84500000Y-30100000I200000J0D01*
G01*
X86000000Y-30100000D01*
G75*
G02*
X86200000Y-30300000I0J-200000D01*
G01*
X86200000Y-32100000D01*
G75*
G02*
X86000000Y-32300000I-200000J0D01*
G01*
G37*
X85252540Y-24340000D03*
G36*
G01*
X84253050Y-33300510D02*
X86252030Y-33300510D01*
G75*
G02*
X86452030Y-33500510I0J-200000D01*
G01*
X86452030Y-35499490D01*
G75*
G02*
X86252030Y-35699490I-200000J0D01*
G01*
X84253050Y-35699490D01*
G75*
G02*
X84053050Y-35499490I0J200000D01*
G01*
X84053050Y-33500510D01*
G75*
G02*
X84253050Y-33300510I200000J0D01*
G01*
G37*
G36*
G01*
X105000000Y-33650000D02*
X103500000Y-33650000D01*
G75*
G02*
X103300000Y-33450000I0J200000D01*
G01*
X103300000Y-31650000D01*
G75*
G02*
X103500000Y-31450000I200000J0D01*
G01*
X105000000Y-31450000D01*
G75*
G02*
X105200000Y-31650000I0J-200000D01*
G01*
X105200000Y-33450000D01*
G75*
G02*
X105000000Y-33650000I-200000J0D01*
G01*
G37*
G36*
G01*
X105000000Y-37050000D02*
X103500000Y-37050000D01*
G75*
G02*
X103300000Y-36850000I0J200000D01*
G01*
X103300000Y-35050000D01*
G75*
G02*
X103500000Y-34850000I200000J0D01*
G01*
X105000000Y-34850000D01*
G75*
G02*
X105200000Y-35050000I0J-200000D01*
G01*
X105200000Y-36850000D01*
G75*
G02*
X105000000Y-37050000I-200000J0D01*
G01*
G37*
X104252540Y-29090000D03*
G36*
G01*
X103253050Y-38050510D02*
X105252030Y-38050510D01*
G75*
G02*
X105452030Y-38250510I0J-200000D01*
G01*
X105452030Y-40249490D01*
G75*
G02*
X105252030Y-40449490I-200000J0D01*
G01*
X103253050Y-40449490D01*
G75*
G02*
X103053050Y-40249490I0J200000D01*
G01*
X103053050Y-38250510D01*
G75*
G02*
X103253050Y-38050510I200000J0D01*
G01*
G37*
G36*
G01*
X123998000Y-35361500D02*
X122498000Y-35361500D01*
G75*
G02*
X122298000Y-35161500I0J200000D01*
G01*
X122298000Y-33361500D01*
G75*
G02*
X122498000Y-33161500I200000J0D01*
G01*
X123998000Y-33161500D01*
G75*
G02*
X124198000Y-33361500I0J-200000D01*
G01*
X124198000Y-35161500D01*
G75*
G02*
X123998000Y-35361500I-200000J0D01*
G01*
G37*
G36*
G01*
X123998000Y-38761500D02*
X122498000Y-38761500D01*
G75*
G02*
X122298000Y-38561500I0J200000D01*
G01*
X122298000Y-36761500D01*
G75*
G02*
X122498000Y-36561500I200000J0D01*
G01*
X123998000Y-36561500D01*
G75*
G02*
X124198000Y-36761500I0J-200000D01*
G01*
X124198000Y-38561500D01*
G75*
G02*
X123998000Y-38761500I-200000J0D01*
G01*
G37*
X123250540Y-30801500D03*
G36*
G01*
X122251050Y-39762010D02*
X124250030Y-39762010D01*
G75*
G02*
X124450030Y-39962010I0J-200000D01*
G01*
X124450030Y-41960990D01*
G75*
G02*
X124250030Y-42160990I-200000J0D01*
G01*
X122251050Y-42160990D01*
G75*
G02*
X122051050Y-41960990I0J200000D01*
G01*
X122051050Y-39962010D01*
G75*
G02*
X122251050Y-39762010I200000J0D01*
G01*
G37*
G36*
G01*
X46500000Y-48150000D02*
X45000000Y-48150000D01*
G75*
G02*
X44800000Y-47950000I0J200000D01*
G01*
X44800000Y-46150000D01*
G75*
G02*
X45000000Y-45950000I200000J0D01*
G01*
X46500000Y-45950000D01*
G75*
G02*
X46700000Y-46150000I0J-200000D01*
G01*
X46700000Y-47950000D01*
G75*
G02*
X46500000Y-48150000I-200000J0D01*
G01*
G37*
G36*
G01*
X46500000Y-51550000D02*
X45000000Y-51550000D01*
G75*
G02*
X44800000Y-51350000I0J200000D01*
G01*
X44800000Y-49550000D01*
G75*
G02*
X45000000Y-49350000I200000J0D01*
G01*
X46500000Y-49350000D01*
G75*
G02*
X46700000Y-49550000I0J-200000D01*
G01*
X46700000Y-51350000D01*
G75*
G02*
X46500000Y-51550000I-200000J0D01*
G01*
G37*
X45752540Y-43590000D03*
G36*
G01*
X44753050Y-52550510D02*
X46752030Y-52550510D01*
G75*
G02*
X46952030Y-52750510I0J-200000D01*
G01*
X46952030Y-54749490D01*
G75*
G02*
X46752030Y-54949490I-200000J0D01*
G01*
X44753050Y-54949490D01*
G75*
G02*
X44553050Y-54749490I0J200000D01*
G01*
X44553050Y-52750510D01*
G75*
G02*
X44753050Y-52550510I200000J0D01*
G01*
G37*
G36*
G01*
X49000000Y-48150000D02*
X47500000Y-48150000D01*
G75*
G02*
X47300000Y-47950000I0J200000D01*
G01*
X47300000Y-46150000D01*
G75*
G02*
X47500000Y-45950000I200000J0D01*
G01*
X49000000Y-45950000D01*
G75*
G02*
X49200000Y-46150000I0J-200000D01*
G01*
X49200000Y-47950000D01*
G75*
G02*
X49000000Y-48150000I-200000J0D01*
G01*
G37*
G36*
G01*
X49000000Y-51550000D02*
X47500000Y-51550000D01*
G75*
G02*
X47300000Y-51350000I0J200000D01*
G01*
X47300000Y-49550000D01*
G75*
G02*
X47500000Y-49350000I200000J0D01*
G01*
X49000000Y-49350000D01*
G75*
G02*
X49200000Y-49550000I0J-200000D01*
G01*
X49200000Y-51350000D01*
G75*
G02*
X49000000Y-51550000I-200000J0D01*
G01*
G37*
X48252540Y-43590000D03*
G36*
G01*
X47253050Y-52550510D02*
X49252030Y-52550510D01*
G75*
G02*
X49452030Y-52750510I0J-200000D01*
G01*
X49452030Y-54749490D01*
G75*
G02*
X49252030Y-54949490I-200000J0D01*
G01*
X47253050Y-54949490D01*
G75*
G02*
X47053050Y-54749490I0J200000D01*
G01*
X47053050Y-52750510D01*
G75*
G02*
X47253050Y-52550510I200000J0D01*
G01*
G37*
G36*
G01*
X66750000Y-45900000D02*
X65250000Y-45900000D01*
G75*
G02*
X65050000Y-45700000I0J200000D01*
G01*
X65050000Y-43900000D01*
G75*
G02*
X65250000Y-43700000I200000J0D01*
G01*
X66750000Y-43700000D01*
G75*
G02*
X66950000Y-43900000I0J-200000D01*
G01*
X66950000Y-45700000D01*
G75*
G02*
X66750000Y-45900000I-200000J0D01*
G01*
G37*
G36*
G01*
X66750000Y-49300000D02*
X65250000Y-49300000D01*
G75*
G02*
X65050000Y-49100000I0J200000D01*
G01*
X65050000Y-47300000D01*
G75*
G02*
X65250000Y-47100000I200000J0D01*
G01*
X66750000Y-47100000D01*
G75*
G02*
X66950000Y-47300000I0J-200000D01*
G01*
X66950000Y-49100000D01*
G75*
G02*
X66750000Y-49300000I-200000J0D01*
G01*
G37*
X66002540Y-41340000D03*
G36*
G01*
X65003050Y-50300510D02*
X67002030Y-50300510D01*
G75*
G02*
X67202030Y-50500510I0J-200000D01*
G01*
X67202030Y-52499490D01*
G75*
G02*
X67002030Y-52699490I-200000J0D01*
G01*
X65003050Y-52699490D01*
G75*
G02*
X64803050Y-52499490I0J200000D01*
G01*
X64803050Y-50500510D01*
G75*
G02*
X65003050Y-50300510I200000J0D01*
G01*
G37*
G36*
G01*
X86000000Y-48150000D02*
X84500000Y-48150000D01*
G75*
G02*
X84300000Y-47950000I0J200000D01*
G01*
X84300000Y-46150000D01*
G75*
G02*
X84500000Y-45950000I200000J0D01*
G01*
X86000000Y-45950000D01*
G75*
G02*
X86200000Y-46150000I0J-200000D01*
G01*
X86200000Y-47950000D01*
G75*
G02*
X86000000Y-48150000I-200000J0D01*
G01*
G37*
G36*
G01*
X86000000Y-51550000D02*
X84500000Y-51550000D01*
G75*
G02*
X84300000Y-51350000I0J200000D01*
G01*
X84300000Y-49550000D01*
G75*
G02*
X84500000Y-49350000I200000J0D01*
G01*
X86000000Y-49350000D01*
G75*
G02*
X86200000Y-49550000I0J-200000D01*
G01*
X86200000Y-51350000D01*
G75*
G02*
X86000000Y-51550000I-200000J0D01*
G01*
G37*
X85252540Y-43590000D03*
G36*
G01*
X84253050Y-52550510D02*
X86252030Y-52550510D01*
G75*
G02*
X86452030Y-52750510I0J-200000D01*
G01*
X86452030Y-54749490D01*
G75*
G02*
X86252030Y-54949490I-200000J0D01*
G01*
X84253050Y-54949490D01*
G75*
G02*
X84053050Y-54749490I0J200000D01*
G01*
X84053050Y-52750510D01*
G75*
G02*
X84253050Y-52550510I200000J0D01*
G01*
G37*
G36*
G01*
X105000000Y-53150000D02*
X103500000Y-53150000D01*
G75*
G02*
X103300000Y-52950000I0J200000D01*
G01*
X103300000Y-51150000D01*
G75*
G02*
X103500000Y-50950000I200000J0D01*
G01*
X105000000Y-50950000D01*
G75*
G02*
X105200000Y-51150000I0J-200000D01*
G01*
X105200000Y-52950000D01*
G75*
G02*
X105000000Y-53150000I-200000J0D01*
G01*
G37*
G36*
G01*
X105000000Y-56550000D02*
X103500000Y-56550000D01*
G75*
G02*
X103300000Y-56350000I0J200000D01*
G01*
X103300000Y-54550000D01*
G75*
G02*
X103500000Y-54350000I200000J0D01*
G01*
X105000000Y-54350000D01*
G75*
G02*
X105200000Y-54550000I0J-200000D01*
G01*
X105200000Y-56350000D01*
G75*
G02*
X105000000Y-56550000I-200000J0D01*
G01*
G37*
X104252540Y-48590000D03*
G36*
G01*
X103253050Y-57550510D02*
X105252030Y-57550510D01*
G75*
G02*
X105452030Y-57750510I0J-200000D01*
G01*
X105452030Y-59749490D01*
G75*
G02*
X105252030Y-59949490I-200000J0D01*
G01*
X103253050Y-59949490D01*
G75*
G02*
X103053050Y-59749490I0J200000D01*
G01*
X103053050Y-57750510D01*
G75*
G02*
X103253050Y-57550510I200000J0D01*
G01*
G37*
G36*
G01*
X124000000Y-53150000D02*
X122500000Y-53150000D01*
G75*
G02*
X122300000Y-52950000I0J200000D01*
G01*
X122300000Y-51150000D01*
G75*
G02*
X122500000Y-50950000I200000J0D01*
G01*
X124000000Y-50950000D01*
G75*
G02*
X124200000Y-51150000I0J-200000D01*
G01*
X124200000Y-52950000D01*
G75*
G02*
X124000000Y-53150000I-200000J0D01*
G01*
G37*
G36*
G01*
X124000000Y-56550000D02*
X122500000Y-56550000D01*
G75*
G02*
X122300000Y-56350000I0J200000D01*
G01*
X122300000Y-54550000D01*
G75*
G02*
X122500000Y-54350000I200000J0D01*
G01*
X124000000Y-54350000D01*
G75*
G02*
X124200000Y-54550000I0J-200000D01*
G01*
X124200000Y-56350000D01*
G75*
G02*
X124000000Y-56550000I-200000J0D01*
G01*
G37*
X123252540Y-48590000D03*
G36*
G01*
X122253050Y-57550510D02*
X124252030Y-57550510D01*
G75*
G02*
X124452030Y-57750510I0J-200000D01*
G01*
X124452030Y-59749490D01*
G75*
G02*
X124252030Y-59949490I-200000J0D01*
G01*
X122253050Y-59949490D01*
G75*
G02*
X122053050Y-59749490I0J200000D01*
G01*
X122053050Y-57750510D01*
G75*
G02*
X122253050Y-57550510I200000J0D01*
G01*
G37*
G36*
G01*
X46550000Y-69400000D02*
X45050000Y-69400000D01*
G75*
G02*
X44850000Y-69200000I0J200000D01*
G01*
X44850000Y-67400000D01*
G75*
G02*
X45050000Y-67200000I200000J0D01*
G01*
X46550000Y-67200000D01*
G75*
G02*
X46750000Y-67400000I0J-200000D01*
G01*
X46750000Y-69200000D01*
G75*
G02*
X46550000Y-69400000I-200000J0D01*
G01*
G37*
G36*
G01*
X46550000Y-72800000D02*
X45050000Y-72800000D01*
G75*
G02*
X44850000Y-72600000I0J200000D01*
G01*
X44850000Y-70800000D01*
G75*
G02*
X45050000Y-70600000I200000J0D01*
G01*
X46550000Y-70600000D01*
G75*
G02*
X46750000Y-70800000I0J-200000D01*
G01*
X46750000Y-72600000D01*
G75*
G02*
X46550000Y-72800000I-200000J0D01*
G01*
G37*
X45802540Y-64840000D03*
G36*
G01*
X44803050Y-73800510D02*
X46802030Y-73800510D01*
G75*
G02*
X47002030Y-74000510I0J-200000D01*
G01*
X47002030Y-75999490D01*
G75*
G02*
X46802030Y-76199490I-200000J0D01*
G01*
X44803050Y-76199490D01*
G75*
G02*
X44603050Y-75999490I0J200000D01*
G01*
X44603050Y-74000510D01*
G75*
G02*
X44803050Y-73800510I200000J0D01*
G01*
G37*
G36*
G01*
X66750000Y-64900000D02*
X65250000Y-64900000D01*
G75*
G02*
X65050000Y-64700000I0J200000D01*
G01*
X65050000Y-62900000D01*
G75*
G02*
X65250000Y-62700000I200000J0D01*
G01*
X66750000Y-62700000D01*
G75*
G02*
X66950000Y-62900000I0J-200000D01*
G01*
X66950000Y-64700000D01*
G75*
G02*
X66750000Y-64900000I-200000J0D01*
G01*
G37*
G36*
G01*
X66750000Y-68300000D02*
X65250000Y-68300000D01*
G75*
G02*
X65050000Y-68100000I0J200000D01*
G01*
X65050000Y-66300000D01*
G75*
G02*
X65250000Y-66100000I200000J0D01*
G01*
X66750000Y-66100000D01*
G75*
G02*
X66950000Y-66300000I0J-200000D01*
G01*
X66950000Y-68100000D01*
G75*
G02*
X66750000Y-68300000I-200000J0D01*
G01*
G37*
X66002540Y-60340000D03*
G36*
G01*
X65003050Y-69300510D02*
X67002030Y-69300510D01*
G75*
G02*
X67202030Y-69500510I0J-200000D01*
G01*
X67202030Y-71499490D01*
G75*
G02*
X67002030Y-71699490I-200000J0D01*
G01*
X65003050Y-71699490D01*
G75*
G02*
X64803050Y-71499490I0J200000D01*
G01*
X64803050Y-69500510D01*
G75*
G02*
X65003050Y-69300510I200000J0D01*
G01*
G37*
G36*
G01*
X86000000Y-67150000D02*
X84500000Y-67150000D01*
G75*
G02*
X84300000Y-66950000I0J200000D01*
G01*
X84300000Y-65150000D01*
G75*
G02*
X84500000Y-64950000I200000J0D01*
G01*
X86000000Y-64950000D01*
G75*
G02*
X86200000Y-65150000I0J-200000D01*
G01*
X86200000Y-66950000D01*
G75*
G02*
X86000000Y-67150000I-200000J0D01*
G01*
G37*
G36*
G01*
X86000000Y-70550000D02*
X84500000Y-70550000D01*
G75*
G02*
X84300000Y-70350000I0J200000D01*
G01*
X84300000Y-68550000D01*
G75*
G02*
X84500000Y-68350000I200000J0D01*
G01*
X86000000Y-68350000D01*
G75*
G02*
X86200000Y-68550000I0J-200000D01*
G01*
X86200000Y-70350000D01*
G75*
G02*
X86000000Y-70550000I-200000J0D01*
G01*
G37*
X85252540Y-62590000D03*
G36*
G01*
X84253050Y-71550510D02*
X86252030Y-71550510D01*
G75*
G02*
X86452030Y-71750510I0J-200000D01*
G01*
X86452030Y-73749490D01*
G75*
G02*
X86252030Y-73949490I-200000J0D01*
G01*
X84253050Y-73949490D01*
G75*
G02*
X84053050Y-73749490I0J200000D01*
G01*
X84053050Y-71750510D01*
G75*
G02*
X84253050Y-71550510I200000J0D01*
G01*
G37*
G36*
G01*
X105000000Y-71900000D02*
X103500000Y-71900000D01*
G75*
G02*
X103300000Y-71700000I0J200000D01*
G01*
X103300000Y-69900000D01*
G75*
G02*
X103500000Y-69700000I200000J0D01*
G01*
X105000000Y-69700000D01*
G75*
G02*
X105200000Y-69900000I0J-200000D01*
G01*
X105200000Y-71700000D01*
G75*
G02*
X105000000Y-71900000I-200000J0D01*
G01*
G37*
G36*
G01*
X105000000Y-75300000D02*
X103500000Y-75300000D01*
G75*
G02*
X103300000Y-75100000I0J200000D01*
G01*
X103300000Y-73300000D01*
G75*
G02*
X103500000Y-73100000I200000J0D01*
G01*
X105000000Y-73100000D01*
G75*
G02*
X105200000Y-73300000I0J-200000D01*
G01*
X105200000Y-75100000D01*
G75*
G02*
X105000000Y-75300000I-200000J0D01*
G01*
G37*
X104252540Y-67340000D03*
G36*
G01*
X103253050Y-76300510D02*
X105252030Y-76300510D01*
G75*
G02*
X105452030Y-76500510I0J-200000D01*
G01*
X105452030Y-78499490D01*
G75*
G02*
X105252030Y-78699490I-200000J0D01*
G01*
X103253050Y-78699490D01*
G75*
G02*
X103053050Y-78499490I0J200000D01*
G01*
X103053050Y-76500510D01*
G75*
G02*
X103253050Y-76300510I200000J0D01*
G01*
G37*
G36*
G01*
X27550000Y-59400000D02*
X26050000Y-59400000D01*
G75*
G02*
X25850000Y-59200000I0J200000D01*
G01*
X25850000Y-57400000D01*
G75*
G02*
X26050000Y-57200000I200000J0D01*
G01*
X27550000Y-57200000D01*
G75*
G02*
X27750000Y-57400000I0J-200000D01*
G01*
X27750000Y-59200000D01*
G75*
G02*
X27550000Y-59400000I-200000J0D01*
G01*
G37*
G36*
G01*
X27550000Y-62800000D02*
X26050000Y-62800000D01*
G75*
G02*
X25850000Y-62600000I0J200000D01*
G01*
X25850000Y-60800000D01*
G75*
G02*
X26050000Y-60600000I200000J0D01*
G01*
X27550000Y-60600000D01*
G75*
G02*
X27750000Y-60800000I0J-200000D01*
G01*
X27750000Y-62600000D01*
G75*
G02*
X27550000Y-62800000I-200000J0D01*
G01*
G37*
X26802540Y-54840000D03*
G36*
G01*
X25803050Y-63800510D02*
X27802030Y-63800510D01*
G75*
G02*
X28002030Y-64000510I0J-200000D01*
G01*
X28002030Y-65999490D01*
G75*
G02*
X27802030Y-66199490I-200000J0D01*
G01*
X25803050Y-66199490D01*
G75*
G02*
X25603050Y-65999490I0J200000D01*
G01*
X25603050Y-64000510D01*
G75*
G02*
X25803050Y-63800510I200000J0D01*
G01*
G37*
G36*
G01*
X39450000Y-89900000D02*
X37950000Y-89900000D01*
G75*
G02*
X37750000Y-89700000I0J200000D01*
G01*
X37750000Y-87900000D01*
G75*
G02*
X37950000Y-87700000I200000J0D01*
G01*
X39450000Y-87700000D01*
G75*
G02*
X39650000Y-87900000I0J-200000D01*
G01*
X39650000Y-89700000D01*
G75*
G02*
X39450000Y-89900000I-200000J0D01*
G01*
G37*
G36*
G01*
X39450000Y-93300000D02*
X37950000Y-93300000D01*
G75*
G02*
X37750000Y-93100000I0J200000D01*
G01*
X37750000Y-91300000D01*
G75*
G02*
X37950000Y-91100000I200000J0D01*
G01*
X39450000Y-91100000D01*
G75*
G02*
X39650000Y-91300000I0J-200000D01*
G01*
X39650000Y-93100000D01*
G75*
G02*
X39450000Y-93300000I-200000J0D01*
G01*
G37*
X38702540Y-85340000D03*
G36*
G01*
X37703050Y-94300510D02*
X39702030Y-94300510D01*
G75*
G02*
X39902030Y-94500510I0J-200000D01*
G01*
X39902030Y-96499490D01*
G75*
G02*
X39702030Y-96699490I-200000J0D01*
G01*
X37703050Y-96699490D01*
G75*
G02*
X37503050Y-96499490I0J200000D01*
G01*
X37503050Y-94500510D01*
G75*
G02*
X37703050Y-94300510I200000J0D01*
G01*
G37*
G36*
G01*
X56950000Y-84800000D02*
X55450000Y-84800000D01*
G75*
G02*
X55250000Y-84600000I0J200000D01*
G01*
X55250000Y-82800000D01*
G75*
G02*
X55450000Y-82600000I200000J0D01*
G01*
X56950000Y-82600000D01*
G75*
G02*
X57150000Y-82800000I0J-200000D01*
G01*
X57150000Y-84600000D01*
G75*
G02*
X56950000Y-84800000I-200000J0D01*
G01*
G37*
G36*
G01*
X56950000Y-88200000D02*
X55450000Y-88200000D01*
G75*
G02*
X55250000Y-88000000I0J200000D01*
G01*
X55250000Y-86200000D01*
G75*
G02*
X55450000Y-86000000I200000J0D01*
G01*
X56950000Y-86000000D01*
G75*
G02*
X57150000Y-86200000I0J-200000D01*
G01*
X57150000Y-88000000D01*
G75*
G02*
X56950000Y-88200000I-200000J0D01*
G01*
G37*
X56202540Y-80240000D03*
G36*
G01*
X55203050Y-89200510D02*
X57202030Y-89200510D01*
G75*
G02*
X57402030Y-89400510I0J-200000D01*
G01*
X57402030Y-91399490D01*
G75*
G02*
X57202030Y-91599490I-200000J0D01*
G01*
X55203050Y-91599490D01*
G75*
G02*
X55003050Y-91399490I0J200000D01*
G01*
X55003050Y-89400510D01*
G75*
G02*
X55203050Y-89200510I200000J0D01*
G01*
G37*
G36*
G01*
X76450000Y-84800000D02*
X74950000Y-84800000D01*
G75*
G02*
X74750000Y-84600000I0J200000D01*
G01*
X74750000Y-82800000D01*
G75*
G02*
X74950000Y-82600000I200000J0D01*
G01*
X76450000Y-82600000D01*
G75*
G02*
X76650000Y-82800000I0J-200000D01*
G01*
X76650000Y-84600000D01*
G75*
G02*
X76450000Y-84800000I-200000J0D01*
G01*
G37*
G36*
G01*
X76450000Y-88200000D02*
X74950000Y-88200000D01*
G75*
G02*
X74750000Y-88000000I0J200000D01*
G01*
X74750000Y-86200000D01*
G75*
G02*
X74950000Y-86000000I200000J0D01*
G01*
X76450000Y-86000000D01*
G75*
G02*
X76650000Y-86200000I0J-200000D01*
G01*
X76650000Y-88000000D01*
G75*
G02*
X76450000Y-88200000I-200000J0D01*
G01*
G37*
X75702540Y-80240000D03*
G36*
G01*
X74703050Y-89200510D02*
X76702030Y-89200510D01*
G75*
G02*
X76902030Y-89400510I0J-200000D01*
G01*
X76902030Y-91399490D01*
G75*
G02*
X76702030Y-91599490I-200000J0D01*
G01*
X74703050Y-91599490D01*
G75*
G02*
X74503050Y-91399490I0J200000D01*
G01*
X74503050Y-89400510D01*
G75*
G02*
X74703050Y-89200510I200000J0D01*
G01*
G37*
D21*
X46600000Y-22600000D03*
X122800000Y-24800000D03*
X46600000Y-60600000D03*
X122800000Y-63000000D03*
X22000000Y-77800000D03*
D22*
X2100000Y-34750000D03*
X2100000Y-28250000D03*
D18*
X1688035Y-16499272D03*
X1688035Y-21579272D03*
X3900000Y-23700000D03*
X1700000Y-23700000D03*
G36*
G01*
X21871500Y-33417120D02*
X20728500Y-33417120D01*
G75*
G02*
X20528500Y-33217120I0J200000D01*
G01*
X20528500Y-32582120D01*
G75*
G02*
X20728500Y-32382120I200000J0D01*
G01*
X21871500Y-32382120D01*
G75*
G02*
X22071500Y-32582120I0J-200000D01*
G01*
X22071500Y-33217120D01*
G75*
G02*
X21871500Y-33417120I-200000J0D01*
G01*
G37*
G36*
G01*
X21871500Y-34417880D02*
X20728500Y-34417880D01*
G75*
G02*
X20528500Y-34217880I0J200000D01*
G01*
X20528500Y-33582880D01*
G75*
G02*
X20728500Y-33382880I200000J0D01*
G01*
X21871500Y-33382880D01*
G75*
G02*
X22071500Y-33582880I0J-200000D01*
G01*
X22071500Y-34217880D01*
G75*
G02*
X21871500Y-34417880I-200000J0D01*
G01*
G37*
G36*
G01*
X19371500Y-34417880D02*
X18228500Y-34417880D01*
G75*
G02*
X18028500Y-34217880I0J200000D01*
G01*
X18028500Y-33582880D01*
G75*
G02*
X18228500Y-33382880I200000J0D01*
G01*
X19371500Y-33382880D01*
G75*
G02*
X19571500Y-33582880I0J-200000D01*
G01*
X19571500Y-34217880D01*
G75*
G02*
X19371500Y-34417880I-200000J0D01*
G01*
G37*
G36*
G01*
X19371500Y-33417120D02*
X18228500Y-33417120D01*
G75*
G02*
X18028500Y-33217120I0J200000D01*
G01*
X18028500Y-32582120D01*
G75*
G02*
X18228500Y-32382120I200000J0D01*
G01*
X19371500Y-32382120D01*
G75*
G02*
X19571500Y-32582120I0J-200000D01*
G01*
X19571500Y-33217120D01*
G75*
G02*
X19371500Y-33417120I-200000J0D01*
G01*
G37*
G36*
G01*
X16771500Y-33417120D02*
X15628500Y-33417120D01*
G75*
G02*
X15428500Y-33217120I0J200000D01*
G01*
X15428500Y-32582120D01*
G75*
G02*
X15628500Y-32382120I200000J0D01*
G01*
X16771500Y-32382120D01*
G75*
G02*
X16971500Y-32582120I0J-200000D01*
G01*
X16971500Y-33217120D01*
G75*
G02*
X16771500Y-33417120I-200000J0D01*
G01*
G37*
G36*
G01*
X16771500Y-34417880D02*
X15628500Y-34417880D01*
G75*
G02*
X15428500Y-34217880I0J200000D01*
G01*
X15428500Y-33582880D01*
G75*
G02*
X15628500Y-33382880I200000J0D01*
G01*
X16771500Y-33382880D01*
G75*
G02*
X16971500Y-33582880I0J-200000D01*
G01*
X16971500Y-34217880D01*
G75*
G02*
X16771500Y-34417880I-200000J0D01*
G01*
G37*
G36*
G01*
X14271500Y-34417880D02*
X13128500Y-34417880D01*
G75*
G02*
X12928500Y-34217880I0J200000D01*
G01*
X12928500Y-33582880D01*
G75*
G02*
X13128500Y-33382880I200000J0D01*
G01*
X14271500Y-33382880D01*
G75*
G02*
X14471500Y-33582880I0J-200000D01*
G01*
X14471500Y-34217880D01*
G75*
G02*
X14271500Y-34417880I-200000J0D01*
G01*
G37*
G36*
G01*
X14271500Y-33417120D02*
X13128500Y-33417120D01*
G75*
G02*
X12928500Y-33217120I0J200000D01*
G01*
X12928500Y-32582120D01*
G75*
G02*
X13128500Y-32382120I200000J0D01*
G01*
X14271500Y-32382120D01*
G75*
G02*
X14471500Y-32582120I0J-200000D01*
G01*
X14471500Y-33217120D01*
G75*
G02*
X14271500Y-33417120I-200000J0D01*
G01*
G37*
D12*
X42720000Y-36300000D03*
D13*
X37500000Y-26200000D03*
G36*
G01*
X41680762Y-27280762D02*
X41680762Y-27280762D01*
G75*
G02*
X42812132Y-27280762I565685J-565685D01*
G01*
X43519238Y-27987868D01*
G75*
G02*
X43519238Y-29119238I-565685J-565685D01*
G01*
X43519238Y-29119238D01*
G75*
G02*
X42387868Y-29119238I-565685J565685D01*
G01*
X41680762Y-28412132D01*
G75*
G02*
X41680762Y-27280762I565685J565685D01*
G01*
G37*
G36*
G01*
X31480762Y-29119238D02*
X31480762Y-29119238D01*
G75*
G02*
X31480762Y-27987868I565685J565685D01*
G01*
X32187868Y-27280762D01*
G75*
G02*
X33319238Y-27280762I565685J-565685D01*
G01*
X33319238Y-27280762D01*
G75*
G02*
X33319238Y-28412132I-565685J-565685D01*
G01*
X32612132Y-29119238D01*
G75*
G02*
X31480762Y-29119238I-565685J565685D01*
G01*
G37*
D14*
X43000000Y-32100000D03*
X32000000Y-32100000D03*
G36*
G01*
X32558630Y-30691370D02*
X32558630Y-30691370D01*
G75*
G02*
X32558630Y-29347868I671751J671751D01*
G01*
X33477868Y-28428630D01*
G75*
G02*
X34821370Y-28428630I671751J-671751D01*
G01*
X34821370Y-28428630D01*
G75*
G02*
X34821370Y-29772132I-671751J-671751D01*
G01*
X33902132Y-30691370D01*
G75*
G02*
X32558630Y-30691370I-671751J671751D01*
G01*
G37*
D15*
X37500000Y-32100000D03*
D16*
X32420000Y-32100000D03*
X42580000Y-32100000D03*
G36*
G01*
X40178630Y-28428630D02*
X40178630Y-28428630D01*
G75*
G02*
X41522132Y-28428630I671751J-671751D01*
G01*
X42441370Y-29347868D01*
G75*
G02*
X42441370Y-30691370I-671751J-671751D01*
G01*
X42441370Y-30691370D01*
G75*
G02*
X41097868Y-30691370I-671751J671751D01*
G01*
X40178630Y-29772132D01*
G75*
G02*
X40178630Y-28428630I671751J671751D01*
G01*
G37*
D17*
X34960000Y-27020000D03*
X40040000Y-27020000D03*
D12*
X32280000Y-36300000D03*
X70380000Y-51600000D03*
D17*
X78140000Y-42320000D03*
X73060000Y-42320000D03*
G36*
G01*
X78278630Y-43728630D02*
X78278630Y-43728630D01*
G75*
G02*
X79622132Y-43728630I671751J-671751D01*
G01*
X80541370Y-44647868D01*
G75*
G02*
X80541370Y-45991370I-671751J-671751D01*
G01*
X80541370Y-45991370D01*
G75*
G02*
X79197868Y-45991370I-671751J671751D01*
G01*
X78278630Y-45072132D01*
G75*
G02*
X78278630Y-43728630I671751J671751D01*
G01*
G37*
D16*
X80680000Y-47400000D03*
X70520000Y-47400000D03*
D15*
X75600000Y-47400000D03*
G36*
G01*
X70658630Y-45991370D02*
X70658630Y-45991370D01*
G75*
G02*
X70658630Y-44647868I671751J671751D01*
G01*
X71577868Y-43728630D01*
G75*
G02*
X72921370Y-43728630I671751J-671751D01*
G01*
X72921370Y-43728630D01*
G75*
G02*
X72921370Y-45072132I-671751J-671751D01*
G01*
X72002132Y-45991370D01*
G75*
G02*
X70658630Y-45991370I-671751J671751D01*
G01*
G37*
D14*
X70100000Y-47400000D03*
X81100000Y-47400000D03*
G36*
G01*
X69580762Y-44419238D02*
X69580762Y-44419238D01*
G75*
G02*
X69580762Y-43287868I565685J565685D01*
G01*
X70287868Y-42580762D01*
G75*
G02*
X71419238Y-42580762I565685J-565685D01*
G01*
X71419238Y-42580762D01*
G75*
G02*
X71419238Y-43712132I-565685J-565685D01*
G01*
X70712132Y-44419238D01*
G75*
G02*
X69580762Y-44419238I-565685J565685D01*
G01*
G37*
G36*
G01*
X79780762Y-42580762D02*
X79780762Y-42580762D01*
G75*
G02*
X80912132Y-42580762I565685J-565685D01*
G01*
X81619238Y-43287868D01*
G75*
G02*
X81619238Y-44419238I-565685J-565685D01*
G01*
X81619238Y-44419238D01*
G75*
G02*
X80487868Y-44419238I-565685J565685D01*
G01*
X79780762Y-43712132D01*
G75*
G02*
X79780762Y-42580762I565685J565685D01*
G01*
G37*
D13*
X75600000Y-41500000D03*
D12*
X80820000Y-51600000D03*
X99820000Y-52900000D03*
D13*
X94600000Y-42800000D03*
G36*
G01*
X98780762Y-43880762D02*
X98780762Y-43880762D01*
G75*
G02*
X99912132Y-43880762I565685J-565685D01*
G01*
X100619238Y-44587868D01*
G75*
G02*
X100619238Y-45719238I-565685J-565685D01*
G01*
X100619238Y-45719238D01*
G75*
G02*
X99487868Y-45719238I-565685J565685D01*
G01*
X98780762Y-45012132D01*
G75*
G02*
X98780762Y-43880762I565685J565685D01*
G01*
G37*
G36*
G01*
X88580762Y-45719238D02*
X88580762Y-45719238D01*
G75*
G02*
X88580762Y-44587868I565685J565685D01*
G01*
X89287868Y-43880762D01*
G75*
G02*
X90419238Y-43880762I565685J-565685D01*
G01*
X90419238Y-43880762D01*
G75*
G02*
X90419238Y-45012132I-565685J-565685D01*
G01*
X89712132Y-45719238D01*
G75*
G02*
X88580762Y-45719238I-565685J565685D01*
G01*
G37*
D14*
X100100000Y-48700000D03*
X89100000Y-48700000D03*
G36*
G01*
X89658630Y-47291370D02*
X89658630Y-47291370D01*
G75*
G02*
X89658630Y-45947868I671751J671751D01*
G01*
X90577868Y-45028630D01*
G75*
G02*
X91921370Y-45028630I671751J-671751D01*
G01*
X91921370Y-45028630D01*
G75*
G02*
X91921370Y-46372132I-671751J-671751D01*
G01*
X91002132Y-47291370D01*
G75*
G02*
X89658630Y-47291370I-671751J671751D01*
G01*
G37*
D15*
X94600000Y-48700000D03*
D16*
X89520000Y-48700000D03*
X99680000Y-48700000D03*
G36*
G01*
X97278630Y-45028630D02*
X97278630Y-45028630D01*
G75*
G02*
X98622132Y-45028630I671751J-671751D01*
G01*
X99541370Y-45947868D01*
G75*
G02*
X99541370Y-47291370I-671751J-671751D01*
G01*
X99541370Y-47291370D01*
G75*
G02*
X98197868Y-47291370I-671751J671751D01*
G01*
X97278630Y-46372132D01*
G75*
G02*
X97278630Y-45028630I671751J671751D01*
G01*
G37*
D17*
X92060000Y-43620000D03*
X97140000Y-43620000D03*
D12*
X89380000Y-52900000D03*
X79880000Y-90950000D03*
D17*
X87640000Y-81670000D03*
X82560000Y-81670000D03*
G36*
G01*
X87778630Y-83078630D02*
X87778630Y-83078630D01*
G75*
G02*
X89122132Y-83078630I671751J-671751D01*
G01*
X90041370Y-83997868D01*
G75*
G02*
X90041370Y-85341370I-671751J-671751D01*
G01*
X90041370Y-85341370D01*
G75*
G02*
X88697868Y-85341370I-671751J671751D01*
G01*
X87778630Y-84422132D01*
G75*
G02*
X87778630Y-83078630I671751J671751D01*
G01*
G37*
D16*
X90180000Y-86750000D03*
X80020000Y-86750000D03*
D15*
X85100000Y-86750000D03*
G36*
G01*
X80158630Y-85341370D02*
X80158630Y-85341370D01*
G75*
G02*
X80158630Y-83997868I671751J671751D01*
G01*
X81077868Y-83078630D01*
G75*
G02*
X82421370Y-83078630I671751J-671751D01*
G01*
X82421370Y-83078630D01*
G75*
G02*
X82421370Y-84422132I-671751J-671751D01*
G01*
X81502132Y-85341370D01*
G75*
G02*
X80158630Y-85341370I-671751J671751D01*
G01*
G37*
D14*
X79600000Y-86750000D03*
X90600000Y-86750000D03*
G36*
G01*
X79080762Y-83769238D02*
X79080762Y-83769238D01*
G75*
G02*
X79080762Y-82637868I565685J565685D01*
G01*
X79787868Y-81930762D01*
G75*
G02*
X80919238Y-81930762I565685J-565685D01*
G01*
X80919238Y-81930762D01*
G75*
G02*
X80919238Y-83062132I-565685J-565685D01*
G01*
X80212132Y-83769238D01*
G75*
G02*
X79080762Y-83769238I-565685J565685D01*
G01*
G37*
G36*
G01*
X89280762Y-81930762D02*
X89280762Y-81930762D01*
G75*
G02*
X90412132Y-81930762I565685J-565685D01*
G01*
X91119238Y-82637868D01*
G75*
G02*
X91119238Y-83769238I-565685J-565685D01*
G01*
X91119238Y-83769238D01*
G75*
G02*
X89987868Y-83769238I-565685J565685D01*
G01*
X89280762Y-83062132D01*
G75*
G02*
X89280762Y-81930762I565685J565685D01*
G01*
G37*
D13*
X85100000Y-80850000D03*
D12*
X90320000Y-90950000D03*
D23*
X3000000Y-48000000D03*
X25000000Y-48000000D03*
M02*
